<?xml version="1.0" standalone="no"?>
<!DOCTYPE svg PUBLIC "-//W3C//DTD SVG 1.1//EN" "http://www.w3.org/Graphics/SVG/1.1/DTD/svg11.dtd" >
<svg xmlns="http://www.w3.org/2000/svg" xmlns:xlink="http://www.w3.org/1999/xlink" version="1.1">
<metadata>
Created by FontForge 20161013 at Sat May  6 15:08:07 2017
 By ,,,
(c) - 2017 - SvNProd
</metadata>
<defs>
<font id="NoemieScriptRegular" horiz-adv-x="766" >
  <font-face 
    font-family="NoemieScript"
    font-weight="500"
    font-stretch="normal"
    units-per-em="1000"
    panose-1="0 0 0 0 0 0 0 0 0 0"
    ascent="800"
    descent="-200"
    x-height="390.5"
    cap-height="746"
    bbox="-342.053 -765.017 1159.08 1082.26"
    underline-thickness="50"
    underline-position="-200"
    unicode-range="U+000D-E958"
  />
<missing-glyph horiz-adv-x="650" 
 />
    <glyph glyph-name=".notdef" horiz-adv-x="650" 
 />
    <glyph glyph-name=".notdef" horiz-adv-x="650" 
 />
    <glyph glyph-name=".null" horiz-adv-x="0" 
 />
    <glyph glyph-name="nonmarkingreturn" horiz-adv-x="333" 
 />
    <glyph glyph-name="controlCR" unicode="&#xd;" horiz-adv-x="253" 
 />
    <glyph glyph-name="space" unicode=" " horiz-adv-x="253" 
 />
    <glyph glyph-name="exclam" unicode="!" horiz-adv-x="176" 
d="M123 855q2 -16 1 -50q-1 -23 -3 -44l-8 -87l-20 -172l-21 -171q-7 -67 -8 -85q-2 -23 0 -42q1 -11 3 -19l2 -8q0 -1 2 -2h-2q12 -5 7 -16.5t-16 -6.5q-4 2 -6.5 4t-3.5 3.5t-2 3.5t-1 3q-3 6 -5 12q-3 10 -5 23q-3 21 -3 45q0 20 5 88l12 172l11 172l4 86q1 20 1 42
q0 24 -2 36l-1 5q-2 12 5 22t20 12q8 1 15 -2t12 -9t7 -14v-1zM49 88q20 0 34.5 -13t14.5 -31t-14.5 -31t-34.5 -13t-34.5 13t-14.5 31t14.5 31t34.5 13z" />
    <glyph glyph-name="quotedbl" unicode="&#x22;" horiz-adv-x="333" 
d="M218 838q9 -14 6 -31l-1 -3q-5 -20 -7 -46q-2 -24 0 -48q1 -15 1 -47q0 -40 2 -55v-1q3 -14 -6 -26t-23 -14h-5q-6 0 -12 2t-10.5 5.5t-8 9t-4.5 11.5q-5 24 -6 62q-1 28 -4 44q-4 30 -3 62q2 33 7 61q4 17 18 26t30.5 5.5t25.5 -17.5zM85 861q16 -3 25 -17.5t6 -30.5
l-1 -3q-5 -21 -7 -46t0 -48q1 -15 1 -48q0 -39 2 -55q2 -10 -1.5 -18.5t-11 -14.5t-16.5 -7q-3 -1 -5 -1q-8 0 -15.5 3.5t-12.5 10t-7 14.5q-5 25 -6 63q-1 28 -4 44q-4 30 -3 61q2 34 7 62q4 16 18 25t31 6z" />
    <glyph glyph-name="numbersign" unicode="#" horiz-adv-x="618" 
d="M276 375q34 5 87 14l4 24l17 115l2 13l-92 -18q-16 -4 -44.5 -10.5t-39.5 -8.5q-9 -65 -14 -97q-1 -8 -4 -24t-5 -21zM577 422q12 2 21.5 -5.5t10.5 -19.5t-6 -21t-19 -11q-60 -8 -168 -29l-10 -48q-12 -52 -1 -99l2 -5q1 -5 -0.5 -10.5t-5.5 -9t-9 -5.5q-15 -3 -23 10
q-31 51 -21 129l4 26q-41 -8 -65 -12l-113 -20q0 -2 -1 -7.5t-2 -8.5q-7 -31 -8 -58q0 -20 1 -28q0 -4 2.5 -11.5t2.5 -8.5l-3 -23q0 -6 -5.5 -10t-11.5 -4q-5 1 -9 4q-15 14 -25 38q-8 20 -10 39q-4 28 0 66l-42 -8l-36 -7l-18 -4l-9 -2l-4 -1l-1 -1h-1q1 0 3 1
q-13 -6 -26.5 -0.5t-19.5 18.5t-1 26.5t19 19.5q0 1 6 3h3l6 2l10 2l19 4l38 7l65 10q0 1 4.5 28.5t7.5 41.5q2 8 3.5 17.5t3.5 17t4 17.5t3 17q-9 -3 -53.5 -12.5t-68.5 -15.5q-15 -3 -27 4.5t-16 21.5q-2 9 0.5 18t9.5 15.5t16 8.5q1 0 2 1q12 2 152 28q17 68 32 122
q3 9 10.5 13t15.5 2q15 -5 14 -22q-2 -36 -10 -104q9 2 30.5 6t33.5 6l111 18q2 24 1 35v3q-1 15 8.5 26t24 12t25.5 -8.5t12 -23.5v-1q1 -16 0 -33q61 8 101 10q10 0 17.5 -6.5t7.5 -16.5t-6 -17t-16 -8h-1q-39 -3 -110 -16q-4 -29 -6 -38l-23 -115v-1q89 15 148 21z" />
    <glyph glyph-name="dollar" unicode="$" horiz-adv-x="581" 
d="M261 505q10 -5 63 -34l25 145q-38 -8 -74 -18l-18 -91zM404 343q-1 1 -40 24l-2 -7l-44 -209q1 0 2 0.5t2 0.5q41 8 92 29q50 22 67 48q15 26 -8 55q-20 27 -69 59zM265 142l40 227l6 29q-5 3 -68 36l-15 -75l-45 -224q41 1 82 7zM180 554q5 -4 18 -13l5 30l-0.5 -0.5
l-0.5 -0.5q-14 -6 -23 -15zM586 605q1 -4 0.5 -8t-2.5 -7.5t-5 -6t-7 -3.5q-16 -5 -24 10l-3 5q-7 14 -25 24.5t-38 11.5q-24 2 -63 -3l-40 -188q38 -22 64 -39q58 -40 85 -75q3 -5 17 -28q9 -29 10 -35q1 -27 -3 -38l-6 -18q-3 -5 -10 -15q-18 -25 -41 -40t-56 -30
q-58 -21 -105 -30q-3 0 -30 -4l-16 -76q-10 -61 -4 -111v-2q1 -9 -4.5 -16t-14.5 -8q-6 0 -11 2t-8 6.5t-4 10.5q-8 55 1 124l11 64q-45 -4 -83 -3q-8 -43 -10 -67q-6 -64 6 -110l1 -2q1 -6 -0.5 -11.5t-5.5 -9.5t-10 -5q-8 -2 -15.5 2t-9.5 13q-22 77 -4 194h-1.5h-0.5
q-61 6 -107 25q0 1 -2 1q-5 2 -8 3.5t-7.5 4t-8.5 4.5q-21 15 -25 20q-14 16 -17 33q-5 23 10 41q6 7 14.5 7.5t15.5 -4.5q14 -12 4 -27v-1q-2 -4 -2 -7q2 -6 8 -11q0 -1 16 -11q5 -3 20 -9q39 -14 94 -17h2.5h2.5l39 234l16 96l-4 3q-42 25 -50 31q-18 15 -25 37
q-5 15 -2 30.5t11 24.5q3 5 7 9.5t8.5 8.5t7.5 6.5t8.5 5.5t7.5 4.5t8 4.5t7 4q20 9 46 18l31 186q2 10 8 18t15.5 11.5t19.5 1.5q16 -3 25 -15.5t6 -27.5v-1v-1l-31 -152q34 7 71 12l28 152q1 10 7.5 17.5t15.5 11t19 1.5q15 -3 23.5 -15t5.5 -27v-1v-1l-28 -132
q33 1 59 -5q77 -18 95 -80z" />
    <glyph glyph-name="percent" unicode="%" horiz-adv-x="919" 
d="M685 585q-1 0 -1 -1l-283 -378l-141 -189l-71 -94q-4 -5 -11 -15t-13 -17.5t-9 -12.5q-10 -14 -3 -27l2 -5q5 -10 1.5 -20.5t-13.5 -16.5q-9 -4 -19 -1.5t-16 11.5q-26 40 -2 86q8 12 20.5 30t14.5 20l68 97l135 194l272 387q10 14 27 17t31.5 -7t17.5 -27t-7 -31z
M768 109q25 25 28 63q3 37 -20 51.5t-65 2.5q-50 -12 -101 -68q6 -7 7 -14v-4q1 -6 2 -14l1.5 -12t2 -9t4.5 -8t8 -6q23 -17 68 -11q43 7 65 29zM858 231q12 -28 10 -63q-4 -64 -49 -110q-40 -39 -107 -49q-72 -7 -117 24q-21 12 -33.5 37t-11.5 50h-1v1q-12 9 -9 23
q12 54 54 93t98 56q71 20 122 -9q30 -19 44 -53zM41 436q21 -24 58 -28q35 -4 70.5 11.5t48.5 42.5q13 26 0 47q-6 10 -19 17.5t-24 8.5q-28 1 -67 -15.5t-72 -42.5q-16 -16 5 -41zM195 357q-52 -19 -105 -10q-61 9 -95 54q-21 29 -23 56q-1 38 26 64q36 31 78 57
q56 31 101 31q68 -2 105 -61q18 -30 16.5 -62.5t-17.5 -58.5q-27 -48 -86 -70z" />
    <glyph glyph-name="ampersand" unicode="&#x26;" horiz-adv-x="658" 
d="M182 70q60 3 115.5 38.5t98.5 90.5q-33 24 -61 48q-50 43 -89 90q-34 -26 -57 -45q-67 -54 -95 -95q-19 -28 -21 -50q-4 -27 9 -45q12 -17 40 -25.5t60 -6.5zM232 507q3 -38 23 -78l6 5q38 28 54 42q21 20 38 48q15 25 14.5 52t-16.5 44q-14 15 -36 13q-25 -3 -47 -22
q-43 -37 -36 -104zM597 116q6 -4 8 -11t-2 -13q-8 -13 -23 -6q-71 38 -130 76v-1q-46 -64 -113 -107q-71 -48 -151 -52q-45 -3 -83 8q-51 15 -77 52q-28 41 -22 93q4 40 33 82q33 48 108 109q25 20 62 47q-30 53 -36 108q-6 42 8 85.5t46 72.5q36 33 81 40q28 3 52 -5
q24 -9 42 -29q34 -35 34 -88q1 -43 -22 -85q-28 -53 -110 -113q-3 -3 -11 -9q31 -40 78 -85q26 -23 53 -45q52 93 54 212q0 13 9 21.5t21 8.5t21 -9t9 -21q1 -141 -62 -253q61 -45 123 -83z" />
    <glyph glyph-name="quotesingle" unicode="'" horiz-adv-x="177" 
d="M4 455q-5 97 0 182q3 54 9 93q10 57 25 95q6 17 22.5 24t33.5 0.5t24 -23t0 -33.5q0 -2 -1 -4h-1q-28 -55 -46 -159q-14 -81 -19 -174v-1q-1 -10 -8 -16.5t-17 -5.5q-9 1 -15.5 7t-6.5 15z" />
    <glyph glyph-name="parenleft" unicode="(" horiz-adv-x="354" 
d="M189 655l-4 2q2 0 -1 -2q-10 -10 -22 -37q-23 -52 -39 -103q-36 -108 -43 -214q-8 -118 25 -208q35 -98 119 -163l-21 9q3 -2 16 -5q9 -3 17 -4q16 -1 25 2l11 5q9 4 17.5 0.5t11.5 -12.5q4 -9 0 -18q-14 -28 -52 -42q-13 -5 -28 -8q-19 -4 -30 -4h-1q-11 2 -20 9
q-101 84 -140 205q-35 107 -22 240q10 105 52 229q19 54 44 109q19 39 40 57q24 20 51 16q25 -6 43 -28q7 -10 5.5 -22t-10.5 -20q-10 -7 -21.5 -6t-19.5 10z" />
    <glyph glyph-name="parenright" unicode=")" horiz-adv-x="338" 
d="M49 768q9 -2 26 -8q10 -4 19 -10q18 -10 31 -23q27 -24 47 -56q33 -51 54 -123q38 -120 53 -252q15 -147 -20 -261q-20 -66 -66 -121t-108 -80q-9 -4 -18 0t-13 13q-7 17 9 28l1 1q95 63 125 180q26 100 17 233q-11 126 -47 237q-23 66 -49 103q-17 22 -36 37
q-8 7 -20 12l-13 4q-18 2 -29 15.5t-9.5 31.5t15.5 29t31 10z" />
    <glyph glyph-name="asterisk" unicode="*" horiz-adv-x="351" 
d="M272 762q14 -4 21 -17.5t2.5 -27.5t-17.5 -21t-28 -3q-1 1 -3 1l-1 1q-25 10 -58 17q-1 0 -2.5 0.5t-3 0.5t-3 0.5t-2.5 0.5q20 -16 42 -23l1 -1q9 -3 13 -11.5t1 -17.5t-11 -13.5t-17 -1.5q-38 10 -74 39q-1 -1 -2 -4t-2 -5q-17 -28 -34 -49q-7 -9 -19 -10.5t-21.5 6
t-10.5 19.5t6 22q1 0 1 1h1q15 17 30 40q1 1 2.5 4.5t2.5 5.5q-15 -3 -19 -4q-24 -5 -56 -22l-2 -1q-9 -4 -18 -1.5t-14 11.5q-4 8 -2 16.5t10 13.5q37 25 66 34q3 1 8 2.5t6 1.5q-15 25 -23 47q-5 11 0 22t16 15.5t22 0t15 -16.5q1 0 1 -1v-1q7 -19 19 -43q5 28 1 52v1
q-2 9 3.5 17t15.5 10q6 1 11.5 -1t9.5 -6.5t6 -10.5q8 -33 2 -72q19 0 34 -2q41 -4 74 -15z" />
    <glyph glyph-name="plus" unicode="+" horiz-adv-x="647" 
d="M574 387q10 -1 16 -8.5t5 -17.5q-2 -18 -19 -20l-1 -1q-34 -5 -73 -9.5t-87 -9.5t-74 -8q-2 -111 7 -193v-1q1 -10 -3 -19t-12 -14.5t-18 -7.5q-10 -1 -18.5 3t-14.5 11.5t-8 17.5q-12 85 -14 194l-206 -26q-19 -2 -34 9.5t-17 30.5t9.5 34t30.5 17h2q89 8 215 15
q2 114 10 210q1 13 8 23t18 15t23 4q19 -2 31 -16t10 -33v-1v-1q-10 -89 -16 -197q162 7 230 -1z" />
    <glyph glyph-name="comma" unicode="," horiz-adv-x="307" 
d="M136 109q1 -3 7 -9q-3 2 -7 9zM135 112v-2v1v1zM213 126q2 -13 1 -22q-1 -14 -7 -33q-7 -21 -25 -52q-26 -44 -60 -87q-51 -65 -137 -153q-6 -7 -16 -7t-17 6q-6 7 -6.5 16t4.5 16h1q76 93 119 159q28 41 48 83q12 26 15 41q3 10 2 16v1q-15 25 3 46q11 13 27.5 14.5
t29.5 -8.5q7 -7 15 -22q1 -3 3 -14z" />
    <glyph glyph-name="hyphen" unicode="-" horiz-adv-x="475" 
d="M24 355q11 2 23.5 3t23.5 1h24h23h95q117 -1 190 -9q9 -1 15.5 -8.5t4.5 -17.5q-1 -9 -8 -15t-16 -6h-1q-62 4 -185 1l-93 -3q-7 0 -46.5 -2.5t-46.5 0.5q-12 1 -19.5 10.5t-5.5 20.5q2 21 22 25z" />
    <glyph glyph-name="period" unicode="." horiz-adv-x="144" 
d="M94 45q0 -19 -13.5 -32t-33 -13t-33.5 13t-14 32t14 32t33.5 13t33 -13t13.5 -32z" />
    <glyph glyph-name="slash" unicode="/" horiz-adv-x="628" 
d="M-13 -93q-17 33 -12 71q3 28 29 63q31 43 69 93q74 96 143 179q175 204 321 330q7 6 17 5.5t16 -8.5q6 -7 5.5 -16.5t-7.5 -15.5q-66 -64 -155 -164q-71 -80 -146 -173t-140 -178q-37 -50 -66 -92q-16 -22 -21 -37q-4 -13 -8 -42l-1 -7q-1 -10 -9 -16t-17 -4
q-12 1 -18 12z" />
    <glyph glyph-name="zero" unicode="0" horiz-adv-x="703" 
d="M571 310q5 22 4 33q-2 19 -8 38q-24 89 -80 131q-36 29 -89.5 30t-104.5 -18t-96 -51q-75 -57 -105 -123q-37 -78 -10 -154q25 -64 75 -94q26 -16 57 -24q29 -9 58 -10q86 15 155 55q73 43 114 113q21 37 30 74zM642 401q7 -27 9 -52q2 -24 -6 -57q-12 -48 -39 -94
q-52 -87 -142 -139q-77 -44 -185 -59h-2h-3q-38 2 -80 15q-39 12 -72 34q-34 23 -59 55q-20 25 -39 71q-36 96 6 201q37 89 121 156q81 63 180 82q47 12 104.5 2.5t99.5 -43.5q76 -59 107 -172z" />
    <glyph glyph-name="one" unicode="1" horiz-adv-x="675" 
d="M604 48q9 0 15 -6.5t6 -14.5q-1 -12 -11 -18q-16 -10 -34 -7q-20 3 -34 19q-14 17 -25 50q-10 38 -10 92q-1 68 9 175q1 2 21 172q7 56 7 82v3v4q-7 -15 -16 -30q-22 -39 -55 -86q-52 -77 -122 -162q-71 -85 -135 -152q-53 -54 -78 -72q-29 -17 -56 -23q-18 -4 -35 -2
q-24 5 -40 18q-8 8 -8 20.5t8.5 21t20.5 8.5t21 -9q-1 2 1 1q3 -2 5 -2q8 -1 16 1q16 2 36 14q22 15 69 63q64 64 134 147t123 156q32 46 54 83q30 51 38 84l1 4q2 8 10 12.5t17 2.5l4 -2q5 -3 8 -5.5t4.5 -3.5t3 -3.5t2.5 -3.5q4 -6 8 -13q6 -13 8 -25q5 -20 7 -47
q3 -39 -2 -90l-15 -172q-9 -103 -8 -168q1 -52 5 -80q3 -19 7 -29q1 -2 1 -4t1.5 -2.5t7.5 -0.5h5z" />
    <glyph glyph-name="two" unicode="2" horiz-adv-x="501" 
d="M54 62h2h-2zM248 486q34 4 61 19q3 36 -2 59q-4 15 -10 22q-11 13 -22 21q-24 16 -47 8q-24 -6 -44 -33q-4 -6 -6 -11q-3 -7 -6 -16q-5 -16 -5 -30t4 -21t14 -12q22 -10 63 -6zM535 83q4 -6 -2 -12q-61 -58 -138 -65q-67 -8 -153 29q-7 2 -41.5 17t-51.5 21
q-48 -39 -94 -54h-2q-9 -3 -16 1h-1q-15 7 -24 18q-14 17 -9 38q4 12 10.5 21.5t9 12t12.5 10.5q18 15 42.5 21.5t46.5 3.5q4 0 9.5 -1.5t6.5 -2.5q1 1 5.5 6t7.5 8q48 54 85 126q36 71 56 143q1 2 2 7t1 7q-21 -8 -41 -11q-58 -7 -95 5q-30 11 -46 38q-15 24 -15 55
q0 23 7 49q3 12 7 22q5 12 13 25q32 46 81 61q28 8 56 3t50 -21q19 -14 36 -34q16 -20 24 -50q0 -2 0.5 -5t0.5 -5q5 0 9 -1q5 -2 9 -7t5 -10t-1 -11q-6 -22 -20 -42q-4 -41 -19 -94q-23 -78 -65 -153q-40 -72 -92 -130q6 -2 66 -33q64 -34 126 -37q62 -2 128 35q9 5 14 -4z
" />
    <glyph glyph-name="three" unicode="3" horiz-adv-x="546" 
d="M3 587zM492 266q6 -76 -52 -145q-51 -59 -113 -90q-68 -34 -144 -27q-69 7 -137 44q-20 11 -31.5 31.5t-11.5 43.5q1 25 14 44q11 15 29 22q4 2 8.5 1.5t8 -3.5t5 -7t0.5 -9v-1q-1 -8 -15 -28q-5 -7 -5 -19q1 -23 22 -33q59 -29 117 -31q39 -3 77.5 9.5t70 35.5t57.5 56
q40 51 34 100q-5 51 -51 94t-99 56q-42 14 -117 8q-8 -4 -17 -1t-13 12q-5 11 2 22l3 4q11 16 46 65q24 46 22 78q-1 32 -33 42q-33 9 -76 -8q-19 -7 -35 -20q-9 -8 -14 -15q-4 -3 -7 -8l-3 -4l-1 -2v-1l-1 -1v0h1q-3 -11 -7 -16.5t-13 -3.5q-15 3 -11 26h1v1v1v2l1 4
q1 6 1 7q2 7 5 14q6 15 14 26q17 24 44 40q59 34 117 19q37 -9 58 -36q22 -27 23 -65q0 -47 -36 -110v-1l-3 -3q0 -1 -1.5 -2t-2.5 -2.5t-2 -2.5q34 2 71 -4q73 -15 130 -72q65 -63 70 -137z" />
    <glyph glyph-name="four" unicode="4" horiz-adv-x="486" 
d="M408 552q13 -3 20 -14.5t4 -25.5q-1 0 -1 -1q-35 -123 -59 -236q-13 -63 -21 -120q-9 -59 -9 -103q14 -1 20 -13q4 -8 1.5 -16.5t-9.5 -13.5q-7 -4 -13 -6q-10 -3 -20 -1q-12 3 -19 13q-5 7 -8 16v3v1q-4 48 5 127q4 41 15 104q-56 -26 -114 -34q-55 -6 -95 6
q-13 3 -25.5 10.5t-23.5 17.5t-19.5 22t-12.5 25q-7 19 -10.5 38t-3 40t1.5 34t4 37t4 31q5 38 7 78v38q-1 19 -3 32l-1 4q-4 15 4.5 27.5t23.5 15.5q7 2 13.5 0.5t12.5 -5t10 -9t6 -12.5q5 -18 7 -49q2 -23 2 -44q-1 -37 -6 -85q-9 -67 -9 -79q-2 -42 6.5 -66t33.5 -33
q21 -8 67 -6q57 4 131 29q20 106 43 199q3 13 15 20t25 4z" />
    <glyph glyph-name="five" unicode="5" horiz-adv-x="512" 
d="M523 681q6 1 11.5 -2t9 -8t4.5 -12q0 -8 -5 -15t-14 -9q-208 -47 -288 -70q-89 -24 -133 -47q-14 -8 -22 -15q-1 0 -1 -1q1 -18 11 -63q10 -41 25.5 -85.5t38.5 -105t33 -89.5q16 -49 18 -81q1 -31 -12 -52q-10 -15 -27 -22q-10 -4 -28 -4q-50 3 -81 39q-27 30 -37 73
q-3 12 8 14q9 2 13 -5v-2q18 -32 44 -52t53 -17q10 1 10 4q2 5 1 21q-2 23 -17 64q-13 33 -58 127.5t-62 151.5q-13 37 -17 81q-2 8 1 20q1 10 7 21q8 13 21 26q15 13 41 26q52 24 151 48q146 32 301 41z" />
    <glyph glyph-name="six" unicode="6" horiz-adv-x="527" 
d="M386 221v2q-2 7 -2 8q-1 5 -9 17q-14 18 -35 29q-43 24 -98.5 10.5t-82.5 -53.5q-22 -31 -27 -73q32 -23 77 -25q53 -3 106 23q27 13 45 29q23 19 26 33zM434 292q14 -22 20 -39q3 -8 4.5 -23t-3.5 -29q-5 -16 -14 -29.5t-15.5 -20t-19.5 -17.5q-27 -23 -61 -38
q-50 -23 -102.5 -26.5t-106.5 15.5q8 -35 24 -65q6 -11 -5 -17q-9 -5 -16 3q-43 50 -55 110q-2 1 -4 2.5t-3.5 3t-3.5 3t-3 2.5q-48 49 -62 130q-11 64 -1 137q21 142 105 247q48 61 103 93q73 43 144 36q44 -6 76 -29q20 -14 31 -38.5t8 -45.5q-3 -39 -17.5 -68.5
t-40.5 -62.5q-6 -7 -15.5 -8t-16.5 4q-15 12 -7 28l1 2q32 68 29 104q-3 18 -14 25q-20 11 -42 12q-46 5 -97 -26q-45 -27 -84 -73q-77 -92 -97 -211q-10 -61 -1 -115q4 -24 14 -48q7 29 19 48q18 32 50.5 55t68.5 32q82 21 149 -13q37 -19 61 -50z" />
    <glyph glyph-name="seven" unicode="7" horiz-adv-x="634" 
d="M571 390q5 0 8.5 -4t3.5 -10q0 -10 -10 -12l-6 -1q-16 -3 -44 -13l-48 -15l-29 -10q-1 -5 -4.5 -21t-4.5 -25q-10 -67 -13 -118q-2 -29 -1 -57q3 -34 9 -41q9 -12 7.5 -26.5t-13 -24t-26.5 -8t-24 13.5q-2 2 -3 4v1q-6 8 -9.5 16.5t-5.5 17t-2.5 14t-1.5 15t-2 13.5
q-1 33 1 66q3 54 14 125q0 2 1 5.5t1 5.5l-87 -27q-61 -15 -108 -15q-16 1 -27 12t-11 27q0 15 10 25.5t25 11.5l3 1q49 3 91 12q12 2 46 9t53 10q4 1 18 3q1 6 2.5 14t3 15.5t2.5 13.5l7 31q3 11 6 27q4 28 2 53q-3 53 -40 81.5t-90 18.5q-90 -12 -210 -86l-2 -1
q-13 -8 -28.5 -4.5t-23.5 17t-4.5 28.5t16.5 24h1q66 39 122.5 62.5t120.5 32.5q33 4 72 -3q44 -11 70 -32q30 -23 47 -59t19 -73q2 -33 -3 -70q-3 -19 -6 -33l-7 -29q-1 -3 -1.5 -8t-1.5 -8q1 0 4 1h4q76 9 107 7z" />
    <glyph glyph-name="eight" unicode="8" horiz-adv-x="462" 
d="M247 321q-9 10 -29 31q-51 -77 -84 -134q-38 -67 -43 -97q-2 -19 6 -28q8 -11 31 -14q49 -7 100 12t70 56q20 38 5 86q-12 37 -56 88zM396 652q10 -8 12 -20.5t-6 -22.5q-88 -117 -142 -195q24 -23 43 -45q53 -63 71 -113q12 -31 10 -72t-20 -73q-35 -62 -112 -90
q-71 -24 -137 -13q-47 9 -73 39q-28 34 -20 85q3 14 7 27t11 28t10 21t13 24t11 21q39 63 96 146q-29 26 -95 82q-33 30 -47 51q-30 43 -21 86q10 41 47 71q31 24 65 34q52 17 129 16q59 -1 123 -15q7 -1 11 -7.5t3 -13.5q-3 -14 -17 -14h-1q-146 -6 -222 -37
q-19 -7 -38 -24q-15 -15 -18 -27q-5 -8 5.5 -28t30.5 -38q16 -14 47 -41t40 -35q53 73 141 187q8 10 20.5 12t22.5 -6z" />
    <glyph glyph-name="nine" unicode="9" horiz-adv-x="560" 
d="M356 428q45 50 58 96q8 26 2 47q-3 12 -8 20q-2 3 -11 13l-2 1l-6 2l-12 4q-12 3 -25 3q-26 2 -49 -5q-43 -13 -84 -54q-45 -43 -58 -85q-7 -22 -3.5 -44.5t17.5 -38.5q8 -11 37 -16q26 -4 52 1q50 11 92 56zM499 395q11 -66 10 -127q-2 -76 -25 -131q-28 -66 -94 -106
q-57 -33 -135 -28q-66 5 -126 34q-65 33 -103 81q-27 36 -22 71q4 34 37 61v1q12 10 22 -2q10 -11 -1 -21q-17 -16 -19.5 -33.5t6.5 -33t26 -30.5t36 -26t40 -20q53 -22 106.5 -22t98.5 25q45 31 61 76q15 43 15 105q0 49 -9 114q-3 14 -8 42q-12 -15 -24 -29
q-50 -57 -114 -75q-36 -11 -71 -8q-49 5 -75 29q-30 27 -40.5 67.5t-0.5 79.5q17 64 72 122q56 57 125 70q35 7 74 1q18 -3 35 -9q11 -4 17 -7l9 -4l4 -2q1 0 1 -1q3 -1 7 -4q17 -18 26 -35t12 -38q5 -34 -8 -71q4 -2 7 -5t4 -5.5t2 -7t2 -5.5l7 -31q8 -31 13 -62z" />
    <glyph glyph-name="colon" unicode=":" horiz-adv-x="136" 
d="M36 416q-12 0 -20 8.5t-8 21t8 21t20 8.5t20 -8.5t8 -21t-8 -21t-20 -8.5zM43 291q12 0 21.5 -5.5t15.5 -14.5t6 -20q0 -17 -12.5 -28.5t-30.5 -11.5t-30.5 11.5t-12.5 28.5t12.5 28.5t30.5 11.5z" />
    <glyph glyph-name="semicolon" unicode=";" horiz-adv-x="269" 
d="M191 316q12 0 20 -8.5t8 -21t-8 -21t-20 -8.5t-20 8.5t-8 21t8 21t20 8.5zM122 78q0 -2 7 -9q-3 3 -7 9zM121 82v-2v1v1zM195 110q2 -4 4 -14q2 -14 1 -22q-1 -15 -8 -33q-7 -22 -24 -53q-26 -44 -60 -87q-51 -64 -137 -153q-7 -7 -16.5 -7t-16.5 7q-7 6 -7.5 15.5
t5.5 16.5q76 93 120 159q28 41 48 83q11 25 15 40q2 11 2 16v1q-15 25 3 47q11 13 27.5 14.5t29.5 -9.5q7 -7 14 -21z" />
    <glyph glyph-name="less" unicode="&#x3c;" horiz-adv-x="601" 
d="M445 153q3 -2 16.5 -10.5t19.5 -13t18.5 -13.5t19 -17.5t14.5 -19.5t12 -24.5t5 -28.5q0 -10 -6 -17.5t-16 -7.5q-14 -1 -22 11l-6 10q-16 26 -33 39q-10 8 -56 35l-127 68l-254 135l-1 1l-1 1q-16 8 -20.5 25t3.5 32q8 14 23 19l464 172q5 2 9.5 2t8.5 -2t7.5 -5.5
t4.5 -7.5q4 -9 0.5 -17.5t-12.5 -12.5l-373 -173q124 -72 178 -104z" />
    <glyph glyph-name="equal" unicode="=" horiz-adv-x="575" 
d="M463 284q13 0 22 -9t9 -22q0 -12 -9 -21t-21 -10l-201 -4q-92 -2 -102 -1q-61 1 -105 7q-15 2 -23.5 14t-6.5 26.5t13.5 23t26.5 6.5h2q39 -7 95 -9q10 0 99 -1h201zM505 434q10 -2 15 -10t3 -18q-2 -8 -9 -13t-15 -4h-7q-17 1 -49 -2l-54 -5q-54 -6 -110 -15
q-65 -10 -106 -20q-32 -8 -58 -12q-19 -3 -32 -3q-11 -1 -18 -1q-6 0 -11 1l-7 1l-5 2q-8 2 -10 4q-17 9 -23 28t4 36q8 17 25.5 23t34.5 -1q3 -1 9 -1q9 -1 24 0q23 1 52 4q46 6 114 10q58 3 113 3l57 -1q48 -3 63 -6zM77 423l-4 2q1 -1 4 -2z" />
    <glyph glyph-name="greater" unicode="&#x3e;" horiz-adv-x="601" 
d="M523 253q15 -8 20 -25t-4 -32q-8 -14 -22 -19l-465 -172q-9 -4 -17.5 0t-12.5 13q-2 6 -1 12t4.5 10.5t8.5 7.5l373 173q-124 72 -178 104l-124 76q-3 2 -14 9t-17 11t-16.5 11.5t-16.5 13.5t-14 16t-13 19t-8.5 21.5t-4.5 25.5q-1 10 5.5 17.5t16.5 7.5q14 1 21 -11
l6 -10q16 -26 34 -39q10 -8 56 -35l126 -68l255 -136z" />
    <glyph glyph-name="question" unicode="?" horiz-adv-x="432" 
d="M90.5 80q17.5 0 30 -11.5t12.5 -28.5t-12.5 -28.5t-30 -11.5t-30 11.5t-12.5 28.5t12.5 28.5t30 11.5zM379 659q5 -40 -6 -77q-7 -24 -21.5 -48.5t-22.5 -34t-29 -34.5q-31 -36 -88 -88q-62 -57 -83 -81t-33 -40q-15 -23 -16 -37v-4q0 -7 -5.5 -11.5t-12.5 -4.5
q-6 0 -10 5q-15 13 -17.5 37.5t4.5 40.5q10 29 34 60q22 28 84 92q50 50 79 86q46 54 53 86q6 19 3 41q-2 13 -5 23q-2 7 -6 12q-6 8 -18 15t-27.5 12t-31.5 7q-56 8 -95 -9q-19 -8 -32 -21q-10 -10 -23 -36l-4 -8q-4 -8 -13 -11.5t-17 0.5q-10 5 -12 15q-11 39 7 79
q18 37 58 56q59 28 141 20q42 -5 75.5 -19t60.5 -46q14 -19 21 -41q5 -16 8 -36z" />
    <glyph glyph-name="at" unicode="@" horiz-adv-x="902" 
d="M496 281q22 17 26 46v4l-1 8q-1 6 -4 16q-4 16 -13 27q-17 22 -56 20q-37 -1 -61.5 -22t-23.5 -50q-1 -32 20 -49q19 -18 56 -18q33 0 57 18zM844 459q12 -87 -46 -161q-56 -72 -137 -93q-56 -12 -95 5q-12 7 -23 18q-1 0 -2 -1l-1 -1q-42 -33 -102 -34q-62 2 -101 38
q-22 19 -32.5 47t-8.5 56t16 53.5t37 42.5q37 27 97 30q59 2 100 -35q19 -18 32 -44q5 -11 9 -25q1 -3 3 -13l1 -6l1 -4v-2v-5q-1 -8 -4 -22v-4q-1 -10 3 -17q3 -5 8 -8q14 -7 45 1q57 14 97 67q39 51 32 108q-7 54 -56 104q-47 47 -107.5 77t-124.5 36q-65 8 -129 -10.5
t-117 -59.5q-36 -27 -66 -60t-53 -72.5t-35 -80.5q-19 -62 -6 -128.5t55 -116.5q44 -53 105 -75q51 -18 132 -13q123 8 260 90q7 4 14 2t11 -8.5t2.5 -13.5t-7.5 -12h-1q-142 -92 -275 -105q-89 -7 -152 13q-75 25 -129 87q-52 59 -69.5 139.5t3.5 156.5q39 143 171 249
q61 49 138 72t155 14q77 -7 148 -41.5t127 -90.5q67 -65 77 -144z" />
    <glyph glyph-name="A" unicode="A" horiz-adv-x="495" 
d="M200 412q44 7 93 18q-12 88 -30 164q-12 50 -26 93q-8 -20 -35 -83q-30 -67 -79 -164q-4 -8 -11.5 -21.5t-10.5 -19.5q53 5 99 13zM440 33q4 -18 -6 -34t-28.5 -20t-34.5 6t-20 29q0 1 -1 2q-14 78 -30 195q-7 54 -19 156q-44 -13 -88 -23q-76 -17 -155 -28
q-59 -108 -108 -195q-7 -12 -19.5 -15t-24 3.5t-15 19t2.5 24.5h1q46 81 98 177q-6 9 -7 18q-2 16 8.5 29.5t26.5 14.5q2 1 3 1h1q5 8 13 23.5t15 28.5t12 24q49 95 78 161q47 108 58 162l1 3q3 13 14 19.5t24 3.5q15 -3 21 -16q38 -76 71 -191q20 -73 35 -163q1 0 3 0.5
t4 1.5q11 3 21.5 -3t13.5 -17t-2.5 -21t-15.5 -14q-3 -1 -7.5 -2t-6.5 -2q16 -102 27 -167q20 -114 36 -190v-1z" />
    <glyph glyph-name="B" unicode="B" horiz-adv-x="674" 
d="M474 128q59 43 62 81q3 18 -9 39t-35 38q-23 16 -50 25q-26 9 -61 15q-41 7 -96 13l-4 -47l-12 -128l-6 -64l-1 -13q128 -22 212 41zM598 291q28 -45 21 -93q-6 -43 -38 -83q-24 -29 -60 -53q-67 -46 -147 -52q-60 -6 -124 9q-5 -10 -13.5 -16.5t-18.5 -9t-22 0.5
q-16 5 -25 19.5t-6 31.5v3q-43 18 -75 43q-18 14 -30 31q-19 27 -12 53t37 38q19 7 39 8q7 0 12 -4.5t6 -11.5q0 -12 -12 -16q-24 -7 -34 -21q-2 -3 -1 -3t1.5 -1.5t2.5 -4t4 -5.5q8 -9 21 -17q22 -14 51 -26l29 190l37 254q1 8 6 14.5t12.5 9.5t16.5 2q12 -2 19.5 -11.5
t6.5 -21.5l-9 -111q82 54 126 104q42 47 39 83q-2 34 -53 56q-46 20 -104 20t-110 -17q-64 -20 -97 -45q-40 -29 -32 -71l1 -6q2 -10 -3.5 -18t-15.5 -10q-15 -3 -24 10q-23 36 -15 81q8 37 40 69q44 41 123 65q147 45 269 -6q40 -18 63 -44q32 -34 34 -79q3 -38 -18 -79
q-14 -27 -42 -58q-44 -47 -111 -89q3 -1 13 -1t16 -1q41 -5 73 -14q37 -9 74 -35q38 -27 59 -61z" />
    <glyph glyph-name="C" unicode="C" horiz-adv-x="622" 
d="M348 483q9 38 3 70q-5 31 -27 42q-24 12 -60 5q-31 -5 -62 -27q-56 -39 -89 -116q-30 -73 -26 -148q4 -82 43 -148.5t104 -74.5q135 -24 306 62h1q7 4 15 1t12 -10q7 -15 -6 -25q-70 -55 -157 -84q-91 -31 -183 -18q-54 5 -95 37q-39 29 -66 75q-46 78 -53 180
q-6 97 33 187t118 146q21 14 44 24t49 14.5t53.5 0.5t53.5 -17q26 -14 42 -41t19 -55q6 -46 -9 -99q-4 -13 -15.5 -19.5t-24.5 -2.5q-13 3 -19.5 14.5t-3.5 23.5v3z" />
    <glyph glyph-name="D" unicode="D" horiz-adv-x="670" 
d="M594 430q26 -60 25 -113q-2 -39 -15 -64q-11 -25 -36 -51q-29 -31 -86 -68q-87 -58 -196 -77q-25 -4 -50 -5q-9 -4 -17 -3q-2 0 -7 2q-20 1 -35 3q-22 2 -56 16l-27 16q-3 2 -6.5 5t-8 7t-6.5 6q-48 44 -56 99q-8 58 26 109q4 6 11 7.5t14 -2.5q13 -9 5 -23l-1 -2
q-21 -40 -9 -80q10 -38 47 -67q1 -1 7.5 -5.5t9.5 -6.5l17 -8q28 -7 40 -7h5.5h5.5q9 113 7 211q-1 62 -6 122q-6 70 -16 119v1q-3 18 7 33t28 19q12 2 23 -2t18.5 -13t10.5 -20v-3q7 -53 10 -129q3 -63 1 -128q-3 -91 -17 -202q2 1 5 1.5t5 0.5q69 19 168 75q46 29 69 55
q27 30 28 61q1 70 -64 153q-49 65 -137 121q-62 39 -171 77q-54 17 -88 19q-6 0 -12 -0.5t-8.5 -1.5t-2.5 0l-1 -5q1 -6 5 -15l1 -2q5 -9 2 -18t-11 -14q-8 -4 -16.5 -2t-13.5 10q-2 2 -3 3.5t-2.5 3.5t-2.5 4t-2 4.5t-2 4.5t-1.5 4.5t-1.5 5.5q-6 24 4 43q13 20 34 26
q11 4 32 6q37 2 107 -13q112 -28 193 -74q100 -56 163 -136q32 -38 57 -93z" />
    <glyph glyph-name="E" unicode="E" horiz-adv-x="564" 
d="M375 473q5 2 11 0.5t10 -6t5 -9.5q5 -18 -12 -25l-243 -110q-16 -7 -33 -0.5t-24.5 23t-1 33.5t22.5 25q3 1 7 2zM473 231q7 6 16.5 5.5t15.5 -6.5q6 -7 6 -15.5t-5 -14.5q-88 -101 -209 -135q-68 -17 -130 -6q-35 5 -66.5 26.5t-49.5 51.5q-10 15 -17 31.5t-11.5 30
t-8 33t-5 31t-2.5 33t-1 29.5t0.5 31.5t0.5 27.5l3 236q1 16 12.5 27.5t27.5 11.5q5 -1 13 -3l425 52q9 1 16 -4.5t8 -14.5q1 -8 -3.5 -14.5t-12.5 -8.5l-409 -104l-5 -178l-2 -59q0 -28 2 -54q6 -62 28 -96q24 -41 71 -51q47 -11 102 0q100 22 189 105z" />
    <glyph glyph-name="F" unicode="F" horiz-adv-x="672" 
d="M601 702q9 -2 14.5 -10t4.5 -18q-2 -8 -8 -13.5t-15 -5.5h-1q-58 -3 -130 -16q-11 -2 -32 -7t-33 -8q-32 -5 -71 -9q-89 -9 -219 -13l-2 -8l-1 -14q0 -6 -0.5 -18t-0.5 -14l-1 -65l1 -132l1 -21q10 1 16 1q39 2 80 6q68 6 160 18q9 2 17 -4t9 -16q1 -4 0 -8.5t-3.5 -7.5
t-6 -5.5t-7.5 -4.5q-92 -23 -159 -37q-42 -9 -81 -16q-3 0 -11 -1.5t-12 -2.5l5 -166v-1q0 -12 -8.5 -21t-20.5 -9q-11 0 -19.5 7.5t-10.5 18.5l-18 165q-15 2 -25.5 12.5t-11.5 25.5t7 26.5t21 16.5l-2 19l-12 133l-5 68q0 1 -0.5 14t-0.5 21v18l1 23q0 1 0.5 2l0.5 1
q-7 12 -7 23q0 21 14 36t35 15h1h1q184 -1 269 1q36 1 65 3q45 6 69 7q75 3 143 -9z" />
    <glyph glyph-name="G" unicode="G" horiz-adv-x="655" 
d="M375 389zM601 395q7 -16 -8 -25q-23 -16 -53 -27q15 -24 20 -45q5 -19 5 -38q0 -28 -5 -41q-9 -33 -40 -66q-44 -47 -116 -75q-63 -24 -130 -31q-86 -7 -139 12q-24 8 -45 24t-36.5 36t-25.5 42q-26 58 -27 136q-1 61 13 132q14 70 46 129q34 62 86 107q61 54 123 71
q43 11 80 4q51 -9 76 -48q23 -37 15 -84q-7 -38 -25 -68q-6 -9 -16 -11.5t-20 2.5q-17 10 -11 29v2q8 25 7.5 52t-10.5 36q-8 9 -29 11.5t-44 -5.5q-47 -14 -89 -51.5t-71 -87.5q-27 -46 -41 -104q-15 -63 -16 -116q-2 -61 19 -110t65 -64q38 -14 108 -8q58 6 112 26
q60 24 95.5 61t21.5 80q-5 22 -21 41q-1 -1 -3 -1q-2 -1 -3 -1q-39 -9 -71 -5q-24 4 -39 10q-27 14 -39 32q-5 7 -6 20q-1 16 6 26q3 6 16 16q7 5 14 7q16 5 43 5q36 -3 72 -21q18 -9 39 -27q39 9 67 21l2 1q8 3 16 0t12 -11z" />
    <glyph glyph-name="H" unicode="H" horiz-adv-x="593" 
d="M525 -35q9 -4 13 -12.5t0.5 -17.5t-12 -13.5t-17.5 -0.5q-26 9 -46 40q-13 22 -20 47q-10 37 -16 92q-7 66 -6 149q-9 -4 -19.5 -6.5t-18.5 -4.5t-19.5 -3.5t-18 -2.5t-19.5 -2t-17.5 -1.5t-19 -0.5h-17h-19h-17.5q-77 2 -171 14q-4 -75 -16 -129q-2 -10 -10 -15.5
t-18 -3.5q-8 2 -13 8.5t-5 14.5q-1 49 -0.5 73t2.5 73t3 73l4 219v1q1 9 8 16t16 7q9 -1 15.5 -7t7.5 -15q10 -112 8 -222v-6v-6q94 -17 172 -22q118 -6 171 14q7 1 13 6q9 174 32 321q1 10 9 15.5t18 4.5q5 -1 10 -5q11 -5 13 -16q20 -102 18 -193q-2 -60 -13 -101
q-10 -33 -24 -53q-3 -6 -10 -13q-2 -121 3 -176q5 -50 14 -83q4 -21 13 -37.5t18 -19.5h1z" />
    <glyph glyph-name="I" unicode="I" horiz-adv-x="171" 
d="M95 721.5q16 -18.5 19 -39.5t-9 -31t-32 -4t-36 24.5t-19 39t9 31t32 4.5t36 -24.5zM89 57l1 -1q5 -13 -1 -25.5t-19 -17t-25.5 1.5t-16.5 19q-14 38 -21 102q-4 48 -5 99q-3 95 2 195q1 15 11.5 24.5t25 8.5t24 -11.5t9.5 -24.5v-1q-6 -98 -5 -190q1 -48 5 -93
q5 -55 15 -86z" />
    <glyph glyph-name="J" unicode="J" horiz-adv-x="632" 
d="M620 664q10 -3 14.5 -12.5t1.5 -19.5q-3 -9 -11.5 -14t-18.5 -3l-3 1q-17 4 -53 6q-25 2 -58 1q-63 0 -116 -7q-2 -1 -4.5 -1.5t-3.5 -0.5q48 -156 86 -260q12 -32 28 -69l15 -34q10 -21 15 -46q6 -24 0.5 -53t-20.5 -51q-25 -37 -76 -61q-45 -19 -90 -19q-38 1 -83 9
q-92 19 -154 62q-39 26 -62 64q-27 45 -27 87q1 47 41 84q9 9 20 17.5t22.5 17t18 14t15 5t13.5 -6.5q11 -14 -1 -27q-7 -7 -26.5 -24.5t-27.5 -27.5q-23 -26 -21 -52q1 -26 23 -55q18 -25 47 -42q56 -34 131 -45q38 -5 69 -4q28 1 59 15q31 15 41 34q12 19 7 43
q-4 15 -10 26l-17 36q-11 24 -30 73q-44 113 -90 275q-17 -3 -26 -4q-36 -5 -66 -5q-17 0 -34 3q-11 1 -19 3q-16 4 -23 8q-16 8 -21 25t3.5 32.5t25 20.5t32.5 -4v0q3 -1 4 -2q5 -1 11 -2q13 -3 25 -4q24 -2 54 0q20 1 57 6q31 4 63 6q57 4 123 0q35 -2 62 -5q45 -7 65 -13
zM156 678z" />
    <glyph glyph-name="K" unicode="K" horiz-adv-x="653" 
d="M579 36q8 1 15 -4.5t8 -14.5q0 -8 -4.5 -14.5t-12.5 -7.5q-67 -16 -161 17q-74 26 -140 77q-32 26 -60 56q-24 28 -48 46q-21 17 -44 29q-11 -6 -26 -13q0 -2 -0.5 -9t-0.5 -11q-7 -88 -28 -149q-5 -13 -17 -19t-25 -1q-13 4 -19 16t-2 25l1 3q15 50 19 122q-23 3 -29 25
q-4 13 2.5 25t20.5 17h1q1 0 3 1t3 1v6v6q-10 15 -7 32q1 3 5 10q-1 3 -1 10.5t-1 11.5q-5 73 -4 146q2 81 10 146q2 17 15.5 27.5t30.5 8.5t27.5 -15.5t8.5 -30.5v-1l-1 -2q-9 -60 -12 -136q-4 -69 -1 -138q0 -2 0.5 -5.5t0.5 -5.5q19 -5 38 -14q54 37 115 94q53 51 97 105
q23 28 29 50q2 10 1 17q0 2 -2 7v3q-12 9 -14 24.5t7.5 28t25 14.5t27.5 -7q27 -22 33.5 -54.5t-3.5 -54.5q-11 -36 -45 -77q-48 -57 -105 -110q-45 -41 -99 -79q17 -13 18 -14q30 -25 57 -60q21 -27 46 -50q52 -47 115 -78q79 -37 130 -32h2z" />
    <glyph glyph-name="L" unicode="L" horiz-adv-x="558" 
d="M513 95q11 -2 17.5 -11t4.5 -20q-3 -15 -18 -20l-4 -2q-17 -5 -35.5 -8.5t-42.5 -6.5t-35 -5q-27 -4 -57 -6q-19 -3 -64 -3q-103 2 -237 21h-2q-12 2 -21 10t-11 19v1q-8 29 -6 78q1 30 7 68q7 45 24 131l12 64q6 27 7 59q2 50 -6 121l-1 3q-1 12 6.5 21.5t19.5 10.5
q10 1 18.5 -4.5t12.5 -14.5q22 -61 23 -138q0 -38 -5 -71l-11 -65q-14 -85 -19 -127q-5 -47 -6 -62v-25q136 -12 197 -15q34 -1 53 0q29 2 59 2q23 -1 40.5 -0.5t39.5 -0.5t40 -4z" />
    <glyph glyph-name="M" unicode="M" horiz-adv-x="722" 
d="M633.5 619.5q17.5 -3.5 27.5 -18t6 -31.5v-2q-36 -155 -61 -295q-14 -86 -21 -148q-9 -99 0 -139l1 -3q0 -4 4 -9q3 -5 7 -8q8 -7 22 -7h1q12 1 20.5 -7.5t8.5 -20.5t-7.5 -20t-19.5 -9q-34 -3 -60 16q-13 9 -22 23t-13 29v-1.5v-0.5l-1 2v0q-8 30 -10 82q0 34 3 79
q4 64 15 153q10 73 23 150q-16 -12 -30 -22q-75 -47 -173 -58q-103 -11 -185 24q-12 5 -33 17q3 -32 5 -67q7 -120 -3 -256q-1 -9 -6 -16t-13 -11t-16.5 -3.5t-16 5.5t-11.5 12.5t-3 16.5v1q5 131 -5 246q-6 66 -18 119q-15 69 -37 106v1q-9 14 -4.5 31t19 25.5t31.5 4.5
t26 -19v-2q13 -24 24 -56q14 -27 34 -46q26 -27 58 -42q63 -31 149 -26q84 4 149 41q48 27 75 66q1 7 5 27.5t6 32.5q3 17 17.5 27t32 6.5zM527 -32zM526 -30z" />
    <glyph glyph-name="N" unicode="N" horiz-adv-x="645" 
d="M584 467q12 -99 7 -173q-3 -50 -16 -91q-15 -52 -53 -87q-37 -36 -89.5 -49t-101.5 1q-52 13 -90 50q-25 24 -57 72q-40 62 -83 140v-11.5v-9.5q0 -123 -9 -229q-1 -18 -15 -29.5t-31 -9.5q-17 1 -28 12.5t-12 27.5q-7 106 -5 228q3 107 3 114l3 57q1 22 10 39
q5 19 23 28q16 8 34 2.5t27 -22.5v-1l1 -1q82 -181 151 -290q26 -40 45 -59q22 -22 53 -31q30 -9 63 -2t55 29q38 35 43 127q3 60 -9 158q-7 49 -29 160q-8 36 -19 79l-10 40q0 1 -1.5 5t-2 6t-1 5.5t0 6t1 6.5t2.5 7.5t5 7.5h1q17 23 44 14l8 -4t6.5 -5t4 -4.5t3.5 -5.5
t2.5 -5.5t1.5 -6t2 -5.5l12 -41q12 -44 21 -82q17 -71 29 -168z" />
    <glyph glyph-name="O" unicode="O" horiz-adv-x="686" 
d="M548 310q5 38 -14 78q-15 30 -53 74q-73 80 -150 86q-79 9 -153 -61q-36 -32 -57 -72q-23 -38 -26 -82l-1 -6q0 -9 -6.5 -15.5t-16.5 -7.5q3 -28 8 -50q12 -49 38 -82q26 -34 68 -51t90 -15q91 3 174 63q40 28 67 65t32 76zM611 424q28 -64 18 -126q-8 -56 -51 -112
q-37 -47 -86 -79q-103 -69 -216 -68q-65 0 -116 20q-58 23 -96 73q-59 78 -63 218q-1 9 3.5 17.5t12.5 13t17 4.5q2 1 8 -1q10 82 79 159q42 48 95 72q62 28 124 22q111 -12 206 -116q44 -53 65 -97z" />
    <glyph glyph-name="P" unicode="P" horiz-adv-x="678" 
d="M620 508q13 -55 -16 -105q-22 -40 -66 -74q-75 -53 -170 -71q-32 -5 -68 -6q0 -3 -0.5 -9t-0.5 -9q-2 -63 1 -114q4 -69 16 -107v-1q4 -14 -3 -27t-21 -18q-14 -4 -26.5 3t-17.5 20q-15 47 -23 124q-5 55 -5 121v5.5v6v5.5v6q-24 4 -38 9q-15 4 -21.5 17t-2.5 27t17 21
t28 3l3 -1q3 -1 9 -2t7 -2q3 78 9 143q2 18 16 29.5t31.5 10t29 -15.5t9.5 -32v-1v-1q-8 -63 -13 -140q109 3 192 62q21 15 35 32.5t20 37.5t1 39q-11 54 -89 108q-123 87 -299 89q-97 -1 -152 -22q-30 -12 -36 -32q-7 -17 3 -60l1 -5q3 -9 -2.5 -17.5t-14.5 -10.5
q-13 -3 -23 7q-42 46 -34 101q6 32 31 55q15 15 47 29q76 30 181 30q198 -5 339 -107q42 -31 69 -62q35 -41 47 -89z" />
    <glyph glyph-name="Q" unicode="Q" horiz-adv-x="784" 
d="M431 146q11 6 21 13q-40 51 -76 98q-13 16 -10 36.5t19.5 32.5t36.5 9.5t33 -19.5q1 -1 2 -3v-1q29 -46 60 -93q25 34 33 70q22 89 -40 187q-59 94 -145 138q-45 22 -86 18q-22 -3 -42 -12q-21 -10 -42 -26q-41 -29 -68.5 -73t-36.5 -94v-3q-1 -5 -5 -10q6 -2 11 -5
q19 -13 12 -36l-2 -5q-16 -52 -18 -97q-2 -29 -1 -50q0 -5 1 -14t2 -11q0 -2 1 -8.5t3 -9.5q10 -34 51.5 -55.5t91.5 -23.5q94 -7 194 47zM721 -46q9 -7 10 -18.5t-7 -20.5q-7 -8 -17.5 -9t-19.5 5q-37 27 -89 80q-40 41 -78 86q-3 3 -7.5 9t-6.5 9q-19 -14 -34 -22
q-120 -68 -239 -63q-71 3 -128 33q-71 36 -95 107q-3 6 -9 37l-1 32q0 28 5 62q13 72 46 120q3 4 8 8q-11 6 -12 18q0 42 12.5 83t35.5 76t55 63q25 21 52 37q30 17 65 23q64 12 133 -20q102 -49 179 -171q34 -55 48 -119t1 -127q-14 -66 -63 -124q2 -3 7.5 -11t8.5 -13
q32 -46 67 -89q41 -53 72 -80z" />
    <glyph glyph-name="R" unicode="R" horiz-adv-x="631" 
d="M111 380q-22 -78 -31 -163v-3.5v-3.5q60 24 98 67q36 41 77 138q22 53 28 75q10 39 9 71q-2 34 -16 50q-6 8 -17 13t-17 3q-18 0 -39 -26q-7 -8 -10 -13l-1.5 -3l-3.5 -7l-3 -6l-18 -36q-32 -71 -56 -156zM551 66q11 1 19.5 -6.5t9.5 -18.5q0 -6 -2 -12t-6.5 -10
t-10.5 -6q-76 -23 -146 -2q-54 16 -123 72q-3 2 -12 9.5t-13 9.5q-5 5 -18 12q-22 9 -50 12q-51 3 -89 -7q-22 -11 -25 -12l-10 -2q1 -41 2 -54v-2q1 -11 -6.5 -20t-19.5 -10q-11 -1 -20 5.5t-11 17.5q-29 173 10 358q17 81 54 172q2 4 11.5 25.5t15 31.5t18 29t25.5 29.5
t33 21t44 15.5q37 4 68 -11q30 -14 51 -38q36 -41 39 -111q1 -46 -15 -100q-7 -27 -34 -86q-46 -106 -94 -160q-2 -3 -6 -6.5t-5 -4.5q29 -6 49 -15q22 -11 36 -22q7 -5 15.5 -12.5t10.5 -9.5q60 -52 94 -68q42 -20 110 -14h1z" />
    <glyph glyph-name="S" unicode="S" horiz-adv-x="567" 
d="M513 580q6 -36 -17 -66q-18 -23 -47 -36q-9 -4 -18 -0.5t-13 12.5q-6 13 3 24l3 5q14 17 17 28q4 12 1 21q-3 11 -13 21q-9 10 -26 19q-64 33 -156 20q-41 -7 -77 -22q-15 -6 -20 -14q-4 -6 -4 -17q0 -23 25 -64q18 -32 49 -68q82 -91 118 -146q33 -52 46 -93
q10 -35 6 -63q-3 -20 -13 -36q-8 -13 -20 -26q-40 -38 -107 -44q-51 -5 -102 8q-60 15 -96 39q-28 21 -41 40q-11 18 -11 36t12 35q6 8 15.5 9.5t17.5 -3.5q14 -10 9 -27l-1 -4q-2 -7 1 -11l3 -3q8 -10 28 -19q30 -16 76 -22q39 -8 80.5 -2t58.5 26q5 5 7 9q1 2 2 7
q2 10 -4 27q-9 30 -36 71q-34 50 -113 136q-36 42 -59 80q-33 58 -35 107q-1 40 22 69q19 24 54 38q46 19 99 26q117 12 202 -32q64 -35 74 -95z" />
    <glyph glyph-name="T" unicode="T" horiz-adv-x="803" 
d="M800 660q14 2 25.5 -7.5t12.5 -23.5q1 -10 -3 -18.5t-11.5 -13.5t-16.5 -6q-47 -5 -192 -15l-190 -11l-62 -3q-7 -47 -9 -103q-2 -55 0 -128q3 -121 18 -258v-1q1 -8 -2.5 -16t-10.5 -13.5t-16 -6.5q-13 -1 -23.5 7t-12.5 22q-18 138 -25 263q-5 75 -4 133q1 49 6 97
l-238 -12q-18 -1 -31 10.5t-14 29.5t11 31t30 14h1l379 12l189 7q141 6 187 10h2z" />
    <glyph glyph-name="U" unicode="U" horiz-adv-x="572" 
d="M496 158q13 -4 19 -16t1.5 -25t-16.5 -18.5t-25 -1.5v0q-59 22 -90 81q-17 -25 -31 -43q-31 -37 -63 -63q-46 -36 -89 -45q-27 -6 -57 1t-51 25q-39 29 -59 83q-15 40 -21.5 81t-9.5 92q-5 151 24 336q2 17 16.5 27.5t32 8t28 -17t7.5 -31.5v-1v-1q-30 -176 -27 -318
q4 -93 24 -148q11 -33 32.5 -50t45.5 -12q49 9 109 81q40 48 60 86q-7 46 -4 96q6 72 19 140q8 39 20 70q6 18 15 35q6 10 11 19q7 8 9 9q3 4 5 6q7 5 11 7q12 6 24 2t18 -15q3 -5 4 -10v-1q3 -18 3.5 -38t0.5 -34t-2.5 -36t-4 -32t-4.5 -35q-15 -87 -39 -164
q-10 -28 -16 -41q1 -1 1.5 -4t0.5 -4q11 -31 26 -50q17 -22 37 -29z" />
    <glyph glyph-name="V" unicode="V" horiz-adv-x="584" 
d="M578 759q2 0 4 2zM610 834q16 -12 18 -31t-10 -35q-17 -21 -45 -16q-10 -14 -20 -34q-20 -49 -33 -95q-22 -77 -46 -199q-23 -121 -52 -206q-24 -63 -46 -107.5t-57 -86.5l-1 -1q-8 -9 -20 -10.5t-22 6.5q-54 36 -107 117q-38 58 -70 134q-30 69 -53 140q-25 78 -40 144
q-5 18 4.5 33.5t27.5 19.5t33 -5.5t20 -27.5v-1v-1q12 -64 34 -138q19 -68 44 -135q28 -71 60 -126q29 -48 57 -77q14 26 26 55q17 38 36 93q25 72 53 195q30 132 50 204q25 86 31 103q13 36 24 55q13 22 27 33q19 12 37 13q16 1 40 -13z" />
    <glyph glyph-name="W" unicode="W" horiz-adv-x="790" 
d="M732 714q6 -12 2 -25.5t-16 -19.5q-8 -4 -20 -3q0 -1 -0.5 -3t-1.5 -3q-7 -25 -14 -64q-5 -26 -12.5 -75t-9.5 -61q-26 -142 -95 -268q-23 -39 -39 -61q-12 -18 -22 -30q-18 -22 -30 -32q-20 -13 -39 -14q-24 0 -41 16q-14 13 -30 40q-12 24 -29 67q-25 66 -54 156
l-57 -261q-4 -17 -18.5 -26.5t-31.5 -5.5q-12 3 -21 12t-11 21l-1 4q-17 117 -52 239q-36 123 -81 232h-1q-5 14 0.5 27.5t18.5 18.5q13 6 26 0.5t19 -18.5q51 -111 92 -238q11 -35 28 -96l60 184q-1 2 -2.5 7t-2.5 7q-5 18 3.5 34.5t26.5 22t34.5 -3t21.5 -26.5l1 -1v-1
q44 -157 79 -260q13 -38 23 -58q1 -2 3 -5l7 7q8 10 19 25q14 19 36 54q67 114 94 244q5 21 12 66.5t12 68.5q8 43 16 70q9 28 15 39q5 8 10 14q14 14 33 13q17 -1 31 -16q4 -6 8 -13z" />
    <glyph glyph-name="X" unicode="X" horiz-adv-x="555" 
d="M482 662q10 0 16.5 -7t6.5 -17q-1 -10 -9 -34q-3 -9 -11 -25t-25 -46q-19 -32 -56 -87q-17 -25 -36 -50.5t-46.5 -61t-37.5 -47.5l60 -80q64 -81 91 -107l1 -1q7 -7 7 -16.5t-6 -16.5q-15 -15 -31 -3q-47 34 -111 102q-24 25 -55 61q-35 -50 -75 -106q-63 -89 -120 -162
q-6 -8 -16 -9.5t-17 4.5q-16 12 -7 29q43 87 102 178q36 56 85 122q-102 124 -170 228q-9 14 -5.5 29.5t17.5 24.5q13 8 27.5 5.5t24.5 -13.5v-1q51 -65 155 -210l111 139q19 23 60 80q19 27 27 41l12 20q2 3 5 9l2 4q0 10 7 17t17 7z" />
    <glyph glyph-name="Y" unicode="Y" horiz-adv-x="440" 
d="M577 657q8 -6 9.5 -15.5t-2.5 -17.5q-57 -94 -112 -177q-94 -143 -117 -174q-81 -115 -126 -170q-41 -49 -87 -76q-63 -36 -120 -28q-10 2 -15.5 10t-4.5 18q2 15 18 19l8 2q36 9 74 39q32 24 68 66q37 44 95 122q-12 2 -19 11l-202 239q-13 15 -11.5 35.5t17.5 33.5
t36 11.5t33 -17.5q2 -2 3 -4l177 -258q0 -1 0.5 -2t0.5 -2l118 162l125 168q6 8 16 9.5t18 -4.5z" />
    <glyph glyph-name="Z" unicode="Z" horiz-adv-x="730" 
d="M849 161q6 -10 -3 -18q-86 -77 -206 -99q-114 -19 -232 15q-26 8 -55 18q-44 17 -51 20q-47 17 -92 14q-45 -2 -89 -24q-26 -15 -40 -27q-3 -2 -11 -9.5t-15 -11.5t-17 -4h-1q0 -1 -1 -1q-8 -5 -17.5 -2t-14.5 11q-2 5 -2 11q-2 5 -2 7v2q0 8 2 14.5t6.5 12.5t7 9t9.5 9
t9 8q19 17 51 36q29 17 66 27q22 20 45 41q94 90 158 174q17 23 27.5 38.5t23 37.5t17.5 38t4 32t-12 26q-23 29 -85 48q-51 16 -108 21h-2q-16 2 -26.5 14.5t-9 28.5t14 26.5t28.5 9.5h1q66 -9 126 -29q38 -14 66 -30.5t51 -45.5q27 -34 26 -77q-2 -31 -21 -71
q-24 -46 -71 -106q-67 -81 -163 -167q44 -4 87 -22q11 -4 52 -21q25 -11 49 -18q112 -36 203 -27q104 7 198 65q11 8 19 -4z" />
    <glyph glyph-name="bracketleft" unicode="[" horiz-adv-x="404" 
d="M426 -101q18 0 30.5 -13t12.5 -31t-13 -30.5t-31 -12.5h-2l-382 20h-3q-12 1 -20.5 9t-10.5 20q-6 38 -6 117q1 39 4 111q5 80 16 220l9 110l5 54q2 23 1 51q-2 81 -19 213l-1 2q-2 18 9 32t28 16q5 1 10 1l257 -22q13 -1 21.5 -11t7.5 -23q-1 -8 -5.5 -14.5t-11 -10
t-14.5 -3.5l-207 -5q10 -105 10 -175q0 -31 -4 -59l-6 -55l-12 -108q-13 -119 -19 -218q-5 -70 -6 -108q-1 -45 0 -73z" />
    <glyph glyph-name="backslash" unicode="\" horiz-adv-x="464" 
d="M20 659q55 -82 102 -148q65 -93 108 -140q82 -94 117 -140q34 -45 54 -78q34 -60 39 -102q3 -18 -8 -32t-29 -16q-11 -1 -21.5 3t-17.5 13t-9 21v1v3q-2 24 -27 65q-17 31 -48 71q-33 45 -113 138q-44 50 -111 147q-47 68 -101 151q-9 13 -6 29t16.5 25t29.5 5.5
t25 -16.5z" />
    <glyph glyph-name="bracketright" unicode="]" horiz-adv-x="377" 
d="M326 -8q1 -78 -6 -117q-1 -8 -5.5 -14.5t-11 -10t-14.5 -4.5h-2l-383 -19q-18 -1 -31.5 11t-14.5 30t11.5 31t30.5 14h1l352 4q2 28 0 73q-1 39 -5 109q-7 98 -20 217l-12 109l-6 54q-3 28 -3 59q-1 70 10 175l-208 5q-13 0 -22 9.5t-8 22.5q0 12 8 20.5t20 9.5l258 22
q17 1 31 -10.5t15 -29.5q1 -4 0 -9v-2q-18 -132 -20 -213q0 -28 2 -51l5 -54l9 -110q10 -140 15 -220q4 -72 4 -111z" />
    <glyph glyph-name="underscore" unicode="_" horiz-adv-x="582" 
d="M30 -2q18 3 40 3.5t39.5 0t38.5 0.5h119q146 -1 238 -9q12 -1 19.5 -8.5t6.5 -17.5q-2 -9 -10.5 -15t-20.5 -6h-1q-77 4 -232 1l-117 -3q-9 0 -58.5 -2.5t-58.5 0.5q-14 1 -23 10t-8 21q1 9 9 16t19 9z" />
    <glyph glyph-name="grave" unicode="`" horiz-adv-x="232" 
d="M148 593q-46 28 -81 61q-22 21 -35 39q-9 13 -16 25t-11 26q-4 11 3 26.5t20 27t24.5 11.5t15.5 -11v-3q8 -41 43 -91q27 -38 65 -74h1q9 -9 -6 -27q-13 -17 -23 -10z" />
    <glyph glyph-name="a" unicode="a" horiz-adv-x="422" 
d="M115 99q37 -9 75 28q23 23 38.5 55.5t20 67t-3.5 68.5v1q-2 6 -1 12l-1 1q-2 1 -2 2l-2 2q-15 21 -36 34t-41 12q-34 -1 -82 -47q-38 -41 -47 -90q-10 -54 16 -97q24 -40 66 -49zM470 93q7 -13 -5 -22q-27 -22 -66 -33q-40 -9 -75 -5q-20 3 -39 16.5t-30 31.5
q-1 -1 -3.5 -4.5t-4.5 -4.5q-28 -30 -63 -45q-40 -18 -84 -11q-40 7 -72.5 34t-47.5 64q-28 65 -14 143q14 77 64 126q26 26 58 42q36 20 75 18q40 -1 73 -26q28 -22 47 -57q1 0 2 -5q13 -5 18 -17q26 -64 9 -141q-1 -2 -2.5 -7t-1.5 -6q3 -8 3 -11q1 -4 0 -9q-3 -25 5 -45
t22 -26q23 -8 53 -7q28 2 51 14l3 1q6 4 13.5 1.5t11.5 -9.5z" />
    <glyph glyph-name="b" unicode="b" horiz-adv-x="488" 
d="M230 567q-10 54 -32 121q-18 -97 -28 -183q-12 -124 -5 -211q20 25 23 29q42 60 47 115q8 56 -5 129zM449 348q24 -62 13 -163q-4 -35 -27 -83q-25 -46 -63 -70q-43 -27 -93 -23q-25 1 -48 8q-22 9 -44 26q-49 40 -73 113q-47 -39 -89 -64q-29 -17 -45 -24.5t-44.5 -16
t-57.5 -9.5q-28 0 -50 15q-23 17 -31 41q-16 44 6 82q7 12 18 5q4 -2 6 -6l1 -2q4 -9 12 -28t12 -26q6 -10 11.5 -13.5t16.5 -3.5q38 1 112 43q57 33 105 74q-21 113 -7 289q14 154 49 309q4 17 19 26.5t32 5.5q18 -4 27 -19q5 -6 8 -16l14 -33q13 -34 24 -67
q23 -73 32 -141q11 -82 0 -148q-10 -69 -57 -140q-25 -35 -62 -75v-1v-1q18 -80 57 -113q10 -8 22 -13q13 -5 28 -5q28 -3 52 12q23 13 40 42q18 36 23 60q11 49 5 142v1q0 10 6.5 17t16.5 8q17 1 23 -15z" />
    <glyph glyph-name="c" unicode="c" horiz-adv-x="423" 
d="M162 284q7 23 6.5 49t-8.5 30q-5 3 -10 5q-9 2 -16 1q-15 -1 -34 -16q-37 -32 -57.5 -85.5t-9.5 -96.5q6 -18 21 -35q13 -14 39 -25q46 -18 100 -4q90 24 181 134l1 1q6 7 15.5 8t17.5 -5q6 -6 7.5 -14.5t-3.5 -16.5q-88 -134 -199 -172q-73 -25 -145 -1q-42 16 -67 39
q-33 31 -43 70q-19 66 9 147q29 76 82 119q39 30 78 33q23 2 46 -5q26 -7 43 -26q30 -32 29 -85q-1 -36 -13 -73q-5 -15 -18.5 -22t-28 -2t-21.5 18.5t-2 28.5v1z" />
    <glyph glyph-name="d" unicode="d" horiz-adv-x="576" 
d="M286 162q13 18 20 42q-4 27 -5 44q-3 25 -5 82q-29 47 -75 57q-24 6 -51 2t-48 -15q-41 -22 -60.5 -75.5t-10.5 -108.5q7 -54 48 -78q44 -25 99 -10q56 16 88 60zM600 163q17 -10 8 -29q-3 -7 -6.5 -13.5t-8.5 -12t-7.5 -8.5t-8.5 -9.5t-8 -8.5q-23 -22 -47 -38
q-29 -18 -58 -25q-39 -9 -72 8q-48 27 -70 101q-41 -59 -107 -81q-77 -26 -147 7q-38 19 -60 52q-20 29 -28 72q-12 71 13 144q33 82 97 113q70 34 148 11q29 -10 56 -34v59q4 126 15 222q2 16 15 26.5t29 8.5t26.5 -15t8.5 -29q-29 -263 -21 -431q3 -60 13 -103
q11 -58 38 -73q26 -17 75 10.5t71 62.5l4 6q5 8 14.5 10t17.5 -3z" />
    <glyph glyph-name="e" unicode="e" horiz-adv-x="294" 
d="M87 343q-31 -42 -41 -97q6 2 12 5q17 8 38 34t28 47q10 29 1 42q-2 3 -5 4q-17 -11 -33 -35zM123 74l21 5q62 23 116 55l1 1q8 5 18 2.5t15 -11.5q5 -8 3.5 -17t-9.5 -15q-18 -13 -45 -31t-48 -30.5t-28 -16.5q-18 -10 -39 -12q-22 -3 -46.5 4.5t-41.5 22.5
q-29 24 -51 64q-37 71 -24 154q10 76 56 141q1 1 3 4q10 13 16 20t18 17t25 17q16 8 34 8q15 -1 34 -11q24 -13 35 -42q16 -42 3 -90q-10 -37 -31 -71q-27 -41 -55 -62q-21 -15 -46 -20h-5t-5 -1q5 -16 11 -29q14 -28 29 -42t36 -14z" />
    <glyph glyph-name="f" unicode="f" horiz-adv-x="450" 
d="M261 -448q14 81 0 174q-8 66 -50 169q-5 10 -25 49q-8 -132 -5 -230q2 -88 13 -180q6 -50 17 -83q3 -9 8 -20q11 19 19 39q13 31 23 82zM227 451q-12 -110 -25 -272q98 79 154 165q53 86 40 154q-13 86 -36 179q-27 106 -55 171q-2 2 -6 12l-2 -5q-6 -20 -12 -43
q-31 -120 -58 -361zM117 27q-61 -29 -99.5 -30.5t-49 11.5t-1.5 14q3 1 17.5 9.5t33 20.5t36.5 24t31 21l12 8q8 5 27 18q15 194 31 336q29 247 60 371q7 26 14 47l8 23l4 11q4 10 8 16q9 14 19 21q9 6 23 7t21 -4q7 -3 13 -7.5t8 -6.5t6 -7.5t5 -6.5q11 -17 25 -47
q27 -67 55 -183q23 -97 36 -186q16 -94 -46 -198q-74 -120 -212 -224q2 -5 4.5 -11t5.5 -13t5 -11q5 -1 8 -2q10 -1 29 -1q28 1 61 13q23 7 61 28q26 16 57 40v1q8 6 17.5 4.5t15.5 -8.5q13 -16 -1 -31q-30 -31 -57 -52q-39 -30 -66 -44q-40 -20 -78 -28q-5 -1 -15 -2
l18 -50q38 -117 49 -183q18 -107 8 -192q-8 -58 -20 -96q-19 -58 -44 -95l-4 -7l-10 -4q-13 -5 -25 -5t-18 2.5t-16 7.5q-15 9 -29 27q-14 19 -26 52q-13 39 -22 98q-9 67 -9 191q3 130 16 313z" />
    <glyph glyph-name="g" unicode="g" horiz-adv-x="562" 
d="M355 -189q9 54 9 146q-106 -55 -174 -125q-39 -41 -69 -89q-26 -45 -36 -103q-10 -59 1 -107q4 -17 10.5 -30.5t15.5 -21.5t19 -9q29 -5 85 37q41 32 70 82q42 73 69 220zM357 225q0 1 1 4l1 3q0 1 -0.5 7.5t-0.5 10.5q-16 66 -51 99q-19 18 -42 23t-52 -3
q-56 -15 -98.5 -61t-51.5 -103q-10 -60 24 -87q38 -30 104 -22q30 3 55 14q12 5 24 13q3 2 11 8l12 11q27 26 43 47q10 14 15 25q5 8 6 11zM622 99.5q5 -14.5 -2 -28t-21 -18.5q-98 -33 -165 -62q-2 -122 -14 -192q-29 -159 -76 -241q-36 -63 -87 -102q-27 -21 -58 -35
q-41 -20 -77 -16q-14 2 -28.5 8.5t-25.5 16t-19 20.5q-19 26 -29 68q-14 61 -2 134q12 69 44 125q33 56 79 103q87 89 224 156v5.5v5.5q0 8 -0.5 17.5t-0.5 21t-1 17.5q-12 -14 -15 -17l-13 -13q-11 -10 -17 -15q-18 -13 -37 -22q-38 -19 -80 -24q-99 -11 -167 38
q-41 30 -54 81q-9 33 -1 88q15 84 74 147t141 82q47 10 88 1q46 -10 79 -47q29 -32 46 -75q24 -8 26 -34v-2l2 -223q62 27 140 54q14 5 28 -1.5t19 -21z" />
    <glyph glyph-name="h" unicode="h" horiz-adv-x="455" 
d="M470 189q6 -8 5 -18.5t-9 -17.5q-24 -21 -46 -38q-2 -1 -9 -6.5t-11 -8t-11 -6t-14 -6.5t-16 -5q-24 -6 -47 4q-18 8 -34 26q-11 12 -21 29q-6 11 -14 31q-14 40 -32 112q-6 -9 -15.5 -26t-17.5 -31t-15 -26l-46 -85q-23 -41 -24 -43q-10 -17 -17 -26q-11 -12 -23 -16
q-4 -3 -15 -2t-18 6q-13 9 -19 23l-1 5v5q1 31 2 306l1 307q0 16 11.5 28t28 12t28 -12t11.5 -28v-1l-7 -306q0 -25 -1 -68.5t-1.5 -79.5t-1.5 -68l36 72q42 87 77 167q-2 9 0 18t6.5 16t12 12.5t16.5 7.5q18 4 33.5 -6.5t19.5 -28.5q1 -2 1 -3v-1q8 -58 17 -110
q12 -70 22 -107q5 -15 8 -21q5 -11 10 -18q10 -12 18 -12q10 1 39 18q21 13 45 31q9 7 20 5.5t18 -10.5z" />
    <glyph glyph-name="i" unicode="i" horiz-adv-x="269" 
d="M210 541q-18 -12 -41.5 -5t-38.5 29t-13 46t20 36t41 5.5t38 -28.5t13.5 -46.5t-19.5 -36.5zM268 121q9 -12 7 -26.5t-14 -23.5q-34 -27 -71 -36q-24 -6 -46 -3q-27 4 -45 15l-3 2q-43 23 -57 72q-11 33 -10 81q1 35 8 75q7 38 18 72q5 18 21.5 26.5t34.5 3t26.5 -22
t3.5 -34.5q-1 0 -1 -1v-1q-10 -29 -18 -60q-7 -34 -9 -61q-2 -34 3 -55q6 -21 20 -28l9 -6l-3 2q8 -4 12 -4q9 -2 20 0q21 4 44 20q12 9 26.5 7t23.5 -14zM102 45q-1 1 -3 2z" />
    <glyph glyph-name="j" unicode="j" horiz-adv-x="414" 
d="M387 175q6 -9 5 -20t-9 -18q-54 -51 -100 -81q-34 -22 -61 -33q-22 -8 -37 -11h-3.5t-3.5 -1q2 -58 2 -74q0 -104 -2 -163.5t-12.5 -149t-29.5 -164.5q-23 -73 -51 -118q-41 -68 -105 -93q-70 -29 -144 2q-60 25 -105 85q-37 51 -56 115q-18 74 -17 124q0 119 57 234
q6 10 16 5q9 -5 6 -14q-37 -112 -27 -223q2 -42 24 -106q25 -60 52 -92q36 -41 78 -56q43 -15 84 2q64 26 106 159q48 173 48 452q-1 206 -21 465q-1 16 9 27.5t25.5 13t27.5 -8.5t13 -26q13 -159 19 -306q8 0 20 3q20 5 50 18q45 22 100 60v1q10 7 22.5 4.5t19.5 -12.5z
M133 500q-18 -23 -57 -3t-52.5 58t4.5 58.5t50 2.5q19 -10 33 -39t18 -53z" />
    <glyph glyph-name="k" unicode="k" horiz-adv-x="564" 
d="M595 118q11 -16 -2 -30q-42 -45 -98 -72q-69 -31 -134 -12q-34 10 -62 34q-29 24 -42 33q-20 14 -39 22q-13 5 -18 6q-20 -18 -41 -31q-17 -10 -36 -5.5t-29 21t-5.5 35.5t21.5 29q1 1 3 2h1q49 26 88 94q18 32 27 61q5 15 4 35q-5 -3 -9 -6q-21 -14 -47 -46
q-43 -52 -80 -123l-1 -1l-6 -7q-7 -43 -11 -62q-3 -16 -16.5 -25t-29.5 -6q-15 3 -24 15t-7 27l13 169l11 168l9 168q5 105 13 167q2 11 8.5 19.5t16 12.5t20.5 3q13 -2 22 -11t12 -22q13 -71 10 -173q-4 -105 -11 -172q-4 -37 -9 -83q30 34 58 54q29 18 56 21q21 2 41.5 -7
t31.5 -27q16 -24 16 -63q0 -22 -7 -48q-11 -40 -34 -82q-2 -4 -14 -23q26 -15 49 -34q10 -9 41 -40q16 -15 33 -23q35 -16 83 -2q42 11 89 45l2 1q8 5 18 3.5t15 -9.5z" />
    <glyph glyph-name="l" unicode="l" horiz-adv-x="292" 
d="M105 312q16 26 22 40q56 112 54 241q0 89 -24 174q-10 -28 -13 -39q-16 -61 -25 -121q-17 -116 -16 -251q0 -14 2 -44zM206 85q8 -3 12.5 -7t4.5 -8.5t-1 -8t-3 -6.5l-1 -2q-20 -4 -37 -2t-30.5 9t-23.5 14t-15 13l-5 5q-18 25 -32 66q-19 -24 -59.5 -64.5t-59.5 -47.5
q-13 -5 -16.5 -0.5t-2.5 11.5l2 8l70 99v1l46 75q-9 54 -11 115q-2 153 9 260q6 65 20 131q6 30 17 65q16 46 29 69q8 14 24.5 18.5t30.5 -4.5q8 -4 14 -13q5 -5 8 -11l2 -6q14 -59 21 -92t14.5 -84t7.5 -94q2 -148 -53 -270q-27 -59 -68 -114q1 -3 2.5 -11t2.5 -12t3 -11.5
t3.5 -12l3.5 -10.5t4.5 -10.5t5.5 -10t6 -9.5q13 -17 23 -23.5t32 -14.5z" />
    <glyph glyph-name="m" unicode="m" horiz-adv-x="799" 
d="M803 143q9 -15 -3 -27q-46 -51 -108 -72q-35 -11 -69 -11q0 1 -7 1t-13 2q-14 2 -26 10q-19 12 -33 35q-18 35 -24 79q-1 -2 -3.5 -6.5t-3.5 -6.5q-18 -25 -34 -42.5t-41.5 -34.5t-55.5 -24q-14 -3 -31.5 0.5t-29.5 13.5q-20 15 -32 44q-13 31 -18 81v8t-1 7
q-10 -19 -12 -24q-20 -33 -32.5 -51t-37 -43t-51.5 -43q-22 -10 -28 -11q-17 -3 -20 -3q-14 -1 -28 8q-16 10 -28 30q-6 10 -11 26q-11 35 -17 91q-6 72 -3 171q1 20 15 33t33.5 12.5t32.5 -14.5t13 -34q0 -1 -1 -2v-1q-7 -84 -5 -160q1 -46 8 -73q0 -4 2 -8q2 0 2 1
q48 24 101 104q40 61 73 141v1q2 5 8 9q14 16 34 14q17 -2 28 -15t9 -30v-2v-1q-11 -76 -9 -136q2 -38 9 -60q4 -11 9 -15q3 -2 6 -2q49 6 96 67q36 46 51 95q1 30 6 60q2 17 16 27.5t31 7.5q16 -2 26.5 -15t9.5 -30l-1 -1q-5 -59 -4 -109q1 -69 13 -96q2 -3 5 -8h1
q-1 0 4 -1h4q22 -3 46 2q44 8 94 38l3 2q8 5 17.5 2.5t14.5 -11.5z" />
    <glyph glyph-name="n" unicode="n" horiz-adv-x="589" 
d="M635 222q10 -11 1 -23q-47 -66 -105 -116q-33 -28 -68 -46q-20 -10 -43 -16q-31 -9 -57 -1q-46 14 -79 68q-17 27 -34 77q-7 24 -14 52l-32 -41q-66 -81 -97 -124q-8 -12 -21.5 -15t-25.5 3l-4 3q-17 9 -30 32q-6 12 -10 25q-6 20 -9 44q-4 35 -6 82q-1 73 4 158
q1 18 14.5 30t32 11t30.5 -14.5t10 -32.5v-1q-5 -80 -4 -149q1 -42 4 -72q30 32 55 65q29 37 45 61q23 34 34 61q6 16 21.5 23t30.5 0q20 -7 25 -28l2 -9q3 -13 7 -33.5t7 -35.5t7.5 -34t9.5 -34q10 -33 24 -60t28 -33q2 -3 16.5 -1t28.5 7q25 9 60 30q55 35 115 88v1
q6 5 14 4.5t13 -6.5z" />
    <glyph glyph-name="o" unicode="o" horiz-adv-x="458" 
d="M339 239q1 63 -40 105q-42 45 -97 40q-58 -3 -93 -48q-35 -43 -29 -102q3 -56 41.5 -100t85.5 -44q48 -1 89 43q42 45 43 106zM395 239q1 -84 -44 -149q-23 -35 -60.5 -58.5t-81.5 -25.5q-45 -1 -84.5 19.5t-66.5 54.5q-52 63 -55 150q-2 41 11 81.5t40 71.5t65.5 49
t79.5 19q42 1 80 -17.5t64 -50.5q52 -61 52 -144z" />
    <glyph glyph-name="p" unicode="p" horiz-adv-x="403" 
d="M47 478h1q-1 1 -4 6l1 -3zM380 57q5 -16 -7 -26q-24 -19 -56 -20q-15 -1 -30 2q-17 4 -30 12q-40 26 -60 92v1q-1 -4 -3 -10l-3 -9q-23 -60 -55 -194q-37 -154 -88 -398q-2 -10 -10.5 -15.5t-17.5 -3.5t-14.5 9.5t-4.5 15.5v1l35 496q10 158 14 248q3 68 2 122
q-1 37 -2 60q-2 17 -3 28q-1 7 -2 12l-1 4q-10 17 -3 34q6 14 20.5 19.5t28.5 -0.5q6 -2 9 -5l2 -2q3 -2 4 -4l3 -5q1 -1 3 -6q2 -2 3 -7q2 -6 3 -12q2 -8 3 -18q2 -14 3 -34q1 -25 0 -64q0 -56 -5 -126q-7 -90 -21 -249l-12 -115l6 25q26 115 53 200q37 123 37 190v1.5v0.5
v4q2 10 9.5 16.5t17.5 7.5h1h1h0.5h1.5h2h2q11 -2 18 -10.5t7 -19.5v-1v-1q0 -1 -1 -2v-2q0 -3 -0.5 -8t-0.5 -7q0 -1 0.5 -4t0.5 -5q0 -15 -5 -30q2 -21 3 -28q7 -47 19 -81q14 -42 35 -57q2 -2 6 -4q1 -1 5 -3q6 -2 15 -4q15 -2 30 3l3 1q4 1 9 0.5t8.5 -2.5t7 -5.5
t4.5 -7.5z" />
    <glyph glyph-name="q" unicode="q" horiz-adv-x="555" 
d="M268 282q26 55 25 106q-1 27 -12 49.5t-30 29.5t-41.5 1t-43.5 -24q-39 -32 -62 -87q-22 -55 -16 -103q2 -24 12.5 -41t23.5 -24q11 -7 32 -3.5t41 17.5q42 26 71 79zM569 175q6 -9 5 -20t-9 -18q-53 -51 -99 -81q-35 -22 -61 -33q-22 -8 -38 -11h-1h-2q-8 -85 -12 -155
q-14 -221 -12 -479q0 -12 -7.5 -20t-19.5 -8q-11 0 -19 7.5t-8 18.5q-16 260 -12 484q1 129 10 244q3 40 7 79q-21 -28 -44 -47q-34 -28 -71 -37q-48 -13 -91 5q-44 20 -65 65q-17 35 -18 79q-3 70 32 141q37 70 92 109q34 24 69 31q44 9 81 -9q36 -18 55.5 -53.5
t22.5 -74.5v-1v-1q11 2 21 0q20 -4 31.5 -21.5t7.5 -38.5q0 -1 -1 -2l-1 -3q-21 -83 -38 -222q1 1 2 1h2q20 5 50 18q44 22 99 60l1 1q10 7 22 4.5t19 -12.5z" />
    <glyph glyph-name="r" unicode="r" horiz-adv-x="462" 
d="M417 150q9 -11 8.5 -25t-10.5 -24q-27 -26 -55 -43q-17 -11 -33 -17q-10 -4 -19 -7q-14 -3 -26 -3h-3l-4 1q-38 9 -57 44q-13 23 -18 51q-7 36 -7 91q1 25 4 84q3 51 1 66q-1 -1 -3 -1h-1q-39 -21 -78 -37q-15 -6 -35 -13l2 -12q2 -23 2 -46q0 -17 -4 -45q-2 -17 -10 -45
q-3 -12 -14 -18.5t-23 -2.5q-11 3 -17 12t-5 20v2q1 3 3 38v39q0 19 -3 38q-1 12 0 18q-9 4 -12 6q-24 15 -43 44q-13 22 -21 47q-6 16 2 31t23.5 20.5t30.5 -2t21 -23.5v-1q3 -6 6.5 -13.5t7.5 -13.5t8 -10t7 -5q1 0 5 1q17 5 36 13q35 15 70 34q14 7 33 11q22 3 39 -1
q25 -7 40 -26q12 -14 17 -35q4 -16 3 -54l-3 -42q-5 -57 -5 -80q-2 -46 2 -74q2 -14 8 -27q2 -3 3 -5q5 1 10 3q10 3 22 10q22 12 44 31q12 9 26.5 8t24.5 -12z" />
    <glyph glyph-name="s" unicode="s" horiz-adv-x="348" 
d="M313 196q16 -57 13 -89q-1 -27 -18 -53t-46.5 -34.5t-58.5 5.5q-24 11 -40 32q-24 32 -33 82q-1 6 1 12t7 10t11 5q8 2 15.5 -2.5t10.5 -12.5v-1q13 -38 31 -56q9 -10 20 -13.5t16 0.5q15 6 16 31q0 19 -15 60q-19 50 -57 122q0 -1 -1 -3q0 -2 -1 -2q-21 -55 -60 -102
q-36 -43 -83 -79q-49 -37 -97 -61q-10 -5 -21 -1.5t-16 14.5q-5 10 -1.5 20.5t13.5 16.5h1q42 23 84 57q40 34 71 72q30 40 47 86q12 32 13 75l-10 17q-1 1 -3.5 5t-3 5.5t-2 5.5t-1.5 7t1 8t4 10l1 1q12 24 39 23q6 0 10.5 -1.5t7 -2.5t6 -4.5t4 -4.5t3.5 -6t3 -6l19 -33
q20 -36 37 -69q45 -89 63 -146z" />
    <glyph glyph-name="t" unicode="t" horiz-adv-x="309" 
d="M93 391q8 3 18 4l153 4q9 0 16.5 -6.5t7.5 -16.5q1 -17 -15 -23l-142 -57q-19 -8 -38.5 0.5t-27.5 28t0 39t28 27.5zM322 140q7 -7 7 -16t-6 -16q-55 -60 -111 -87q-36 -18 -75 -19q-42 -3 -80 31q-28 27 -44 65l-45 -32q-8 -6 -18 -4.5t-15 9.5q-10 14 -1 27l56 84
q-7 43 -9 86l-1 89q2 100 22 212q28 162 63 257q5 15 21 16q6 2 12 2q15 -3 19 -18q26 -118 0 -269q-18 -100 -69 -192q-1 -33 -1 -61q0 -25 3 -58q3 -34 8 -66q4 -20 11 -41q12 -40 31 -59q30 -31 89 -6q52 21 99 66l1 1q7 7 17 6.5t16 -7.5z" />
    <glyph glyph-name="u" unicode="u" horiz-adv-x="535" 
d="M544 174q11 -10 11 -24.5t-10 -24.5q-44 -49 -91 -71q-31 -15 -61 -18q-20 -1 -35 1q-21 4 -36 12h1l-3 1l1 -1q-40 20 -60 65q-32 -31 -68 -48q-44 -22 -85 -17q-25 1 -48.5 16.5t-35.5 37.5q-16 30 -22 81q-3 34 0 74q6 69 25 141q5 17 20 25.5t32 4.5t26 -19.5
t5 -32.5l-1 -1v-2q-19 -63 -25 -123q-4 -33 -3 -61q2 -34 10.5 -48.5t24.5 -16.5q20 -3 45 8q47 22 85 75v5v6q2 37 13 82q11 41 25 78q7 17 24 24.5t34.5 1t25 -24t0.5 -34.5q0 -1 -1 -2v-1q-14 -30 -24 -65q-10 -37 -13 -66q-4 -35 3 -60q7 -23 25 -34l3 -1q9 -3 10 -3
q5 -2 16 -1q17 0 36 9q13 5 36 21q16 13 34 31h1q10 11 25 11t25 -11zM323 48v1v-1z" />
    <glyph glyph-name="v" unicode="v" horiz-adv-x="444" 
d="M501 444q9 1 15.5 -5t6.5 -15q1 -17 -16 -21q-45 -12 -77 -15q-27 -2 -55 0q7 -37 7 -74q-1 -65 -17 -123q-21 -73 -54 -116q-24 -32 -53 -48q-36 -21 -77 -16q-35 3 -68.5 21t-55.5 46q-39 51 -50 123q-10 62 0 126q2 15 13.5 23.5t26.5 6.5q13 -2 21.5 -12t8.5 -23v-3
q-2 -136 40 -195q26 -35 73 -41q35 -6 68 34q58 73 60 196q-2 53 -17 90q-21 8 -36 16q-39 24 -58 55q-6 7 -9 18q-6 14 -0.5 29t20.5 22q10 5 23 4v0q1 0 2 -1q6 0 8 -1l5 -2q60 -18 94 -79l14 -6q22 -9 65 -14l35 -1l36 1h1z" />
    <glyph glyph-name="w" unicode="w" horiz-adv-x="786" 
d="M514 434q4 -28 23 -34q1 0 7 -1q0 1 -1.5 3.5t-1.5 3.5q-13 20 -27 35v-7zM757 476q7 -9 5.5 -20t-10.5 -18q-67 -53 -121 -77q8 -23 7 -47q0 -34 -1 -41q-7 -98 -47 -163q-27 -43 -65 -66q-45 -28 -97 -22q-24 2 -49 14.5t-41 31.5q-22 26 -38 62q-18 -53 -54 -81
q-23 -19 -50 -26q-30 -7 -57 -4q-32 4 -57 25q-20 17 -35 44q-20 36 -32 91q-16 82 -13 181q0 17 13 29.5t31 12t30 -13.5t11 -31v-1v-2q-6 -88 6 -160q6 -40 21.5 -71t35.5 -32q19 -3 37 4t32.5 22.5t23.5 39.5q23 53 26 138q0 2 -0.5 8t-0.5 9q0 10 4.5 18.5t13 13.5
t18.5 5q15 1 25.5 -9.5t11.5 -26.5v-2q1 -79 21 -139q12 -36 30 -55q19 -21 44 -23q27 -3 51.5 11.5t41.5 43.5q32 53 40 130q1 5 3 36q0 13 -3 26q-26 -3 -49 3q-29 9 -47 33q-15 22 -18 50t4 51q1 2 2.5 6t2.5 6.5t3.5 6t6.5 7t9 7.5q7 5 19.5 5t17.5 -4q10 -5 13 -7
q30 -20 61 -65q5 -8 15 -27q48 21 110 68v1q9 7 20 5t18 -11z" />
    <glyph glyph-name="x" unicode="x" horiz-adv-x="693" 
d="M437 337zM668 177q10 -16 -3 -29q-46 -48 -87 -74q-49 -35 -109 -49q-72 -17 -131 9q-37 17 -64 54q-21 -25 -48 -43q-26 -15 -52 -17q-29 -4 -58 12q-28 18 -39 43q-12 27 -4 57q11 41 47 78q7 7 16.5 7t16.5 -6q14 -14 4 -30l-2 -2q-21 -34 -23 -58q0 -8 2 -13.5
t4.5 -7.5t11.5 -8q15 -6 37 7q17 11 34 32q-14 73 -40 132q-17 36 -37 64l-10 14l-5 8l-2 2l-213 -227q-6 -7 -16 -7.5t-17 6.5q-7 6 -7.5 15.5t5.5 16.5l103 127l52 63l26 31l12 16l7 8q7 8 16 14q18 12 40.5 10.5t39.5 -15.5q2 -1 7 -6l4 -4q5 -5 8 -9q10 -12 14 -18
q25 -34 44 -77l10 -25q24 61 66 103q29 28 59 40q22 9 45 8q13 -1 24 -5q4 -1 20 -8q25 -15 36 -35q15 -25 10 -53q-5 -36 -33 -70q-11 -13 -27.5 -14.5t-29.5 8.5q-12 10 -14 25.5t6 28.5l3 4q10 15 10 26l-3 2l-7 2q-4 0 -9 -1q-13 -5 -29 -21q-31 -29 -49 -75t-9 -80
q7 -36 42 -53t81 -9q69 10 180 82l1 1q8 5 17.5 3t15.5 -10z" />
    <glyph glyph-name="y" unicode="y" horiz-adv-x="576" 
d="M414 -124q0 2 0.5 5t0.5 5l-66 -42q-69 -46 -94 -68q-58 -50 -79 -79q-34 -42 -39 -93t19 -100q25 -60 58 -77q16 -8 33 -3q18 6 38 24q11 10 15 16l15 23q17 32 25 51q23 51 38 108q28 103 36 230zM555 -15q3 -7 -4 -11l-64 -41q-2 -61 -2 -62q-10 -134 -40 -243
q-17 -62 -43 -118q-9 -22 -29 -57l-17 -28q-9 -12 -25 -27q-32 -28 -65 -38q-43 -14 -83 8q-33 19 -52 45t-36 64q-30 68 -23 134q7 67 52 125q19 26 42.5 48t52.5 41.5t50 31.5t55 30q37 20 92 46q5 122 -6 247q-14 -27 -29 -48q-29 -41 -74 -70t-96 -36q-31 -5 -60 3
q-33 8 -56 34q-15 17 -26 41l-95 -83q-6 -5 -13.5 -4.5t-11.5 6.5q-10 11 -1 23l102 130q-10 82 11 182q4 16 18 25.5t31 6.5q17 -4 26 -18t6 -30v-3q-18 -94 -10 -162q5 -43 21 -61q15 -17 49 -14q73 6 129 70q41 49 67 121q0 6 -1 13.5t-2 13.5t-2 13.5t-2 13.5v1
q-2 16 7 28t24 14.5t27.5 -6.5t14.5 -24q30 -199 25 -394q2 1 22.5 10.5t31.5 13.5q8 4 12 -5z" />
    <glyph glyph-name="z" unicode="z" horiz-adv-x="446" 
d="M309 -298q25 72 20 178q-2 43 -12 81q-41 -19 -75 -34q-10 -5 -28.5 -13t-32.5 -14.5t-25 -12.5q-37 -21 -58 -55q-39 -63 -7 -156q10 -33 43.5 -55t69.5 -19q35 2 64 30q26 27 41 70zM422 40q7 -11 -3 -19q-15 -12 -35 -24q17 -50 19 -113q4 -120 -26 -206
q-20 -57 -59 -96q-46 -48 -108 -53t-116.5 29t-75.5 93q-19 59 -16 110q4 63 39 109q32 45 87 71q15 7 31.5 12.5t35 11.5t28.5 9q37 13 78 28q-11 22 -23 37q-25 29 -64 43q-37 13 -76 8q-8 -1 -15 1t-12 6t-9 10.5t-5 13.5v4v25q30 58 40 81q17 42 18 77q-1 30 -20 35
q-10 2 -15 -1q-6 -3 -21 -24l-4 -5q-6 -8 -16 -10t-18 4q-11 8 -10 21q1 35 22 61q14 17 33 23q21 7 40 4q41 -5 66 -38q19 -27 23 -66q2 -46 -22 -111q-4 -11 -16 -35q23 -4 44 -11q57 -21 94 -67q22 -25 37 -59q17 8 27 14l2 2q13 8 21 -5z" />
    <glyph glyph-name="braceleft" unicode="{" horiz-adv-x="292" 
d="M237.5 770.5q6.5 -10.5 2.5 -22.5q-2 -10 -10 -16t-18 -6q-58 -1 -71 -28q-10 -19 -1 -78l3 -28q9 -76 5 -118q-5 -44 -27 -75q-6 -8 -14 -15q5 -7 9 -14q21 -37 15 -80q-4 -26 -21 -64q-10 -26 -15 -48q-12 -52 0 -96q10 -44 49 -55q15 -4 22.5 -17.5t3.5 -28.5
q-4 -12 -14 -20t-23 -8q-5 0 -10 2q-39 14 -64 44q-22 25 -32 64q-9 32 -9 66q-1 27 4 63q4 27 14 61l9 27q3 9 4 19q2 18 -4 32q-7 13 -21 23q-13 6 -19 18q-7 14 -2 28q5 17 21 23q40 16 44 60q4 33 -4 110q-1 8 -2 20q-4 26 -4 43q0 48 17 77q21 39 69 52q37 9 75 0
q12 -4 18.5 -14.5z" />
    <glyph glyph-name="bar" unicode="|" horiz-adv-x="124" 
d="M73 656q1 -36 0 -105l-5 -213q-3 -125 -4 -208v-28q-1 -50 -1 -75v-6q0 -30 1 -44q0 -9 1 -23v-9q1 -3 1 -5l-2 -26q-1 -23 -15 -34q-6 -5 -12 -5q-2 0 -4 1q-17 3 -23 28q-5 23 -5 38q-2 18 -2 29q-1 18 -2 51v4q-1 59 -1 106q1 90 4 210l7 211q3 66 2 97q-1 6 -2 25
q-2 47 0 68l1 12q1 17 11 24q7 4 13 2q8 -2 13 -11q20 -39 24 -114z" />
    <glyph glyph-name="braceright" unicode="}" horiz-adv-x="267" 
d="M194 246q-18 -9 -24 -24q-7 -14 -1 -35q4 -15 15 -45q18 -49 24 -78q7 -40 -2 -78q-10 -42 -31 -70q-12 -18 -31 -31q-20 -13 -44 -17q-7 -1 -15 -1q-28 0 -63 15q-11 5 -15.5 16.5t-0.5 23.5q5 10 15 15t21 2q28 -8 46 -4q16 4 27 21q10 17 16 47q5 22 0 47
q-4 18 -19 59q-14 37 -20 57q-13 50 7 89q4 9 10 17q-9 8 -16 16q-27 32 -35 78q-12 76 24 152q5 9 13 26q11 21 16 32q15 34 19 55q5 23 -2 32q-10 3 -27 1q-13 -2 -23 5.5t-12 20.5q-2 20 16 30q22 11 44 12q35 4 58 -22q18 -19 23 -48q3 -21 -1 -46q-5 -29 -23 -71
q-6 -14 -20 -41q-7 -13 -9 -20q-27 -54 -19 -105q4 -25 17.5 -41.5t31.5 -19.5l5 -1q14 -5 21 -17q8 -14 4 -29q-5 -17 -20 -25z" />
    <glyph glyph-name="asciitilde" unicode="~" horiz-adv-x="406" 
d="M34 354q-5 -6 -13.5 -6t-14.5 6t-6 14q1 38 27 61q29 25 70 18q19 -3 37 -11t35.5 -19.5t22.5 -13.5q42 -22 74 -19q18 1 30 8q9 7 10 17v7q1 8 7 13.5t14 5.5q11 -1 16 -10q9 -18 5 -38t-18 -32q-21 -22 -56 -29q-54 -10 -111 16q-13 6 -30 15.5t-27.5 14.5t-19.5 6
q-12 2 -22 0q-9 -2 -24 -18z" />
    <glyph glyph-name="nonbreakingspace" unicode="&#xa0;" horiz-adv-x="253" 
 />
    <glyph glyph-name="exclamdown" unicode="&#xa1;" horiz-adv-x="176" 
d="M3 -315q-2 17 -1 51q1 23 3 44l8 86l20 172l21 172q7 66 8 85q1 22 0 41q-1 11 -3 19q-1 4 -3 8q0 1 -1 3h1q-11 5 -6 16.5t16 6.5q4 -2 6 -4.5t3 -3.5t2 -3t2 -3q3 -6 5 -13q3 -9 5 -23q2 -20 2 -45q0 -19 -4 -87l-12 -173l-11 -172l-4 -85q-1 -21 -1 -43q0 -23 2 -36
l1 -4q2 -12 -5.5 -22t-19.5 -12t-22 5t-12 20v0zM76.5 452q-20.5 0 -35 13t-14.5 31.5t14.5 31.5t35 13t35 -13t14.5 -31.5t-14.5 -31.5t-35 -13z" />
    <glyph glyph-name="cent" unicode="&#xa2;" horiz-adv-x="493" 
d="M434 192q10 -12 8.5 -28t-14.5 -26l-1 -2q-41 -30 -112 -55q-45 -16 -87 -24l1 -130q0 -12 -8 -20t-19 -8h-1q-11 0 -19 7.5t-8 17.5l-11 128q-56 0 -96 25q-18 14 -28 26q-3 4 -6 9q-10 15 -12 24q-10 26 -13 64q-6 61 15.5 122t64.5 109q5 5 17 16l3 3q1 2 2 2l-7 103
q-3 78 -4 138q0 15 11 26t26 11t26 -10.5t11 -25.5q3 -59 3 -137l-1 -48q5 2 9 4q22 11 46 9q24 -3 44 -18q28 -23 46 -60q6 -14 1 -29t-19.5 -22t-29.5 -1.5t-22 19.5l-1 3q-8 21 -21 32q-7 5 -15 3q-7 -3 -37 -28q-19 -16 -38 -35q-35 -38 -52.5 -85.5t-12.5 -95.5
q4 -57 30 -73q31 -19 87 -12q48 7 100 27q57 24 87 49l3 1q12 11 28 9t26 -14z" />
    <glyph glyph-name="sterling" unicode="&#xa3;" horiz-adv-x="573" 
d="M13 62zM525 121.5q10 -11.5 9 -26.5t-12 -24l-2 -2v-1q-60 -44 -143 -59q-64 -12 -148 -5q-74 7 -143 28q-16 5 -27 9q-28 -14 -55 -22q-14 -5 -27 1.5t-18 20.5q-2 6 -2 13v1q4 30 15 50q6 9 15 16q11 9 26 10q19 0 38 -12q20 13 32 24q38 37 52 99q11 54 3 123
q-57 -3 -69 -4h-2q-9 0 -17 4t-13 12t-6 17q-1 15 8.5 26t24.5 13q31 2 61 4q-6 26 -12 51q-15 52 -6.5 103.5t43 96t85.5 64.5q37 15 81 12q45 -3 80 -25q20 -11 34.5 -32t18.5 -43q8 -40 -5 -86q-4 -14 -17 -21t-27 -3t-21.5 17t-3.5 27l1 4q8 26 3 46t-22 31
q-18 12 -46 13q-28 2 -50 -7q-48 -19 -73 -73q-11 -23 -13 -51q-1 -8 1 -26l2 -13l5 -16q9 -37 15 -65q138 8 212 8q15 0 25.5 -10.5t10.5 -25.5t-10.5 -25.5t-25.5 -10.5q-69 0 -200 -7q9 -78 -5 -144q-17 -82 -71 -134q-1 0 -2 -1l-2 -2q56 -16 105 -21q68 -8 130 5
q66 13 109 52q12 9 26.5 8.5t24.5 -12z" />
    <glyph glyph-name="currency" unicode="&#xa4;" 
d="M611 199v28q0 3 -0.5 6t-1.5 5.5t-4 4t-7 1.5q-5 0 -9 -2.5t-7 -6.5q-1 4 -4 6.5t-8 2.5t-9.5 -2.5t-6.5 -6.5v8h-10v-44h11v26q1 4 4 6.5t6 2.5t5 -2.5t2 -7.5v-25h11v26q1 4 4 6.5t6.5 2.5t5 -2.5t1.5 -7.5v-25h11zM523.5 226q0.5 -2 0.5 -5t-0.5 -5.5t-2.5 -4.5
t-4 -2.5t-4.5 -0.5t-4.5 0.5t-3.5 2.5t-2.5 4.5t-1 5.5t1 5t2.5 4t3.5 3t4.5 1t4.5 -1t4 -3t2.5 -4zM536 221.5q0 4.5 -1.5 8.5t-4.5 7t-7 5t-9.5 2t-10 -2t-7 -5t-4.5 -7t-2 -8.5t2 -8.5t4.5 -7.5t7 -5t10 -1.5t9.5 1.5t7 5t4.5 7.5t1.5 8.5zM460 472l61 -58v76l-61 55v-73
zM487 210l-11 3q-1 -2 -3.5 -3.5t-5.5 -1.5t-5 1t-3.5 3t-2.5 4t-1 5t1 5.5t2.5 4t3.5 2.5t5 1q2 0 4.5 -1t4.5 -4l11 4q-3 5 -8 8t-12 3q-6 0 -10 -2t-7 -5t-4.5 -7t-1.5 -8.5t1.5 -8.5t4.5 -7.5t7.5 -5t9.5 -1.5q7 0 12 3t8 8zM437 211h-10v-12h10v12zM403.5 228.5
q1.5 -1.5 1.5 -3.5v-10q0 -2 -1.5 -3l-3 -2t-3 -1.5t-2.5 -0.5q-3 0 -5.5 1t-4 2.5t-2 4t-0.5 5t0.5 5t2 4.5t3.5 3t5 1q2 0 3.5 -1l3 -2t3 -2.5zM419 209q-1 0 -1.5 1t-0.5 2v48h-11v-25q-3 4 -6.5 6.5t-8.5 2.5q-4 0 -8 -2t-6.5 -5t-4 -7t-1.5 -8.5t1.5 -9t4.5 -7.5
t7 -4.5t8.5 -1.5t8.5 2t6 6v-3q1 -2 3 -3.5t5 -1.5h4v10zM354 226q1 -2 1 -5t-1 -5.5t-2.5 -4.5t-3.5 -2.5t-4.5 -0.5t-4.5 0.5t-3.5 2.5t-2.5 4.5t-1 5.5t1 5t2.5 4t3.5 3t4.5 1t4.5 -1t3.5 -3t2.5 -4zM366 221.5q0 4.5 -1.5 8.5t-4.5 7t-7 5t-9.5 2t-9.5 -2t-7 -5t-4.5 -7
t-1.5 -8.5t1.5 -8.5t4.5 -7.5t7 -5t9.5 -1.5t9.5 1.5t7 5t4.5 7.5t1.5 8.5zM319 244h-1h-1q-2 0 -3.5 -1t-3.5 -2t-3.5 -3t-2.5 -4v9h-11v-44h12v27q1 4 5 5.5t9 1.5v11zM273 226q1 -2 1 -5t-1 -5.5t-2.5 -4t-3.5 -2.5t-4 -1q-4 0 -7 2.5t-5 5.5v10q1 2 2 3.5t2.5 2.5t3 1.5
t3.5 0.5t4.5 -1t4 -3t2.5 -4zM286 221.5q0 4.5 -1.5 8.5t-4.5 7t-6.5 5t-8.5 2t-8.5 -2.5t-6.5 -5.5v7h-10v-61h12v25q2 -4 6 -6t9 -2q4 0 7.5 1.5t6 4.5t4 7.5t1.5 9zM231 227q0 3 -0.5 6t-2 5.5t-4 4t-6.5 1.5q-6 0 -10.5 -2.5t-7.5 -6.5v8h-10v-44h11v26q1 2 2 3.5t3 3
t3.5 2t3.5 0.5q3 0 5 -2.5t2 -7.5v-25h11v28zM320 299v84v107l201 -191v84l-261 247v-17v-174l-90 85v-83zM184 243h-10l-11 -34l-11 34h-12l16 -44h12zM138 212q0 3 -1 5t-3 3.5t-5 2.5t-8 3q-2 0 -4 0.5t-3 1t-1.5 1.5t-0.5 2q0 3 2 4t5 1t6 -1t7 -4l4 7q-3 3 -7.5 4.5
t-9.5 1.5q-3 0 -6.5 -1t-5.5 -3t-3.5 -4.5t-1.5 -5.5t1 -5t2.5 -3t4.5 -2t8 -3q5 -1 7 -2t2 -3.5t-2 -3.5t-5 -1q-4 0 -7.5 1.5t-7.5 3.5l-4 -7q3 -3 8.5 -4.5t10.5 -1.5q8 0 13 3.5t5 9.5zM716 358q0 -97 -47.5 -179.5t-130.5 -130.5t-180 -48t-179.5 48t-130.5 130.5
t-48 179.5t48 179.5t130.5 130.5t179.5 48t180 -48t130.5 -130.5t47.5 -179.5z" />
    <glyph glyph-name="yen" unicode="&#xa5;" horiz-adv-x="597" 
d="M472 455q-94 -143 -117 -174q-1 -2 -3.5 -5.5t-3.5 -5.5l48 1q7 1 48.5 3t48.5 -1q12 -1 20 -10t6 -21q-2 -20 -23 -24q-15 -3 -33 -4t-32.5 -0.5t-33.5 -0.5h-90l-39 -52l91 3q7 0 48.5 2.5t48.5 -0.5q12 -1 19.5 -10.5t6.5 -20.5q-2 -21 -23 -25q-15 -3 -33 -3.5t-33 0
t-33 -0.5h-98h-19.5h-17.5q-39 -46 -83 -71q-63 -36 -120 -27q-10 1 -16 9t-4 18q2 15 18 19l8 2q36 9 74 39q1 1 18 16q-49 3 -57 4q-10 1 -16.5 8.5t-4.5 17.5q1 9 8 15t17 6h1q43 -3 101 -2l1 1q18 21 43 54q-65 2 -113 7q-10 1 -16 8.5t-5 17.5q1 9 8.5 15t16.5 6h1
q55 -3 148 -1q2 2 6 7t6 8q-12 2 -19 11l-202 239q-13 15 -11.5 35.5t17.5 33.5t36 11.5t33 -17.5q2 -2 3 -4l177 -258v-2l1 -1l118 161l125 168q6 8 16 9.5t18 -4.5t9.5 -15t-2.5 -17q-57 -95 -112 -178z" />
    <glyph glyph-name="brokenbar" unicode="&#xa6;" horiz-adv-x="116" 
d="M60 324q2 -11 3 -25.5t0.5 -25.5t0.5 -25v-77q-1 -94 -9 -153q-1 -8 -8.5 -13t-17.5 -4q-9 1 -15 6.5t-6 13.5q3 51 1 150l-3 75q0 6 -2.5 38t0.5 38q1 9 10 15t21 5q20 -2 25 -18zM9 567l-3 75q0 6 -2.5 38t0.5 38q1 9 10 15t21 5q20 -2 25 -18q2 -12 3 -26t0.5 -25
t0.5 -25v-77q-1 -94 -9 -153q-1 -8 -8.5 -13t-17.5 -4q-9 1 -15 6.5t-6 13.5q3 50 1 150z" />
    <glyph glyph-name="section" unicode="&#xa7;" horiz-adv-x="513" 
d="M396 220q2 5 2 9q0 2 -1 6q-2 7 -12 18q-16 18 -49 38q-1 1 -2.5 2t-2.5 1q-14 8 -39 21q-38 19 -82 37l-1 1h-2q-42 -8 -80 -33q-28 -18 -49 -41q-8 -10 -9 -17q-1 -5 2 -13q8 -16 39 -38q23 -16 57 -32l5 -2.5t4 -1.5q6 -3 33 -15q24 -11 26 -12h8q26 -2 61 9
q34 10 60 26.5t32 36.5zM459 253q4 -16 3 -30q-2 -12 -7 -26q-16 -40 -62 -66q-35 -20 -75 -28h-1.5h-1.5q31 -21 49 -41q18 -22 25 -43q4 -16 2 -30q-1 -12 -6 -25q-16 -40 -62 -67q-35 -20 -75 -28q-48 -9 -81 -4q-27 6 -43 16q-14 9 -20 22t-3 28q2 8 8 12.5t14 2.5
q13 -2 15 -15l1 -4q1 -6 4 -7q2 -1 3 -2q9 -4 26 -4q27 -2 62 9q34 10 60 26.5t32 36.5q1 5 2 9q0 2 -1 6q-2 7 -12 18q-16 18 -49 38q-41 25 -126 61q-39 18 -68 38q-43 30 -60 64q-14 29 -7 57q5 24 26 45q27 29 62 51q19 11 43 22q-38 27 -54 59q-14 29 -7 57q6 24 26 45
q27 29 62 51q79 47 155 44q58 -5 84 -44q16 -24 10 -53q-5 -22 -22 -41q-5 -6 -12.5 -6.5t-13.5 4.5q-9 7 -6 18l1 5q4 17 3 26q-1 10 -6 15q-6 7 -17 11q-9 4 -25 5q-56 2 -117 -37q-28 -18 -49 -41q-8 -10 -9 -17q-1 -5 2 -13q8 -16 39 -38q20 -14 51 -29q1 0 3 -1.5
t3 -1.5q54 -23 99 -48q32 -17 34 -18q41 -26 64 -51q19 -22 25 -43z" />
    <glyph glyph-name="dieresis" unicode="&#xa8;" horiz-adv-x="308" 
d="M73 786q0 -2 1 -4q4 -31 5 -72q1 -36 -1 -71q0 -12 -8.5 -19.5t-19.5 -6.5q-11 0 -18.5 7.5t-8.5 18.5q-2 33 -6 66q-5 37 -12 64q-4 14 3.5 26.5t21.5 16.5q9 2 18 -0.5t15.5 -9.5t9.5 -16zM258 813v-7l-10 -112q-1 -9 -9 -15.5t-17 -5.5t-15 7t-7 14l-12 110v1
q-2 15 7 26.5t23.5 13t26 -7.5t13.5 -24z" />
    <glyph glyph-name="copyright" unicode="&#xa9;" horiz-adv-x="896" 
d="M427 475q-13 -8 -21 -17q-21 -23 -33.5 -54.5t-12.5 -61.5q1 -35 17 -52q4 -5 16 -11q9 -3 30 -3q68 0 137 31l2 1q8 3 15 0t11 -10q6 -14 -6 -23q-34 -26 -74 -41q-41 -17 -83 -19q-30 -2 -48 2q-31 8 -49 29q-31 35 -34 93q-5 95 68 165q17 17 42 28q30 11 57 4
q25 -7 44 -28q17 -18 25 -40q2 -7 -1 -14.5t-11 -10.5q-10 -3 -19 3l-2 2q-34 27 -50 29q-9 1 -20 -2zM806 518q41 -68 36 -143q-4 -70 -47 -138q-37 -59 -94 -105q-63 -52 -115 -77q-64 -31 -135 -40.5t-141 5.5q-79 17 -130 67q-25 23 -43 61q-8 16 -14 35q-7 22 -2 36
q2 5 5.5 8.5t8 5.5t9.5 2t10 -2q3 -1 6 -3l4 -3q4 -4 6.5 -8t4.5 -10.5t3 -8.5q4 -15 10 -27q15 -28 33 -45q38 -37 101 -49q122 -26 236 32q45 22 102 70q48 41 81 91q34 53 37 107q4 55 -27 107q-29 48 -78.5 87t-106.5 60q-115 38 -237 -6q-56 -19 -112 -54
q-66 -41 -98 -75q-41 -42 -60 -102t-13 -121v-2q1 -8 -4.5 -14t-13.5 -7q-7 -1 -13 4t-7 12q-11 70 6 140q16 68 66 125q37 42 106 89q61 39 123 62q66 25 137 28t141 -20q145 -55 219 -174z" />
    <glyph glyph-name="ordfeminine" unicode="&#xaa;" horiz-adv-x="470" 
d="M129 323q30 -7 60 23q29 29 42 72.5t3 82.5v1q-1 4 -1 10l-1 0.5t-1 1.5l-2 2q-12 17 -29.5 27.5t-32.5 9.5q-28 0 -67 -39q-31 -32 -38 -73q-8 -43 13 -78q19 -33 54 -40zM417 318q5 -10 -4 -18q-22 -18 -54 -27q-32 -7 -61 -3q-34 4 -56 38q-1 -1 -3 -3.5t-3 -3.5
q-23 -25 -52 -37q-32 -14 -67 -8q-22 3 -42 14.5t-34 28t-23 36.5q-23 53 -11 117q12 62 52 102q21 21 47 34q30 16 61 15q33 -1 60 -22q23 -17 38 -46l1 -4q11 -4 15 -14q21 -52 7 -114q0 -2 -1.5 -6t-1.5 -5q3 -7 3 -9v-7q-2 -20 4 -37q6 -16 18 -21q19 -7 42 -5
q24 1 42 11l2 1q14 7 21 -7z" />
    <glyph glyph-name="guillemotleft" unicode="&#xab;" horiz-adv-x="432" 
d="M209 264l156 -108q11 -8 7 -24q-2 -10 -10 -13q-3 -1 -5 -1q-3 0 -7 2l-200 111q-8 4 -12 14q-4 12 -1.5 24t10.5 19l110 87l55 44l5 4q14 12 18 18q7 8 14 24l2 6q5 12 16 11q7 -1 11 -7t4 -15q-1 -20 -9 -37t-14.5 -24.5t-17.5 -17.5l-6 -6l-54 -48q-24 -22 -71 -63h-1
zM77 264l156 -108q11 -8 7 -24q-2 -10 -11 -13q-2 -1 -4 -1q-4 0 -7 2l-200 111q-8 4 -12 14q-5 12 -2 24t11 19l110 87l55 44l5 4q13 12 18 18q7 8 14 24l2 6q5 12 16 11q7 -1 11 -7t3 -15q0 -12 -3 -23.5t-7 -18.5t-10 -15t-10 -12t-11 -10q-2 -3 -5 -6l-54 -48
q-24 -22 -71 -63h-1z" />
    <glyph glyph-name="logicalnot" unicode="&#xac;" 
d="M611 199v28q0 3 -0.5 6t-1.5 5.5t-4 4t-7 1.5q-5 0 -9 -2.5t-7 -6.5q-1 4 -4 6.5t-8 2.5t-9.5 -2.5t-6.5 -6.5v8h-10v-44h11v26q1 4 4 6.5t6 2.5t5 -2.5t2 -7.5v-25h11v26q1 4 4 6.5t6.5 2.5t5 -2.5t1.5 -7.5v-25h11zM523.5 226q0.5 -2 0.5 -5t-0.5 -5.5t-2.5 -4.5
t-4 -2.5t-4.5 -0.5t-4.5 0.5t-3.5 2.5t-2.5 4.5t-1 5.5t1 5t2.5 4t3.5 3t4.5 1t4.5 -1t4 -3t2.5 -4zM536 221.5q0 4.5 -1.5 8.5t-4.5 7t-7 5t-9.5 2t-10 -2t-7 -5t-4.5 -7t-2 -8.5t2 -8.5t4.5 -7.5t7 -5t10 -1.5t9.5 1.5t7 5t4.5 7.5t1.5 8.5zM460 472l61 -58v76l-61 55v-73
zM487 210l-11 3q-1 -2 -3.5 -3.5t-5.5 -1.5t-5 1t-3.5 3t-2.5 4t-1 5t1 5.5t2.5 4t3.5 2.5t5 1q2 0 4.5 -1t4.5 -4l11 4q-3 5 -8 8t-12 3q-6 0 -10 -2t-7 -5t-4.5 -7t-1.5 -8.5t1.5 -8.5t4.5 -7.5t7.5 -5t9.5 -1.5q7 0 12 3t8 8zM437 211h-10v-12h10v12zM403.5 228.5
q1.5 -1.5 1.5 -3.5v-10q0 -2 -1.5 -3l-3 -2t-3 -1.5t-2.5 -0.5q-3 0 -5.5 1t-4 2.5t-2 4t-0.5 5t0.5 5t2 4.5t3.5 3t5 1q2 0 3.5 -1l3 -2t3 -2.5zM419 209q-1 0 -1.5 1t-0.5 2v48h-11v-25q-3 4 -6.5 6.5t-8.5 2.5q-4 0 -8 -2t-6.5 -5t-4 -7t-1.5 -8.5t1.5 -9t4.5 -7.5
t7 -4.5t8.5 -1.5t8.5 2t6 6v-3q1 -2 3 -3.5t5 -1.5h4v10zM354 226q1 -2 1 -5t-1 -5.5t-2.5 -4.5t-3.5 -2.5t-4.5 -0.5t-4.5 0.5t-3.5 2.5t-2.5 4.5t-1 5.5t1 5t2.5 4t3.5 3t4.5 1t4.5 -1t3.5 -3t2.5 -4zM366 221.5q0 4.5 -1.5 8.5t-4.5 7t-7 5t-9.5 2t-9.5 -2t-7 -5t-4.5 -7
t-1.5 -8.5t1.5 -8.5t4.5 -7.5t7 -5t9.5 -1.5t9.5 1.5t7 5t4.5 7.5t1.5 8.5zM319 244h-1h-1q-2 0 -3.5 -1t-3.5 -2t-3.5 -3t-2.5 -4v9h-11v-44h12v27q1 4 5 5.5t9 1.5v11zM273 226q1 -2 1 -5t-1 -5.5t-2.5 -4t-3.5 -2.5t-4 -1q-4 0 -7 2.5t-5 5.5v10q1 2 2 3.5t2.5 2.5t3 1.5
t3.5 0.5t4.5 -1t4 -3t2.5 -4zM286 221.5q0 4.5 -1.5 8.5t-4.5 7t-6.5 5t-8.5 2t-8.5 -2.5t-6.5 -5.5v7h-10v-61h12v25q2 -4 6 -6t9 -2q4 0 7.5 1.5t6 4.5t4 7.5t1.5 9zM231 227q0 3 -0.5 6t-2 5.5t-4 4t-6.5 1.5q-6 0 -10.5 -2.5t-7.5 -6.5v8h-10v-44h11v26q1 2 2 3.5t3 3
t3.5 2t3.5 0.5q3 0 5 -2.5t2 -7.5v-25h11v28zM320 299v84v107l201 -191v84l-261 247v-17v-174l-90 85v-83zM184 243h-10l-11 -34l-11 34h-12l16 -44h12zM138 212q0 3 -1 5t-3 3.5t-5 2.5t-8 3q-2 0 -4 0.5t-3 1t-1.5 1.5t-0.5 2q0 3 2 4t5 1t6 -1t7 -4l4 7q-3 3 -7.5 4.5
t-9.5 1.5q-3 0 -6.5 -1t-5.5 -3t-3.5 -4.5t-1.5 -5.5t1 -5t2.5 -3t4.5 -2t8 -3q5 -1 7 -2t2 -3.5t-2 -3.5t-5 -1q-4 0 -7.5 1.5t-7.5 3.5l-4 -7q3 -3 8.5 -4.5t10.5 -1.5q8 0 13 3.5t5 9.5zM716 358q0 -97 -47.5 -179.5t-130.5 -130.5t-180 -48t-179.5 48t-130.5 130.5
t-48 179.5t48 179.5t130.5 130.5t179.5 48t180 -48t130.5 -130.5t47.5 -179.5z" />
    <glyph glyph-name="registered" unicode="&#xae;" horiz-adv-x="557" 
d="M483 751q25 -41 22 -86q-2 -42 -28 -83q-23 -35 -57 -62q-37 -32 -69 -47q-80 -39 -165 -20q-48 10 -78 39q-15 14 -26 37q-5 9 -8 21q-5 13 -1 22q1 4 4.5 6.5t7 3t7.5 -1.5l4 -2l2 -2q3 -2 9 -16q2 -9 6 -16q9 -17 19 -27q23 -22 61 -30q73 -15 142 20q27 13 60 42
q30 24 49 54q21 32 22 64q3 33 -16 65q-36 60 -111 87q-69 23 -142 -3q-34 -12 -67 -32q-39 -25 -59 -45q-24 -25 -35.5 -61t-8.5 -73v-1q2 -12 -10 -13q-11 -1 -12 10q-7 42 3 84q10 40 40 75q22 25 64 53q36 23 73 37q86 33 167 5q87 -33 131 -104zM260 702q6 23 -1 37
q-4 5 -8 6h-2h-1h-4q-2 0 -7 -2q-15 -6 -25 -27q-7 -12 -15 -43q-4 -14 -7 -33q1 0 4.5 -1t4.5 -1t3 -1t3 -1q2 1 3 1q13 5 24 15t18 22.5t10 27.5zM291 693q-9 -28 -28 -49q-12 -12 -27 -20q17 -9 29 -22q11 -13 27 -19q9 -3 18 -3q13 -2 19 -6l3 -2q10 -6 4 -16
q-1 -2 -3 -3q-10 -7 -25 -7q-13 1 -25 4q-27 7 -45 28q-10 11 -30 20q-8 4 -19 7q-1 1 -4 2q-2 -16 -4 -31q-1 -11 -12 -10q-9 1 -10 10q-3 52 6 104q6 31 16 51q17 34 43 44q11 4 17 4q10 1 18 -1q6 -1 18 -9q9 -8 12 -15q12 -26 2 -61z" />
    <glyph glyph-name="degree" unicode="&#xb0;" horiz-adv-x="330" 
d="M212 652q-11 17 -41 18t-56 -13q-28 -15 -42 -39q-14 -26 -4 -46t41 -23q28 -4 58 13t42 42q14 28 2 48zM262 679q12 -27 10.5 -52t-14.5 -48q-22 -40 -64 -64q-43 -23 -89 -21q-25 2 -49 14.5t-37 35.5q-13 27 -12 53t13 49q20 41 64 67q46 26 92 21q26 -3 49.5 -17
t36.5 -38z" />
    <glyph glyph-name="plusminus" unicode="&#xb1;" horiz-adv-x="568" 
d="M456 101q10 -1 16 -9t5 -17q-1 -10 -8 -16t-17 -5q-62 3 -185 0l-94 -3q-7 0 -46.5 -2.5t-46.5 0.5q-11 2 -18.5 11t-6.5 20q2 21 23 25q11 2 23.5 3t23.5 1h23.5h23.5l94 1q117 -1 190 -9zM499 393q8 -1 13.5 -7.5t4.5 -14.5q-2 -16 -17 -18h-1q-30 -5 -63.5 -9t-75 -8
t-64.5 -7q-2 -96 6 -168q1 -14 -7 -24t-22 -12q-6 -1 -12 1t-10.5 5.5t-8 9t-4.5 11.5q-11 74 -12 168l-179 -21q-16 -2 -29 8t-15 26.5t8 29.5t26 15h2q78 7 187 12q1 99 8 183q2 16 14 26.5t28.5 9.5t27 -13.5t9.5 -29.5v-1v-1q-10 -76 -14 -170q141 6 200 -1z" />
    <glyph glyph-name="unib2" unicode="&#xb2;" horiz-adv-x="419" 
d="M181 701l1 -1.5l1 -1.5q1 2 4 9.5t4 11.5q4 15 5 26l1 1q-15 -12 -18 -29q-1 -8 2 -16zM208 753h-1h1zM361 545q13 -11 2 -25q-34 -42 -101 -50q-22 -3 -53 -3h-25q-23 1 -28 2q-24 4 -55 16q-1 0 -2 -0.5l-1 -0.5l-4 -2h-4q-14 -1 -29 0q-23 2 -35 7q-12 6 -18 15
q-5 10 -5 19.5t4 14.5q9 19 29 23q5 2 13.5 1t10.5 -1.5t8.5 -2.5t7.5 -2q3 -1 14 -7q31 20 56 65q9 15 21 42q-14 8 -24 18q-16 18 -18 42q-2 44 31 79q21 20 44 23q19 3 36 -6q16 -10 24 -27q3 -8 4.5 -16t1.5 -12.5t-1 -11.5t-1 -9q-2 -16 -7 -35q-15 -61 -53 -122
q-25 -37 -47 -58q1 0 3 -1l4 -1q3 -1 22 -2l25 -2q27 -2 47 0q51 3 77 30q5 5 13 5.5t13 -5.5z" />
    <glyph glyph-name="unib3" unicode="&#xb3;" horiz-adv-x="372" 
d="M315 547q4 -8 5 -23q2 -7 -3 -25q-2 -8 -12 -23q-14 -14 -17 -16q-27 -18 -70 -26q-31 -5 -68 -6q-59 -2 -133 9q-7 1 -12 7.5t-4 13.5q2 7 7.5 12t12.5 4q65 -5 126 0q34 2 61 8q33 7 49 20q8 7 9 12t-3 15q-9 24 -28 35q-21 12 -47 12t-52 -9v1q-1 -1 -2.5 -1h-2.5
q-12 0 -20 8t-8 20q0 13 11 22v1q23 13 44 40q3 4 7 9.5t6.5 11t5 10.5t3.5 9t1 6q-1 6 -6 10q-9 6 -23 8q-24 5 -55 -11l-3 -2q-7 -4 -14.5 -1.5t-10.5 9.5q-7 13 4 22q37 34 82 33q27 -1 48 -12q12 -7 21.5 -21t11.5 -29q2 -22 -10 -50q-6 -13 -17 -29q32 -4 56 -20
q34 -23 50 -64z" />
    <glyph glyph-name="mu" unicode="&#xb5;" horiz-adv-x="670" 
d="M666 246q15 -12 6 -29q-46 -87 -115 -148q-40 -35 -87 -52q-22 -9 -54 -12h-30q-11 2 -34 9q-10 3 -32 21q-6 5 -22 29q-12 26 -16 54q-29 -35 -58 -57q-51 -39 -110 -32q-30 2 -58 26l-38 -147q-4 -13 -15 -57t-20.5 -72t-22.5 -55q-5 -9 -14.5 -12t-18.5 2
q-13 6 -13 21q0 30 4.5 59.5t15 73t12.5 57.5l42 187q50 219 88 374q4 17 19 26t32 4.5t26 -19t5 -31.5q-17 -72 -64 -261q-1 -46 5 -68q2 -8 11 -20q9 -5 15 -5q26 -4 52 16q50 35 96 119q12 20 31 62q14 47 34 93v0q1 0 1 1q4 17 19 26.5t32 5.5q16 -4 25 -17.5t6 -29.5
l-2 -18q-31 -106 -39 -161q-7 -45 -5 -75q1 -12 7 -26q1 -1 2 -3.5t2 -3.5q1 0 2 -1.5t2 -1.5t3.5 -1.5t4.5 -1.5q7 -1 15 -2q21 1 31 4q29 8 67 32q59 40 121 113l1 1q6 8 16 8.5t17 -5.5z" />
    <glyph glyph-name="periodcentered" unicode="&#xb7;" 
d="M611 199v28q0 3 -0.5 6t-1.5 5.5t-4 4t-7 1.5q-5 0 -9 -2.5t-7 -6.5q-1 4 -4 6.5t-8 2.5t-9.5 -2.5t-6.5 -6.5v8h-10v-44h11v26q1 4 4 6.5t6 2.5t5 -2.5t2 -7.5v-25h11v26q1 4 4 6.5t6.5 2.5t5 -2.5t1.5 -7.5v-25h11zM523.5 226q0.5 -2 0.5 -5t-0.5 -5.5t-2.5 -4.5
t-4 -2.5t-4.5 -0.5t-4.5 0.5t-3.5 2.5t-2.5 4.5t-1 5.5t1 5t2.5 4t3.5 3t4.5 1t4.5 -1t4 -3t2.5 -4zM536 221.5q0 4.5 -1.5 8.5t-4.5 7t-7 5t-9.5 2t-10 -2t-7 -5t-4.5 -7t-2 -8.5t2 -8.5t4.5 -7.5t7 -5t10 -1.5t9.5 1.5t7 5t4.5 7.5t1.5 8.5zM460 472l61 -58v76l-61 55v-73
zM487 210l-11 3q-1 -2 -3.5 -3.5t-5.5 -1.5t-5 1t-3.5 3t-2.5 4t-1 5t1 5.5t2.5 4t3.5 2.5t5 1q2 0 4.5 -1t4.5 -4l11 4q-3 5 -8 8t-12 3q-6 0 -10 -2t-7 -5t-4.5 -7t-1.5 -8.5t1.5 -8.5t4.5 -7.5t7.5 -5t9.5 -1.5q7 0 12 3t8 8zM437 211h-10v-12h10v12zM403.5 228.5
q1.5 -1.5 1.5 -3.5v-10q0 -2 -1.5 -3l-3 -2t-3 -1.5t-2.5 -0.5q-3 0 -5.5 1t-4 2.5t-2 4t-0.5 5t0.5 5t2 4.5t3.5 3t5 1q2 0 3.5 -1l3 -2t3 -2.5zM419 209q-1 0 -1.5 1t-0.5 2v48h-11v-25q-3 4 -6.5 6.5t-8.5 2.5q-4 0 -8 -2t-6.5 -5t-4 -7t-1.5 -8.5t1.5 -9t4.5 -7.5
t7 -4.5t8.5 -1.5t8.5 2t6 6v-3q1 -2 3 -3.5t5 -1.5h4v10zM354 226q1 -2 1 -5t-1 -5.5t-2.5 -4.5t-3.5 -2.5t-4.5 -0.5t-4.5 0.5t-3.5 2.5t-2.5 4.5t-1 5.5t1 5t2.5 4t3.5 3t4.5 1t4.5 -1t3.5 -3t2.5 -4zM366 221.5q0 4.5 -1.5 8.5t-4.5 7t-7 5t-9.5 2t-9.5 -2t-7 -5t-4.5 -7
t-1.5 -8.5t1.5 -8.5t4.5 -7.5t7 -5t9.5 -1.5t9.5 1.5t7 5t4.5 7.5t1.5 8.5zM319 244h-1h-1q-2 0 -3.5 -1t-3.5 -2t-3.5 -3t-2.5 -4v9h-11v-44h12v27q1 4 5 5.5t9 1.5v11zM273 226q1 -2 1 -5t-1 -5.5t-2.5 -4t-3.5 -2.5t-4 -1q-4 0 -7 2.5t-5 5.5v10q1 2 2 3.5t2.5 2.5t3 1.5
t3.5 0.5t4.5 -1t4 -3t2.5 -4zM286 221.5q0 4.5 -1.5 8.5t-4.5 7t-6.5 5t-8.5 2t-8.5 -2.5t-6.5 -5.5v7h-10v-61h12v25q2 -4 6 -6t9 -2q4 0 7.5 1.5t6 4.5t4 7.5t1.5 9zM231 227q0 3 -0.5 6t-2 5.5t-4 4t-6.5 1.5q-6 0 -10.5 -2.5t-7.5 -6.5v8h-10v-44h11v26q1 2 2 3.5t3 3
t3.5 2t3.5 0.5q3 0 5 -2.5t2 -7.5v-25h11v28zM320 299v84v107l201 -191v84l-261 247v-17v-174l-90 85v-83zM184 243h-10l-11 -34l-11 34h-12l16 -44h12zM138 212q0 3 -1 5t-3 3.5t-5 2.5t-8 3q-2 0 -4 0.5t-3 1t-1.5 1.5t-0.5 2q0 3 2 4t5 1t6 -1t7 -4l4 7q-3 3 -7.5 4.5
t-9.5 1.5q-3 0 -6.5 -1t-5.5 -3t-3.5 -4.5t-1.5 -5.5t1 -5t2.5 -3t4.5 -2t8 -3q5 -1 7 -2t2 -3.5t-2 -3.5t-5 -1q-4 0 -7.5 1.5t-7.5 3.5l-4 -7q3 -3 8.5 -4.5t10.5 -1.5q8 0 13 3.5t5 9.5zM716 358q0 -97 -47.5 -179.5t-130.5 -130.5t-180 -48t-179.5 48t-130.5 130.5
t-48 179.5t48 179.5t130.5 130.5t179.5 48t180 -48t130.5 -130.5t47.5 -179.5z" />
    <glyph glyph-name="cedilla" unicode="&#xb8;" horiz-adv-x="200" 
d="M69 2l-11 -60q16 2 25 1q21 -1 36 -9q21 -10 28 -30q3 -6 0 -11.5t-9 -7.5q-12 -5 -18 6v1q-9 15 -37 13q-25 -2 -51 -13q-8 -4 -16.5 -1.5t-12.5 11.5q-3 6 -2 12v5l9 81z" />
    <glyph glyph-name="unib9" unicode="&#xb9;" horiz-adv-x="360" 
d="M270.5 493.5q-10.5 -6.5 -22.5 -4t-19 12.5q-5 9 -7 18l-2 11q-1 3 -1 6.5t-0.5 7.5t-0.5 6q-1 19 -1 36q1 31 3 69q1 7 2 21t2 20q-33 -27 -58 -45q-38 -26 -71 -47q-43 -26 -76 -41q-8 -4 -16.5 -1t-12.5 11q-3 8 -0.5 16t9.5 12l1 1q29 17 66 45q29 22 62 51
q61 54 115 115v0q11 11 27 11.5t27 -10.5q15 -14 11 -34q-12 -72 -19 -132q-5 -35 -7 -65q-2 -15 -2 -32v-6.5v-7.5l1 -5q-1 2 -2 2q7 -10 4.5 -22.5t-13 -19z" />
    <glyph glyph-name="ordmasculine" unicode="&#xba;" horiz-adv-x="417" 
d="M286 449q-7 26 -43 37.5t-74 3.5q-40 -9 -65 -34q-26 -27 -21 -55q6 -29 42 -43q34 -14 76 -4q43 11 67 38q26 29 18 57zM356 466q8 -33 -3.5 -65.5t-34.5 -55.5q-41 -42 -101 -57q-61 -14 -116 5q-31 10 -56 34t-33.5 57t2.5 66.5t34 57.5q39 44 102 60q65 16 120 -5
q31 -12 55 -38t31 -59z" />
    <glyph glyph-name="guillemotright" unicode="&#xbb;" horiz-adv-x="432" 
d="M173 221h-1q-47 41 -71 63l-54 49q-3 2 -5 5q-12 11 -18.5 18t-14 24t-8.5 37q-1 9 3 15t11 7q11 1 16 -11l2 -6q7 -16 14 -24q5 -6 18 -17l5 -5l55 -44l110 -87q8 -7 11 -19t-2 -23q-4 -11 -12 -15l-200 -111q-3 -2 -7 -2q-2 0 -4 1q-9 3 -11 13q-4 16 7 24zM305 221
q-48 41 -72 63l-54 49l-5 5q-12 11 -18.5 18t-14 24t-8.5 37q-1 9 3.5 15t10.5 7q11 1 16 -11l2 -6q7 -16 14 -24q5 -6 18 -17l6 -5l54 -44l110 -87q9 -7 11.5 -19t-1.5 -23t-12 -15l-201 -111q-3 -2 -7 -2q-2 0 -4 1q-9 3 -11 13q-4 16 7 24z" />
    <glyph glyph-name="onequarter" unicode="&#xbc;" horiz-adv-x="834" 
d="M769 280q15 -10 15 -27v-2q0 -12 -5 -34t-5 -27q-1 -6 -10 -61q0 -1 -3.5 -24t-4.5 -35q-3 -28 -10 -55l-1 -5q-2 -9 -10 -14t-17 -3q-8 2 -13 9q-20 26 -22 71q0 9 1 26q-6 -1 -9 -2l-47 -7q-35 -4 -60 0q-11 2 -23 7t-24 14.5t-18 21.5q-10 16 -12 37q-2 13 -2 31
q1 23 7 54q8 47 28 100q5 13 17 19t25 1q12 -5 18 -16.5t3 -23.5l-1 -1q-13 -45 -20 -91q-3 -22 -4 -44q0 -23 4 -29q3 -4 15 -7q15 -3 39 -1q48 4 51 3h11.5h10.5q5 22 10 41q2 6 4.5 16t4.5 16.5t5.5 15t7.5 15.5q7 11 20 14t24 -3zM610 608l-27 -46l-54 -92l-112 -182
l-112 -181l-56 -91l-26 -43q-7 -9 -13 -30l-4 -13q-2 -8 -9.5 -12t-15 -1.5t-11.5 9.5q-18 34 0 73q3 8 27 49l53 92l108 184l107 184l54 91l27 46q17 29 23 42l3 6q7 13 21.5 18t27.5 -2q14 -7 19 -21t-2 -28q-4 -9 -28 -52zM285 341q-10 -7 -22.5 -4.5t-19.5 12.5
q-5 10 -7 18l-2 12q0 3 -0.5 6.5l-1 7t-0.5 5.5q-1 19 0 36q0 32 3 69q0 8 1.5 22t1.5 19q-33 -27 -58 -44q-37 -27 -71 -47q-43 -26 -76 -42q-8 -3 -16.5 0t-11.5 11q-4 8 -1.5 15.5t9.5 12.5h1q29 17 66 45q30 23 63 52q60 53 114 114v0q11 12 27 12.5t27 -10.5
q15 -14 12 -34q-13 -73 -20 -132q-5 -36 -7 -66q-1 -14 -2 -31v-6.5t1 -7.5v-5l-2 2q7 -11 4.5 -23t-12.5 -19z" />
    <glyph glyph-name="onehalf" unicode="&#xbd;" horiz-adv-x="895" 
d="M570 533l-54 -92l-112 -181l-112 -182l-56 -90l-27 -44q-6 -8 -12 -30l-4 -13q-3 -8 -10 -11.5t-14.5 -1.5t-11.5 10q-18 34 -1 73q4 7 27 48l54 92l108 184l107 184l54 92l27 46q16 28 23 41l3 6q6 14 20.5 18.5t28.5 -2.5q13 -6 18 -20.5t-1 -27.5q-4 -9 -28 -52z
M285 312.5q-10 -6.5 -22.5 -4t-19.5 12.5q-5 9 -7 18l-2 11q0 3 -0.5 6.5t-1 7.5t-0.5 6q-1 19 0 36q0 31 3 69q0 7 1.5 21t1.5 20q-33 -27 -58 -45q-37 -26 -71 -47q-43 -26 -76 -41q-8 -4 -16.5 -1t-11.5 11q-4 8 -1.5 16t9.5 12l1 1q29 17 66 45q30 22 63 51
q60 54 114 115v0q11 11 27 11.5t27 -10.5q15 -14 12 -34q-13 -72 -20 -132q-5 -35 -7 -65q-1 -15 -2 -32v-6.5t1 -7.5v-5q-1 2 -2 2q7 -10 4.5 -22.5t-12.5 -19zM626 286q-1 -9 2 -18q1 0 2 -2l1 -2q1 3 4 11.5t5 13.5q4 17 6 30v1q-16 -14 -20 -34zM837 88q6 -6 6.5 -14.5
t-4.5 -14.5q-40 -49 -117 -59q-26 -3 -61 -3l-30 1q-26 1 -31 2q-28 4 -64 19q-1 -1 -2 -1.5t-2 -0.5l-4 -2h-5q-16 -1 -33 0q-27 2 -41 8q-14 7 -21 17q-6 12 -5.5 22.5t4.5 16.5q10 23 34 27q6 2 16 1t12.5 -1.5t9.5 -3t8 -2.5q3 -1 17 -8q35 24 65 76q10 17 23 48
q-16 9 -27 21q-19 20 -21 48q-2 51 35 91q25 23 52 28q21 3 41 -8q18 -11 27 -31q4 -10 6 -19t2 -14t-1 -13t-1 -11q-3 -18 -8 -40q-18 -70 -62 -141q-29 -43 -55 -67q1 0 4 -1t5 -1q4 -1 26 -3l28 -2q31 -2 54 -1q60 5 89 35q6 7 15 7t16 -6z" />
    <glyph glyph-name="threequarters" unicode="&#xbe;" horiz-adv-x="899" 
d="M333 291q-31 -20 -82 -29q-35 -7 -78 -8q-68 -2 -153 11q-9 1 -14.5 8t-3.5 16q1 9 7.5 14t15.5 5q74 -6 145 -1q39 3 70 10q38 8 57 23q10 8 11 13.5t-4 16.5q-11 29 -33 42q-24 13 -53.5 13t-60.5 -10h-2l-3 -1q-14 0 -23.5 10t-9.5 23q0 16 13 26l-1 1q28 15 51 46
q11 14 19.5 30.5t7.5 23.5q-1 6 -7 11q-11 7 -27 9q-27 5 -63 -13l-4 -2q-8 -4 -16.5 -1.5t-12.5 10.5q-7 15 5 26q43 38 95 38q31 -1 55 -14q14 -8 25.5 -24t12.5 -34q3 -25 -11 -58q-7 -15 -19 -33q37 -5 64 -23q40 -27 58 -74q5 -10 6 -26q2 -9 -3 -30q-3 -9 -15 -27
q-15 -15 -19 -18zM834 265q15 -9 15 -27v-1q0 -12 -5 -34t-5 -27q-1 -6 -10 -61q0 -1 -3.5 -24t-4.5 -35q-3 -29 -9 -55l-2 -5q-2 -9 -10 -14t-17 -3q-8 2 -13 8q-20 26 -22 71q0 9 1 26q-6 0 -9 -1l-47 -7q-35 -4 -60 0q-18 2 -36.5 13.5t-28.5 29.5q-9 15 -12 37
q-2 13 -2 30q1 23 7 54q8 47 28 101q5 13 17 18.5t25 1.5q12 -5 18 -16.5t3 -23.5l-1 -2q-13 -44 -20 -90q-3 -23 -4 -44q0 -23 4 -29q3 -5 15 -8q15 -2 39 0q48 3 51 3h11.5h10.5q5 21 10 41q2 5 6 19.5t7.5 24.5t8.5 19q7 11 20 14t24 -4zM649 548l-55 -92l-112 -182
l-112 -181l-55 -91l-27 -44q-6 -8 -13 -30l-4 -13q-2 -7 -9.5 -11t-15 -1.5t-11.5 9.5q-18 34 0 73q3 8 27 48l53 93l108 184l107 184l54 91l27 46q17 29 23 41l3 6q7 14 21.5 18.5t27.5 -1.5q14 -7 19 -21t-2 -28q-4 -9 -28 -52z" />
    <glyph glyph-name="questiondown" unicode="&#xbf;" horiz-adv-x="374" 
d="M263 507q-18 0 -30.5 12t-12.5 28.5t12.5 28t30.5 11.5t30.5 -11.5t12.5 -28t-12.5 -28.5t-30.5 -12zM-25 -72q-6 40 5 78q8 24 22.5 48t22 33.5t29.5 34.5q31 37 87 88q63 57 84 81t32 40q15 24 16 37v4q1 7 6 12t12 4q6 0 11 -4q15 -14 17.5 -38.5t-4.5 -40.5
q-10 -29 -35 -60q-22 -28 -84 -91q-50 -51 -79 -86q-45 -55 -53 -86q-5 -20 -2 -42q1 -12 4 -23q2 -6 7 -12q9 -12 30.5 -21.5t46.5 -12.5q56 -8 95 9q18 8 31 21q10 10 23 36l4 8q4 9 13 12t18 -1q9 -5 12 -15q11 -39 -8 -78q-17 -37 -58 -57q-58 -28 -141 -20
q-42 6 -75.5 19.5t-59.5 45.5q-15 19 -21 41q-5 17 -8 36z" />
    <glyph glyph-name="Agrave" unicode="&#xc0;" horiz-adv-x="495" 
d="M206 875q-30 11 -48 34q-22 27 -19 59q2 29 21 52q5 6 14 7t15 -5q6 -5 7 -14l1 -6q1 -5 2 -17t1.5 -16.5t2.5 -11.5t4 -11q6 -9 21.5 -16.5t33.5 -9.5q60 -7 158 30h1q13 5 18 -8q3 -10 -6 -16q-37 -27 -81 -43q-51 -19 -94 -18q-29 1 -52 10zM200 438q44 7 93 18
q-12 89 -30 164q-12 51 -26 94q-8 -21 -35 -84q-30 -67 -79 -164q-4 -7 -11.5 -21t-10.5 -20q53 6 99 13zM440 60q3 -9 1 -18t-6.5 -16.5t-12.5 -13t-17 -7.5q-18 -4 -34 6.5t-20 28.5q0 1 -1 2q-14 79 -30 195q-7 54 -19 156q-44 -12 -88 -22q-76 -18 -155 -28
q-59 -109 -108 -195q-7 -12 -19.5 -15.5t-24 3t-15 19.5t2.5 24h1q46 81 98 178q-6 9 -7 17q-2 17 8.5 30t26.5 15h3h1q5 9 13 24.5t15 28t12 23.5q49 96 78 162q47 108 58 161l1 3q3 13 14 20t24 4q15 -4 21 -17q38 -75 71 -190q20 -74 35 -163q1 0 3 0.5t4 0.5
q11 4 21.5 -2t13.5 -18q3 -10 -2.5 -20t-15.5 -14q-2 -1 -4.5 -1.5t-5 -1.5t-4.5 -2q16 -101 27 -167q20 -113 36 -189v-1z" />
    <glyph glyph-name="Aacute" unicode="&#xc1;" horiz-adv-x="495" 
d="M124 860q-6 -2 -12 -1t-11 5t-7 10q-6 19 11 28q56 31 123 64l63 29q42 19 66 20q11 0 18.5 -7t8 -18t-7.5 -18q-16 -18 -59 -36l-64 -27q-68 -28 -129 -49zM200 438q44 7 93 18q-12 89 -30 164q-12 51 -26 94q-8 -21 -35 -84q-30 -67 -79 -164q-2 -4 -4.5 -8t-4.5 -8
l-4 -8t-4.5 -8.5t-4.5 -8.5q53 6 99 13zM440 60q4 -19 -6 -35t-28.5 -20t-34.5 6.5t-20 28.5q0 1 -1 2q-14 79 -30 195q-7 54 -19 156q-44 -12 -88 -22q-76 -18 -155 -28q-59 -109 -108 -195q-7 -12 -19.5 -15.5t-24 3t-15 19.5t2.5 24h1q46 81 98 178q-6 9 -7 17
q-2 17 8.5 30t26.5 15h3h1q5 9 13 24.5t15 28t12 23.5q49 96 78 162q47 108 58 161l1 3q3 13 14 20t24 4q15 -4 21 -17q38 -75 71 -190q20 -74 35 -163q1 0 3 0.5t4 0.5q11 4 21.5 -2t13.5 -18q3 -10 -2.5 -20t-15.5 -14q-2 -1 -4.5 -1.5t-5 -1.5t-4.5 -2q16 -101 27 -167
q20 -113 36 -189v-1z" />
    <glyph glyph-name="Acircumflex" unicode="&#xc2;" horiz-adv-x="495" 
d="M426 890q9 -4 13.5 -12.5t1.5 -17.5q-3 -8 -10.5 -12.5t-16.5 -3.5q-31 6 -66 31q-25 17 -51 45q-22 23 -42 51q-1 1 -2.5 3t-1.5 3q-28 -34 -59 -58q-28 -21 -58 -38q-33 -17 -64 -28q-9 -3 -18 1.5t-12 13.5q-1 6 -0.5 11.5t4 10t8.5 6.5l2 1q26 12 51 30t46 39
q43 41 66 94l2 2q7 14 21.5 18.5t28.5 -2.5q11 -6 16 -18q11 -23 27 -51q15 -26 32 -49q41 -56 81 -70h1zM200 438q44 7 93 18q-12 89 -30 164q-12 51 -26 94q-8 -21 -35 -84q-30 -67 -79 -164q-4 -7 -11.5 -21t-10.5 -20q53 6 99 13zM440 61v-1q4 -19 -6 -35t-28.5 -20
t-34.5 6.5t-20 28.5q0 1 -1 2q-14 79 -30 195q-7 54 -19 156q-44 -12 -88 -22q-76 -18 -155 -28q-59 -109 -108 -195q-7 -12 -19.5 -15.5t-24 3t-15 19.5t2.5 24h1q46 81 98 178q-6 9 -7 17q-2 17 8.5 30t26.5 15h3h1q5 9 13 24.5t15 28t12 23.5q49 96 78 162q47 108 58 161
l1 3q3 13 14 20t24 4q15 -4 21 -17q38 -75 71 -190q20 -74 35 -163q1 0 3 0.5t4 0.5q11 4 21.5 -2t13.5 -18q3 -10 -2.5 -20t-15.5 -14q-2 -1 -4.5 -1.5t-5 -1.5t-4.5 -2q16 -101 27 -167q20 -113 36 -189z" />
    <glyph glyph-name="Atilde" unicode="&#xc3;" horiz-adv-x="495" 
d="M97 892q-6 -6 -14.5 -6.5t-13.5 5.5q-7 6 -7 15q1 37 28 60q28 26 69 19q19 -4 37 -12t35.5 -19t22.5 -14q43 -21 74 -19q18 2 30 9q10 6 10 17v6q1 9 7 14.5t14 4.5q11 0 17 -10q9 -17 4.5 -37.5t-17.5 -31.5q-22 -23 -57 -29q-54 -11 -111 15q-13 6 -29.5 15.5
t-27.5 14.5t-20 6q-12 3 -22 0q-9 -2 -24 -18zM200 438q44 7 93 18q-12 89 -30 164q-12 51 -26 94q-8 -21 -35 -84q-30 -67 -79 -164q-4 -7 -11.5 -21t-10.5 -20q53 6 99 13zM440 60q4 -19 -6 -35t-28.5 -20t-34.5 6.5t-20 28.5q0 1 -1 2q-14 79 -30 195q-7 54 -19 156
q-44 -12 -88 -22q-76 -18 -155 -28q-59 -109 -108 -195q-7 -12 -19.5 -15.5t-24 3t-15 19.5t2.5 24h1q46 81 98 178q-6 9 -7 17q-2 17 8.5 30t26.5 15h3h1q5 9 13 24.5t15 28t12 23.5q49 96 78 162q47 108 58 161l1 3q3 13 14 20t24 4q15 -4 21 -17q38 -75 71 -190
q20 -74 35 -163q1 0 3 0.5t4 0.5q11 4 21.5 -2t13.5 -18q3 -10 -2.5 -20t-15.5 -14l-7.5 -2.5t-6.5 -2.5q16 -101 27 -167q20 -113 36 -189v-1z" />
    <glyph glyph-name="Adieresis" unicode="&#xc4;" horiz-adv-x="495" 
d="M97 1006v1q-2 9 0.5 18t9 15.5t15.5 8.5q15 4 27 -3.5t16 -21.5q0 -2 1 -4q4 -31 5 -73q1 -35 0 -71q-1 -11 -9.5 -19t-19.5 -7t-18.5 8.5t-7.5 17.5q-2 33 -7 66q-5 37 -12 64zM292 932l-12 109v2q-2 14 7 25.5t24 13t26 -7.5t13 -24v-7l-10 -111q-1 -10 -8.5 -16.5
t-17.5 -5.5q-9 1 -15 7t-7 14v1zM200 438q44 7 93 18q-12 89 -30 164q-12 51 -26 94q-8 -21 -35 -84q-30 -67 -79 -164q-4 -7 -11.5 -21t-10.5 -20q53 6 99 13zM440 60q4 -19 -6 -35t-28.5 -20t-34.5 6.5t-20 28.5q0 1 -1 2q-14 79 -30 195q-7 54 -19 156q-44 -12 -88 -22
q-76 -18 -155 -28q-59 -109 -108 -195q-7 -12 -19.5 -15.5t-24 3t-15 19.5t2.5 24h1q46 81 98 178q-6 9 -7 17q-2 17 8.5 30t26.5 15h3h1q5 9 13 24.5t15 28t12 23.5q49 96 78 162q47 108 58 161l1 3q3 13 14 20t24 4q15 -3 21 -17q38 -75 71 -190q20 -74 35 -163q1 0 3 0.5
t4 0.5q8 2 15 0.5t12.5 -7t7.5 -13.5q3 -10 -2.5 -20t-15.5 -14l-7.5 -2.5t-6.5 -2.5q16 -101 27 -167q20 -113 36 -189v-1z" />
    <glyph glyph-name="Aring" unicode="&#xc5;" horiz-adv-x="510" 
d="M214 438q45 7 93 18q-12 89 -30 164q-12 51 -26 94q-8 -21 -35 -84q-30 -67 -79 -164q-3 -6 -7 -13t-8 -14.5t-7 -13.5q53 6 99 13zM251 909q-14 1 -26 -7.5t-10 -15.5q-1 -7 10.5 -14.5t25.5 -6.5q14 0 25.5 7t11.5 14q2 7 -10 15.5t-27 7.5zM455 60q4 -19 -6.5 -35
t-29 -20t-34.5 6.5t-20 28.5v2q-14 79 -30 195q-8 54 -20 156q-44 -12 -87 -22q-77 -18 -156 -28q-58 -109 -108 -195q-6 -12 -19 -15.5t-24.5 3t-15 19.5t3.5 24q46 81 98 178q-3 4 -4.5 8.5t-2.5 8.5q-2 17 8.5 30t27.5 15h2h1h1q4 9 12 24.5t15 28t13 23.5q48 96 77 162
q47 108 58 161l1 2q-14 6 -20 9q-32 21 -31.5 56.5t32.5 55.5q24 15 54.5 15t53.5 -15q32 -20 33 -55q0 -36 -32 -57q-11 -7 -25 -12q35 -73 65 -179q20 -74 35 -163q1 0 3.5 0.5t3.5 0.5q11 4 21.5 -2t13.5 -18q3 -10 -2 -20t-16 -14q-2 -1 -7 -2.5t-7 -2.5
q16 -101 27 -167q20 -113 37 -189v-1z" />
    <glyph glyph-name="AE" unicode="&#xc6;" horiz-adv-x="908" 
d="M720 500q8 2 16 -2.5t10 -13.5q4 -17 -12 -25l-243 -109q-16 -8 -33.5 -1.5t-25 23.5t-1 34t23.5 25q3 1 7 2zM214 438q45 7 93 18q-12 89 -30 164q-12 51 -26 94q-8 -21 -35 -84q-30 -67 -79 -164q-3 -6 -7 -13t-8 -14.5t-7 -13.5q53 6 99 13zM818 257q7 7 16.5 6.5
t15.5 -7.5q6 -6 6 -14.5t-5 -15.5q-88 -101 -209 -134q-69 -18 -130 -7q-35 6 -68 28q9 -46 11 -52v-1q2 -12 -1.5 -23.5t-12.5 -20t-21 -11.5q-19 -4 -35 6.5t-20 28.5v2q-14 79 -30 195q-8 54 -20 156q-44 -12 -87 -22q-77 -18 -156 -28q-58 -109 -108 -195
q-6 -12 -19 -15.5t-24.5 3t-15 19.5t3.5 24q46 81 98 178q-6 9 -7 17q-2 17 8.5 30t27.5 15h2h1h1q4 9 12 24.5t15 28t13 23.5q48 96 77 162q47 108 58 161l1 3q3 13 14.5 20t23.5 4q15 -4 22 -17q37 -75 70 -190q2 -7 5 -19.5t3 -14.5l1 43q0 16 12 27t28 11q5 0 13 -3
l425 53q9 1 16 -4.5t8 -14.5q1 -8 -3.5 -15t-12.5 -9l-409 -104l-5 -177l-2 -59q-1 -28 2 -55q6 -62 27 -96q25 -41 72 -51q47 -11 102 1q100 21 189 105z" />
    <glyph glyph-name="Ccedilla" unicode="&#xc7;" horiz-adv-x="622" 
d="M568 125q7 -15 -6 -25q-70 -55 -157 -84q-42 -14 -87 -19l-10 -30q17 1 26 0q20 -1 36 -9q21 -9 28 -30q2 -6 -0.5 -11.5t-8.5 -7.5q-12 -4 -18 6l-1 2q-8 14 -36 12q-25 -2 -51 -13q-9 -4 -17.5 -1t-12.5 11q-3 6 -2 12l1 5l7 52q-23 1 -37 3q-54 5 -95 37
q-39 29 -66 75q-46 78 -53 180q-6 97 33 187t118 146q28 20 59.5 30.5t69 9.5t71.5 -18q26 -14 42 -41t19 -55q6 -46 -9 -99q-4 -13 -15.5 -19.5t-24.5 -2.5t-19.5 15t-3.5 23v3q9 38 3 70q-5 32 -27 42q-24 12 -60 6q-31 -6 -62 -27q-56 -40 -89 -117q-30 -73 -26 -148
q4 -82 43 -148.5t104 -74.5q135 -24 306 62h1q7 4 15 1t12 -10z" />
    <glyph glyph-name="Egrave" unicode="&#xc8;" horiz-adv-x="564" 
d="M159 722q-30 11 -48 34q-22 27 -19 59q1 29 20 51q6 7 14.5 7.5t15.5 -4.5q6 -6 7 -14l1 -6q0 -5 1.5 -17.5t2 -17t2 -11t4.5 -10.5q6 -10 21.5 -17t33.5 -9q60 -7 158 29v1q13 4 18 -9q4 -10 -5 -16q-37 -26 -81 -43q-52 -18 -94 -18q-30 2 -52 11zM375 460q5 1 11 -0.5
t10 -5.5t5 -10q5 -18 -12 -25l-243 -109q-16 -8 -33 -1.5t-24.5 23.5t-1 34t22.5 24q3 2 7 3zM473 217q7 6 16.5 6t15.5 -7q6 -6 6 -15t-5 -15q-88 -101 -209 -134q-68 -18 -130 -7q-35 5 -66.5 26.5t-49.5 52.5q-10 14 -17 31t-11.5 30.5t-8 33t-5 30.5t-2.5 33t-1 30
t0.5 31t0.5 28l3 235q1 17 12.5 28t27.5 11q5 0 13 -3l425 53q9 1 16 -4.5t8 -14.5q1 -8 -3.5 -15t-12.5 -9l-409 -104l-5 -177l-2 -59q0 -29 2 -55q6 -62 28 -96q24 -41 71 -51q47 -11 102 1q100 21 189 105z" />
    <glyph glyph-name="Eacute" unicode="&#xc9;" horiz-adv-x="564" 
d="M153 698q-6 -2 -12 -1t-11 5t-7 10q-6 19 11 29q56 31 123 63l63 29q42 20 66 20q7 0 13 -3t9.5 -9t3.5 -13q1 -10 -7 -18q-16 -18 -59 -36l-64 -27q-68 -28 -129 -49zM375 451q5 2 11 0.5t10 -6t5 -9.5q5 -18 -12 -25l-243 -110q-16 -7 -33 -0.5t-24.5 23t-1 34
t22.5 24.5q3 2 7 3zM473 209q7 6 16.5 6t15.5 -7t6 -15.5t-5 -14.5q-88 -101 -209 -134q-68 -18 -130 -7q-35 5 -66.5 26.5t-49.5 51.5q-10 15 -17 31.5t-11.5 30t-8 33.5t-5 31t-2.5 32.5t-1 29.5t0.5 31.5t0.5 27.5l3 236q1 16 12.5 27.5t27.5 11.5q5 -1 13 -3l425 52
q9 1 16 -4.5t8 -14.5q1 -8 -3.5 -14.5t-12.5 -8.5l-409 -104l-5 -178l-2 -59q0 -28 2 -54q6 -62 28 -96q24 -41 71 -51q47 -11 102 0q100 22 189 105z" />
    <glyph glyph-name="Ecircumflex" unicode="&#xca;" horiz-adv-x="564" 
d="M122 656q-8 -4 -17.5 -1.5t-13.5 11.5q-5 8 -2.5 16.5t9.5 13.5l2 1q23 16 45 38q22 21 40 45q36 47 50 104l1 2q5 15 19 22t28 2q12 -4 20 -15q13 -22 34 -47q19 -24 39 -44q50 -49 91 -56h1q10 -2 15.5 -10t3.5 -17q-1 -9 -8 -14.5t-15 -5.5q-32 1 -71 20
q-27 13 -57 37q-25 19 -50 43q-1 1 -2.5 3t-2.5 2q-22 -37 -49 -65q-24 -26 -51 -47q-30 -23 -59 -38zM375 450q8 2 16 -2.5t10 -12.5q5 -18 -12 -25l-243 -110q-16 -7 -33 -0.5t-24.5 23t-1.5 33.5t23 25q3 1 7 2zM473 208q7 6 16.5 5.5t15.5 -6.5q6 -7 6 -15.5t-5 -14.5
q-88 -101 -209 -135q-68 -17 -130 -7q-23 4 -45 15t-40.5 27.5t-30.5 36.5q-10 15 -17 31.5t-11.5 30t-8 33t-5 31t-2.5 33t-1 29.5t0.5 31.5t0.5 27.5l3 236q1 16 12.5 27.5t27.5 10.5q5 0 13 -2l425 52q9 1 16 -4.5t8 -14.5q1 -8 -3.5 -14.5t-12.5 -8.5l-409 -105l-5 -177
l-2 -59q0 -28 2 -54q6 -62 28 -96q24 -41 71 -51q47 -12 102 0q100 22 189 105z" />
    <glyph glyph-name="Edieresis" unicode="&#xcb;" horiz-adv-x="564" 
d="M136 829q-4 14 3.5 26.5t22 16t26.5 -4t16 -21.5q0 -2 1 -4q4 -31 5 -72q1 -36 0 -71q-1 -12 -9.5 -19.5t-19.5 -6.5q-11 0 -18.5 7.5t-7.5 18.5q-2 33 -7 66q-5 37 -12 64zM331 754l-12 110v1q-1 6 0.5 11.5t4 10t6.5 8.5t9 6.5t11 2.5q15 2 26 -7t13 -24v-7l-10 -112
q-1 -9 -8.5 -15.5t-17.5 -5.5q-9 1 -15 7t-7 14zM375 457q5 2 11 0.5t10 -6t5 -9.5q5 -18 -12 -25l-243 -110q-16 -7 -33 -0.5t-24.5 23t-1 33.5t22.5 25q3 1 7 2zM473 215q7 6 16.5 5.5t15.5 -6.5q6 -7 6 -15.5t-5 -14.5q-88 -101 -209 -135q-68 -17 -130 -7
q-35 6 -66.5 27.5t-49.5 51.5q-10 15 -17 31.5t-11.5 30t-8 33t-5 31t-2.5 33t-1 29.5t0.5 31.5t0.5 27.5l3 236q1 16 12.5 27.5t27.5 10.5q5 0 13 -2l425 52q9 1 16 -4.5t8 -14.5q1 -8 -3.5 -14.5t-12.5 -8.5l-409 -105l-5 -177l-2 -59q0 -28 2 -54q6 -62 28 -96
q24 -41 71 -51q47 -12 102 0q100 22 189 105z" />
    <glyph glyph-name="Igrave" unicode="&#xcc;" horiz-adv-x="168" 
d="M244 648q4 -10 -5 -16q-37 -26 -81 -43q-52 -19 -94 -18q-30 2 -52 11q-30 10 -48 33q-22 27 -20 59q2 30 21 52q6 7 14.5 7.5t15.5 -5.5q6 -5 7 -13l1 -7q0 -4 1.5 -16.5t2 -17t2 -11t4.5 -11.5q6 -9 21.5 -16t33.5 -9q60 -7 158 29q13 5 18 -8zM95 84l1 -2
q4 -13 -2 -25.5t-19 -17t-25 1.5t-17 19q-13 38 -20 103q-5 48 -6 98q-2 95 3 196q1 14 11.5 23.5t25.5 9.5q9 -1 16.5 -6t12 -13t3.5 -18v0q-5 -98 -4 -190q1 -48 5 -94q4 -55 15 -85z" />
    <glyph glyph-name="Iacute" unicode="&#xcd;" horiz-adv-x="143" 
d="M152 720q11 0 18.5 -7t8 -18t-6.5 -18q-17 -18 -60 -36l-63 -27q-69 -28 -130 -49q-9 -4 -17.5 0.5t-11.5 13.5q-7 19 10 28q56 31 123 64l63 29q42 19 66 20zM82 97v-2q5 -13 -1 -25t-19 -16.5t-25.5 1t-16.5 18.5q-14 39 -21 103q-4 48 -5 99q-3 94 3 195q0 14 11 24
t25 9q9 -1 17 -6t12 -13t4 -17v-1q-6 -98 -5 -190q1 -48 5 -93q5 -55 16 -86z" />
    <glyph glyph-name="Icircumflex" unicode="&#xce;" horiz-adv-x="144" 
d="M218 545q10 -3 14 -11.5t1 -17.5t-10.5 -13.5t-16.5 -2.5q-31 6 -66 30q-25 18 -51 46q-22 23 -42 50q-1 1 -2.5 3t-1.5 3q-28 -33 -59 -57q-28 -22 -58 -38q-33 -18 -64 -28q-9 -3 -17.5 1t-12.5 13q-1 6 -0.5 11.5t4 10.5t9.5 7l1 1q26 12 51 30q25 17 47 38
q42 41 65 95h1l1 2q7 14 21.5 18.5t28.5 -2.5q11 -6 16 -18q11 -23 27 -52q15 -26 32 -49q41 -56 81 -69zM89 107l1 -1q3 -9 1.5 -17.5t-7.5 -15t-14 -9.5q-13 -5 -25.5 1t-16.5 19q-14 38 -21 103q-4 47 -5 98q-3 95 2 196q1 14 11.5 23.5t25.5 8.5q9 0 17 -5t12 -13t4 -18
v-1q-6 -98 -5 -189q1 -49 5 -94q5 -55 15 -86z" />
    <glyph glyph-name="Idieresis" unicode="&#xcf;" horiz-adv-x="165" 
d="M-13 699q1 -2 1 -4q4 -31 5 -72q2 -36 0 -71q-1 -12 -9.5 -19.5t-19.5 -6.5q-11 0 -18.5 7.5t-7.5 18.5q-2 33 -7 66q-5 37 -12 64q-2 9 0.5 18t9 15.5t16.5 9.5q14 3 26.5 -4.5t15.5 -21.5zM172 726v-7l-10 -112q-1 -10 -8.5 -16t-17.5 -5q-9 0 -15 6t-7 15l-12 110v1
q-2 15 7.5 26.5t24 13t25.5 -7.5t13 -24zM102 117v-2q5 -13 -1 -25.5t-19 -16.5q-9 -3 -17.5 -1.5t-15 7.5t-9.5 14q-14 39 -21 103q-4 48 -5 99q-3 94 3 195q0 14 11 23.5t25 9t23.5 -11t9.5 -25.5v0q-6 -98 -5 -190q1 -48 5 -94q5 -55 16 -85z" />
    <glyph glyph-name="Eth" unicode="&#xd0;" horiz-adv-x="670" 
d="M594 382q26 -60 25 -113q-2 -39 -15 -64q-11 -24 -36 -51q-29 -31 -86 -68q-87 -58 -196 -77q-25 -4 -50 -5q-9 -4 -17 -3q-2 0 -7 2q-20 1 -35 3q-22 2 -56 16l-27 16q-3 2 -6.5 5t-8 7t-6.5 6q-48 44 -56 99q-8 59 26 109q4 6 11 7.5t14 -2.5q13 -9 5 -23l-1 -2
q-21 -40 -9 -80q10 -38 47 -66q1 -1 7.5 -6t9.5 -7l17 -8q28 -7 40 -7h5.5h5.5q9 113 7 211v6.5t-1 7.5q-8 4 -19.5 10.5t-18 9.5t-14.5 6.5t-14 3.5q-13 3 -22 0q-9 -2 -25 -18l-5 -5q-6 -6 -14 -6.5t-14 5.5t-6 15q1 37 27 60q28 26 69 18q25 -3 52 -18q0 4 -0.5 13
t-0.5 14q-6 70 -16 119v1q-3 18 7 33t28 19q12 2 23 -2t18.5 -13t10.5 -20v-2q7 -54 10 -130q1 -9 1 -73q20 -5 36 -4q19 2 30 9q10 6 11 17v6q0 9 6 14.5t15 4.5q11 0 16 -10q9 -17 4.5 -37.5t-17.5 -32.5q-21 -22 -56 -28q-20 -4 -46 -2q-3 -91 -16 -194q2 1 3.5 1
t3.5 0.5t3 0.5q69 19 168 75q46 29 69 55q27 30 28 61q1 70 -64 153q-49 65 -137 121q-62 39 -171 77q-54 17 -88 19q-6 0 -12 -0.5t-8.5 -1.5t-2.5 0l-1 -5q1 -6 5 -15l1 -2q5 -8 2 -17.5t-11 -14.5q-8 -4 -16.5 -2t-13.5 10q-4 4 -6.5 8.5t-5 10t-3.5 11.5q-6 24 4 43
q13 20 34 26q11 4 32 6q37 2 107 -13q112 -28 193 -74q100 -56 163 -135q32 -39 57 -94z" />
    <glyph glyph-name="Ntilde" unicode="&#xd1;" horiz-adv-x="645" 
d="M79 616q-6 -6 -14 -6.5t-14 5.5q-7 6 -6 15q1 37 27 60q28 26 69 18q19 -3 37 -11t35.5 -19t22.5 -14q43 -21 74 -19q19 2 30 9q10 6 10 16l1 7q0 8 6 14t15 5q10 0 16 -10q9 -17 4.5 -37.5t-17.5 -32.5q-21 -22 -56 -29q-55 -10 -112 16q-11 5 -23.5 12t-20.5 11.5
t-16.5 8t-16.5 4.5q-12 2 -22 0q-8 -2 -24 -18zM584 429q12 -100 7 -174q-3 -50 -16 -91q-15 -52 -53 -87q-37 -36 -89.5 -48.5t-101.5 0.5q-52 14 -90 50q-25 25 -57 72q-40 62 -83 141v-12.5v-9.5q0 -122 -9 -229q-1 -17 -15 -29t-31 -10q-17 1 -28 12.5t-12 27.5
q-7 106 -5 229q3 107 3 114l3 57q1 21 10 38q5 20 23 28q16 9 34 3t27 -23v-1l1 -1q82 -181 151 -289q26 -41 45 -60q22 -22 53 -31q30 -9 63 -1.5t55 28.5q38 35 43 127q3 60 -9 158q-7 50 -29 160q-8 36 -19 80l-10 39q0 1 -1.5 5.5l-2 6t-1 5.5t0 6t1 6t2.5 7.5t5 7.5
l1 1q17 23 44 13l8 -4t6.5 -4.5t4 -4.5t3.5 -6t2.5 -5.5t1.5 -6t2 -5.5l12 -41q12 -44 21 -82q17 -71 29 -167z" />
    <glyph glyph-name="Ograve" unicode="&#xd2;" horiz-adv-x="686" 
d="M272 673q-30 11 -48 34q-22 27 -20 59q2 29 21 52q6 6 14.5 6.5t15.5 -4.5q6 -6 7 -14l1 -6q0 -5 1.5 -17t2 -17t2 -11.5t4.5 -10.5q6 -10 21.5 -17t33.5 -9q60 -7 158 30q13 5 18 -8q4 -10 -5 -17q-37 -26 -81 -42q-52 -19 -94 -18q-30 1 -52 10zM548 304q5 38 -14 77
q-15 30 -53 75q-73 79 -150 86q-79 8 -153 -61q-36 -33 -57 -72q-23 -38 -26 -83l-1 -5q0 -10 -6.5 -16.5t-16.5 -7.5q3 -27 8 -49q12 -49 38 -82q26 -34 68 -51.5t90 -14.5q91 3 174 62q40 29 67 66t32 76zM611 417q28 -63 18 -126q-8 -55 -51 -111q-37 -47 -86 -79
q-103 -69 -216 -69q-65 0 -116 21q-58 23 -96 73q-59 78 -63 218q-1 14 9 24.5t24 10.5q2 0 8 -1q10 81 79 159q42 47 95 72q62 28 124 21q111 -11 206 -116q44 -52 65 -97z" />
    <glyph glyph-name="Oacute" unicode="&#xd3;" horiz-adv-x="686" 
d="M223 663q-6 -2 -12 -0.5t-11 5.5t-7 10q-6 19 11 28q56 31 123 63l62 29q42 20 67 21q7 0 13 -3.5t9.5 -9t3.5 -12.5q0 -11 -7 -19q-17 -17 -60 -35l-63 -27q-68 -29 -129 -50zM548 310q5 38 -14 77q-15 30 -53 75q-73 79 -150 86q-79 8 -153 -61q-36 -33 -57 -72
q-23 -38 -26 -83l-1 -5q0 -10 -6.5 -16.5t-16.5 -7.5q3 -27 8 -49q12 -49 38 -82q26 -34 68 -51.5t90 -14.5q91 3 174 62q40 29 67 66t32 76zM611 423q28 -63 18 -126q-8 -55 -51 -111q-37 -47 -86 -79q-103 -69 -216 -69q-65 0 -116 21q-58 23 -96 73q-59 78 -63 218
q-1 14 9 24.5t24 10.5q2 0 8 -1q10 81 79 159q42 47 95 72q62 28 124 21q111 -11 206 -116q44 -52 65 -97z" />
    <glyph glyph-name="Ocircumflex" unicode="&#xd4;" horiz-adv-x="686" 
d="M146 655q-8 -4 -17.5 -1t-14.5 11q-4 8 -1.5 16.5t9.5 13.5l1 1q24 16 46 38q22 21 40 45q36 47 50 104l1 2q5 15 18.5 22t28.5 2q12 -4 19 -15q14 -22 35 -47q19 -24 39 -44q49 -48 90 -56h2q10 -2 15.5 -10t3.5 -17q-1 -9 -8 -14.5t-15 -4.5q-32 0 -71 19
q-27 14 -57 37q-26 20 -50 43q-1 1 -2 3l-3 2q-22 -37 -49 -65q-24 -26 -51 -47q-30 -23 -59 -38zM548 332q5 38 -14 78q-15 30 -53 74q-73 80 -150 86q-79 9 -153 -61q-36 -32 -57 -71q-23 -39 -26 -83l-1 -6q0 -9 -6.5 -15.5t-16.5 -7.5q3 -28 8 -50q12 -49 38 -82
q26 -34 68 -51t90 -15q91 3 174 63q40 28 67 65t32 76zM611 446q28 -63 18 -126q-8 -56 -51 -112q-37 -47 -86 -79q-103 -69 -216 -68q-65 0 -116 20q-58 23 -96 73q-59 78 -63 218q-1 7 1.5 13.5t7 11t11 7.5t13.5 3q2 1 8 -1q10 82 79 159q42 48 95 72q62 28 124 22
q111 -11 206 -116q44 -53 65 -97z" />
    <glyph glyph-name="Otilde" unicode="&#xd5;" horiz-adv-x="686" 
d="M174 697q-5 -6 -13.5 -6t-14.5 5q-6 6 -6 15q1 38 27 61q29 25 69 18q20 -3 38 -11.5t35.5 -19.5t22.5 -13q42 -22 74 -20q18 2 30 9q9 7 10 17v7q1 8 7 13.5t14 5.5q11 -1 16 -11q9 -17 5 -37.5t-18 -31.5q-21 -22 -56 -29q-54 -10 -111 16q-13 6 -30 15.5t-27.5 14.5
t-19.5 6q-12 2 -22 0q-9 -2 -24 -18zM548 309q5 38 -14 77q-15 30 -53 75q-73 80 -150 86q-79 9 -153 -61q-36 -33 -57 -72q-23 -38 -26 -82l-1 -6q0 -10 -6.5 -16.5t-16.5 -6.5q3 -28 8 -50q12 -49 38 -82q26 -34 68 -51t90 -15q91 3 174 63q40 28 67 65t32 76zM611 423
q28 -64 18 -126q-8 -56 -51 -112q-37 -47 -86 -79q-103 -69 -216 -68q-65 0 -116 20q-58 23 -96 73q-59 78 -63 218q-1 14 9 24.5t24 10.5q2 0 8 -1q10 82 79 159q42 48 95 72q62 28 124 22q111 -12 206 -117q44 -52 65 -96z" />
    <glyph glyph-name="Odieresis" unicode="&#xd6;" horiz-adv-x="686" 
d="M152 822q-2 10 0.5 19t9 15.5t15.5 8.5q15 4 27 -3.5t16 -22.5q0 -1 1 -3q4 -31 5 -73q1 -35 0 -71q-1 -11 -9.5 -19t-19.5 -7q-11 0 -18.5 8t-7.5 18q-2 33 -7 66q-5 37 -12 64zM347 748l-12 109v2q-2 14 7 25.5t23.5 13t26 -7.5t13.5 -24v-7l-10 -111
q-1 -10 -8.5 -16.5t-17.5 -5.5q-9 1 -15 7t-7 14v1zM548 317q5 38 -14 77q-15 30 -53 74q-73 80 -150 87q-79 8 -153 -62q-36 -32 -57 -71q-23 -38 -26 -83l-1 -6q0 -9 -6.5 -15.5t-16.5 -7.5q3 -28 8 -49q12 -49 38 -82q26 -35 68 -52t90 -14q91 2 174 62q40 28 67 65.5
t32 76.5zM611 430q28 -63 18 -126q-8 -55 -51 -112q-37 -46 -86 -78q-103 -69 -216 -69q-65 0 -116 21q-58 23 -96 73q-59 78 -63 218q-1 9 3.5 17t12.5 13t17 5q2 0 8 -1q10 81 79 159q42 47 95 72q62 28 124 21q111 -11 206 -116q44 -52 65 -97z" />
    <glyph glyph-name="multiply" unicode="&#xd7;" horiz-adv-x="513" 
d="M454 51q11 -13 6 -27q-1 -7 -6 -12q-1 -1 -3 -2q-14 -11 -30 -2q-15 8 -23 14q-9 8 -15 13q-10 8 -26 24l-2 2q-30 28 -52 51q-33 34 -71 74q-45 -42 -76 -71l-14 -14q-25 -24 -37 -36l-3 -3q-15 -15 -21 -22q-5 -5 -10 -12l-5 -5q-1 -2 -2 -3l-13 -11q-13 -11 -28 -6
q-6 2 -11 6q-1 2 -2 3q-11 14 -3 30q8 15 15 23q7 9 13 15q8 10 24 26l1 2q28 30 52 53q34 33 76 73l-84 92q-31 34 -46 49q-4 2 -13 11q-25 21 -34 33l-5 7q-7 9 -4 19q2 7 8 10q7 5 15 4q33 -5 72 -39q19 -17 52 -51l86 -92l91 82q34 31 48 47q3 3 11 13q22 24 33 33l7 5
q9 8 20 4q6 -2 10 -8q5 -6 4 -14q-5 -33 -40 -73q-16 -19 -50 -51l-90 -85q40 -43 70 -74l13 -13q24 -26 36 -38l3 -2l22 -22q5 -4 12 -10q2 -2 5 -4l3 -3z" />
    <glyph glyph-name="Oslash" unicode="&#xd8;" horiz-adv-x="657" 
d="M534 316q5 38 -14 78q-15 30 -54 74q-6 7 -14 15q-1 -1 -3.5 -4t-3.5 -5l-121 -153q-71 -88 -117 -148l-16 -20q-3 -4 -6.5 -8.5t-7.5 -9.5t-6 -8q41 -17 89 -14q92 2 175 62q40 28 67 65.5t32 75.5zM64 261q13 -49 38 -82q1 -2 17 -17q22 30 38 51q50 65 118 150
l122 150q1 1 3.5 4t3.5 5q-44 29 -87 33q-79 8 -153 -62q-37 -32 -58 -71q-23 -38 -25 -83l-1 -6q0 -9 -7 -15.5t-16 -7.5q2 -28 7 -49zM597 430q28 -63 18 -126q-9 -56 -52 -112q-36 -46 -85 -78q-103 -69 -216 -69q-65 0 -116 21q-2 0 -16 7q0 -1 -3 -5t-5 -6
q-5 -7 -11 -17q-3 -3 -5 -7q-1 -3 -3 -4l-15 -18q-14 -16 -30 -16q-8 0 -13 5q-1 1 -3 2q-12 12 -2 34q8 20 16 31q8 14 14 23q2 2 5.5 6.5t3.5 5.5q-18 17 -29 31q-59 79 -64 218q0 15 9.5 25t24.5 11q2 0 8 -2q9 82 78 160q43 47 96 72q61 28 124 21q68 -7 132 -51
q1 1 3 4t3 5q24 36 37 50l7 8q11 11 22 10q8 0 12 -6q5 -6 4 -16q-5 -39 -41 -93q15 -14 27 -27q43 -52 65 -97z" />
    <glyph glyph-name="Ugrave" unicode="&#xd9;" horiz-adv-x="572" 
d="M206 673q-30 10 -48 34q-22 27 -19 59q1 29 21 51q5 7 14 7.5t15 -5.5q6 -5 7 -13l1 -6q1 -6 1.5 -14.5t1 -13.5t1.5 -11t2.5 -10t3.5 -7q6 -10 21.5 -17t33.5 -9q60 -7 158 29l1 1q13 4 17 -9q4 -10 -5 -16q-37 -26 -81 -43q-51 -18 -94 -18q-30 2 -52 11zM496 140
q7 -2 11.5 -6.5t7 -10t3.5 -12t-2 -12.5q-4 -13 -16 -19t-25 -1v0q-59 21 -90 80q-17 -24 -31 -42q-31 -38 -63 -64q-46 -36 -89 -44q-27 -7 -57 0.5t-51 24.5q-39 29 -59 83q-15 41 -21.5 82t-9.5 92q-5 151 24 335q2 18 16.5 28.5t32 7.5t28 -17t7.5 -32v-2
q-30 -175 -27 -317q4 -94 24 -148q7 -22 19.5 -37t27.5 -21.5t31 -3.5q49 9 109 81q40 48 60 85q-7 46 -4 97q6 72 19 140q8 38 20 69q6 19 15 36q6 10 11 18q7 9 9 10q3 4 5 5q7 5 11 8q12 6 24 2t18 -16q3 -4 4 -9v-1q3 -23 4 -44.5t-1 -47.5t-4 -39.5t-6 -43.5
q-15 -87 -39 -164q-10 -28 -16 -41q1 -1 1.5 -4t0.5 -5q11 -30 26 -49q17 -22 37 -29z" />
    <glyph glyph-name="Uacute" unicode="&#xda;" horiz-adv-x="572" 
d="M185 657q-10 -3 -18.5 1t-11.5 14q-7 18 11 28q56 31 122 63l63 29q42 20 66 21q7 0 13 -3.5t10 -9.5t4 -13q0 -10 -7 -18q-17 -18 -60 -36l-63 -27q-69 -28 -129 -49zM496 140q13 -4 19 -16.5t1.5 -25t-16.5 -18.5t-25 -1v0q-59 21 -90 80q-17 -24 -31 -42
q-31 -38 -63 -64q-46 -36 -89 -44q-27 -7 -57 0.5t-51 24.5q-39 29 -59 83q-15 41 -21.5 82t-9.5 92q-5 151 24 335q2 18 16.5 28.5t32 7.5t28 -17t7.5 -32v-2q-30 -175 -27 -317q4 -94 24 -148q11 -33 32.5 -50t45.5 -12q49 9 109 81q40 48 60 85q-7 46 -4 97q6 72 19 140
q8 38 20 69q6 19 15 36q6 10 11 18q7 9 9 10q3 4 5 5q7 5 11 8q12 6 24 2t18 -16q3 -4 4 -9v-1q3 -23 4 -44.5t-1 -47.5t-4 -39.5t-6 -43.5q-15 -87 -39 -164q-10 -28 -16 -41q1 -1 1.5 -4t0.5 -5q11 -30 26 -49q17 -22 37 -29z" />
    <glyph glyph-name="Ucircumflex" unicode="&#xdb;" horiz-adv-x="572" 
d="M119 702q-7 -1 -12.5 0t-10.5 5t-7 10q-1 5 -1 9t2 8t5 7t7 5l1 1q26 12 52 29q24 17 46 38q43 41 67 94l1 3q7 13 21.5 17.5t28.5 -2.5q12 -6 17 -18q10 -23 26 -52q15 -26 32 -49q40 -56 80 -70l1 -1q10 -3 14 -12t1 -18q-3 -8 -10.5 -12.5t-16.5 -2.5q-31 6 -66 31
q-25 18 -51 46q-21 23 -42 51q0 1 -1.5 3t-2.5 2q-28 -33 -59 -56q-28 -22 -58 -38q-33 -17 -64 -28zM496 140q13 -4 19 -16.5t1.5 -25t-16.5 -18.5t-25 -1v0q-59 21 -90 80q-17 -24 -31 -42q-31 -38 -63 -64q-22 -16 -43 -27.5t-46 -16.5q-27 -7 -57 0.5t-51 24.5
q-39 29 -59 83q-25 66 -31 174q-5 151 24 335q2 18 16.5 28.5t32 7.5t28 -17t7.5 -32v-2q-30 -175 -27 -317q4 -94 24 -148q11 -33 32.5 -50t45.5 -12q49 9 109 81q40 48 60 85q-7 46 -4 97q6 72 19 140q8 38 20 69q6 19 15 36q6 10 11 18q7 9 9 10q3 4 5 5q7 5 11 8
q12 6 24 2t18 -16q3 -4 4 -9v-1q3 -23 4 -44.5t-1 -47.5t-4 -39.5t-6 -43.5q-15 -87 -39 -164q-10 -28 -16 -41q1 -1 1 -2.5t0.5 -3t0.5 -3.5q11 -30 26 -49q17 -22 37 -29z" />
    <glyph glyph-name="Udieresis" unicode="&#xdc;" horiz-adv-x="572" 
d="M156 809q-4 14 3.5 26.5t22 16t27 -4t15.5 -21.5q1 -2 1 -3q4 -31 5 -73q1 -35 0 -71q-1 -11 -9.5 -19t-19.5 -7q-11 0 -18.5 7.5t-7.5 18.5q-2 33 -7 66q-5 37 -12 64zM351 735l-12 109v1q-2 15 7.5 26.5t24 13t25.5 -7.5t13 -24v-7l-10 -111q-1 -10 -8.5 -16.5
t-17.5 -5.5q-9 1 -15 7t-7 14v1zM496 140q13 -4 19 -16.5t1.5 -25t-16.5 -18.5t-25 -1v0q-59 21 -90 80q-17 -24 -31 -42q-31 -38 -63 -64q-22 -16 -43 -27.5t-46 -16.5q-27 -7 -57 0.5t-51 24.5q-39 29 -59 83q-15 41 -21.5 82t-9.5 92q-5 151 24 335q2 18 16.5 28.5
t32 7.5t28 -17t7.5 -32v-2q-30 -175 -27 -317q4 -94 24 -148q11 -33 32.5 -50t45.5 -12q49 9 109 81q40 48 60 85q-7 46 -4 97q6 72 19 140q8 38 20 69q6 19 15 36q6 10 11 18q7 9 9 10q3 4 5 5q7 5 11 8q12 6 24 2t18 -16q3 -4 4 -9v-1q3 -23 4 -44.5t-1 -47.5t-4 -39.5
t-6 -43.5q-15 -87 -39 -164q-10 -28 -16 -41q1 -1 1.5 -4t0.5 -5q11 -30 26 -49q17 -22 37 -29z" />
    <glyph glyph-name="Yacute" unicode="&#xdd;" horiz-adv-x="482" 
d="M205 683q-9 -3 -18 1.5t-12 13.5q-6 19 11 28q56 31 123 63l62 29q42 20 67 21q7 0 13 -3.5t9.5 -9t3.5 -12.5q0 -11 -7 -19q-17 -17 -60 -35l-63 -27q-68 -29 -129 -50zM577 665q8 -6 9.5 -15t-2.5 -17q-57 -95 -112 -178q-94 -143 -117 -174q-81 -115 -126 -170
q-41 -49 -87 -76q-63 -36 -120 -27q-10 1 -15.5 9t-4.5 18q2 15 18 19l8 2q36 9 74 39q32 24 68 66q37 44 95 122q-12 2 -19 11l-202 239q-13 15 -11.5 35.5t17.5 33.5t36 11.5t33 -17.5q2 -2 3 -4l177 -258v-2l1 -1l118 161l125 168q6 8 16 9.5t18 -4.5z" />
    <glyph glyph-name="Thorn" unicode="&#xde;" 
d="M611 199v28q0 3 -0.5 6t-1.5 5.5t-4 4t-7 1.5q-5 0 -9 -2.5t-7 -6.5q-1 4 -4 6.5t-8 2.5t-9.5 -2.5t-6.5 -6.5v8h-10v-44h11v26q1 4 4 6.5t6 2.5t5 -2.5t2 -7.5v-25h11v26q1 4 4 6.5t6.5 2.5t5 -2.5t1.5 -7.5v-25h11zM523.5 226q0.5 -2 0.5 -5t-0.5 -5.5t-2.5 -4.5
t-4 -2.5t-4.5 -0.5t-4.5 0.5t-3.5 2.5t-2.5 4.5t-1 5.5t1 5t2.5 4t3.5 3t4.5 1t4.5 -1t4 -3t2.5 -4zM536 221.5q0 4.5 -1.5 8.5t-4.5 7t-7 5t-9.5 2t-10 -2t-7 -5t-4.5 -7t-2 -8.5t2 -8.5t4.5 -7.5t7 -5t10 -1.5t9.5 1.5t7 5t4.5 7.5t1.5 8.5zM460 472l61 -58v76l-61 55v-73
zM487 210l-11 3q-1 -2 -3.5 -3.5t-5.5 -1.5t-5 1t-3.5 3t-2.5 4t-1 5t1 5.5t2.5 4t3.5 2.5t5 1q2 0 4.5 -1t4.5 -4l11 4q-3 5 -8 8t-12 3q-6 0 -10 -2t-7 -5t-4.5 -7t-1.5 -8.5t1.5 -8.5t4.5 -7.5t7.5 -5t9.5 -1.5q7 0 12 3t8 8zM437 211h-10v-12h10v12zM403.5 228.5
q1.5 -1.5 1.5 -3.5v-10q0 -2 -1.5 -3l-3 -2t-3 -1.5t-2.5 -0.5q-3 0 -5.5 1t-4 2.5t-2 4t-0.5 5t0.5 5t2 4.5t3.5 3t5 1q2 0 3.5 -1l3 -2t3 -2.5zM419 209q-1 0 -1.5 1t-0.5 2v48h-11v-25q-3 4 -6.5 6.5t-8.5 2.5q-4 0 -8 -2t-6.5 -5t-4 -7t-1.5 -8.5t1.5 -9t4.5 -7.5
t7 -4.5t8.5 -1.5t8.5 2t6 6v-3q1 -2 3 -3.5t5 -1.5h4v10zM354 226q1 -2 1 -5t-1 -5.5t-2.5 -4.5t-3.5 -2.5t-4.5 -0.5t-4.5 0.5t-3.5 2.5t-2.5 4.5t-1 5.5t1 5t2.5 4t3.5 3t4.5 1t4.5 -1t3.5 -3t2.5 -4zM366 221.5q0 4.5 -1.5 8.5t-4.5 7t-7 5t-9.5 2t-9.5 -2t-7 -5t-4.5 -7
t-1.5 -8.5t1.5 -8.5t4.5 -7.5t7 -5t9.5 -1.5t9.5 1.5t7 5t4.5 7.5t1.5 8.5zM319 244h-1h-1q-2 0 -3.5 -1t-3.5 -2t-3.5 -3t-2.5 -4v9h-11v-44h12v27q1 4 5 5.5t9 1.5v11zM273 226q1 -2 1 -5t-1 -5.5t-2.5 -4t-3.5 -2.5t-4 -1q-4 0 -7 2.5t-5 5.5v10q1 2 2 3.5t2.5 2.5t3 1.5
t3.5 0.5t4.5 -1t4 -3t2.5 -4zM286 221.5q0 4.5 -1.5 8.5t-4.5 7t-6.5 5t-8.5 2t-8.5 -2.5t-6.5 -5.5v7h-10v-61h12v25q2 -4 6 -6t9 -2q4 0 7.5 1.5t6 4.5t4 7.5t1.5 9zM231 227q0 3 -0.5 6t-2 5.5t-4 4t-6.5 1.5q-6 0 -10.5 -2.5t-7.5 -6.5v8h-10v-44h11v26q1 2 2 3.5t3 3
t3.5 2t3.5 0.5q3 0 5 -2.5t2 -7.5v-25h11v28zM320 299v84v107l201 -191v84l-261 247v-17v-174l-90 85v-83zM184 243h-10l-11 -34l-11 34h-12l16 -44h12zM138 212q0 3 -1 5t-3 3.5t-5 2.5t-8 3q-2 0 -4 0.5t-3 1t-1.5 1.5t-0.5 2q0 3 2 4t5 1t6 -1t7 -4l4 7q-3 3 -7.5 4.5
t-9.5 1.5q-3 0 -6.5 -1t-5.5 -3t-3.5 -4.5t-1.5 -5.5t1 -5t2.5 -3t4.5 -2t8 -3q5 -1 7 -2t2 -3.5t-2 -3.5t-5 -1q-4 0 -7.5 1.5t-7.5 3.5l-4 -7q3 -3 8.5 -4.5t10.5 -1.5q8 0 13 3.5t5 9.5zM716 358q0 -97 -47.5 -179.5t-130.5 -130.5t-180 -48t-179.5 48t-130.5 130.5
t-48 179.5t48 179.5t130.5 130.5t179.5 48t180 -48t130.5 -130.5t47.5 -179.5z" />
    <glyph glyph-name="germandbls" unicode="&#xdf;" horiz-adv-x="790" 
d="M730 190q15 -48 -5 -97q-15 -39 -51 -73q-55 -49 -138 -76q-74 -24 -152 -20q-83 3 -149 29q-47 20 -70 45q-22 24 -19 52q4 26 28 45q7 6 16.5 5t16.5 -9q5 -7 4.5 -16t-7.5 -16q-9 -8 -8 -14q1 -5 7 -11q17 -15 52 -25q60 -19 129 -17q67 2 127 24q66 25 105 64
q44 45 29 85q-15 44 -71 63q-95 30 -256 2q-18 -4 -34 6t-20 28q-4 19 7 36q57 85 99 154q29 50 39 76q16 42 16 75q1 38 -16 56q-4 6 -13 11.5t-19 9t-19 3.5q-17 2 -36 -10t-35.5 -32t-29.5 -46q-10 -22 -19.5 -47.5t-23 -67.5t-17.5 -54l-57 -178q-61 -191 -116 -354
q-4 -11 -15 -7q-10 3 -8 13q40 180 85 364l46 181l24 90q19 68 32 94q26 55 59 88q49 51 112 50q69 -2 114 -49q42 -43 42 -116q-1 -48 -21 -106q-14 -38 -45 -91q-20 -33 -47 -74q37 3 46 3q91 1 156 -21q44 -16 76 -45q36 -35 50 -80z" />
    <glyph glyph-name="agrave" unicode="&#xe0;" horiz-adv-x="395" 
d="M-4 512q-11 7 -20 16.5t-15.5 23t-6.5 27.5q-3 39 25 67q7 6 16.5 6t16.5 -6q6 -6 6 -15l1 -10q3 -30 4 -33q4 -10 13 -19q25 -20 80 -22q76 -5 196 28h1q6 2 12 -1.5t7 -9.5q4 -12 -7 -18q-47 -26 -100 -43q-65 -19 -110 -20q-75 1 -119 29zM161 116q36 35 52 89t3 101
v1q-1 6 -1 13l-1 1l-2 2l-2 2q-15 21 -36 34t-40 11q-35 0 -82 -47q-38 -40 -47 -90q-10 -54 15 -96q24 -41 67 -50q37 -8 74 29zM441 82q7 -13 -5 -23q-26 -22 -66 -33q-39 -9 -74 -4q-21 3 -39.5 16.5t-30.5 31.5q-1 -1 -3.5 -4.5t-4.5 -5.5q-28 -30 -63 -45
q-40 -18 -83 -10q-40 7 -73 34t-48 63q-28 66 -14 144q15 77 64 126q26 25 58 42q37 20 75 18q40 -1 74 -26q28 -22 47 -57q0 -1 1 -6q13 -4 18 -16q26 -65 9 -141q0 -2 -1 -4.5t-1.5 -5t-1.5 -4.5q3 -8 4 -10q0 -5 -1 -10q-2 -24 6 -44q7 -20 22 -26q23 -9 52 -7
q29 1 51 13l3 2q7 3 14 1t11 -9z" />
    <glyph glyph-name="aacute" unicode="&#xe1;" horiz-adv-x="395" 
d="M26 482q-4 -1 -9 -1t-9 2t-7 5.5t-5 8.5q-6 18 11 28q56 31 123 63l63 29q41 20 66 21q7 0 13 -3.5t9.5 -9t3.5 -12.5q1 -11 -7 -19q-17 -18 -59 -35l-64 -28q-68 -28 -129 -49zM161 116q36 35 52 89t3 101v1q-1 6 -1 13l-1 1l-2 2l-2 2q-15 21 -36 34t-40 11
q-35 0 -83 -47q-37 -40 -46 -90q-10 -54 15 -96q24 -41 67 -50q37 -8 74 29zM441 82q7 -13 -5 -23q-26 -22 -66 -33q-39 -9 -74 -4q-21 3 -39.5 16.5t-30.5 31.5q-1 -1 -3.5 -4.5t-4.5 -5.5q-28 -30 -63 -45q-40 -18 -83 -10q-40 7 -73 34t-48 63q-28 66 -14 144
q15 77 64 126q26 25 58 42q37 20 75 18q40 -1 74 -26q28 -22 46 -57q1 -1 2 -6q13 -4 18 -16q26 -65 9 -141q0 -3 -1.5 -7.5t-2.5 -6.5q3 -8 4 -10q0 -5 -1 -10q-2 -24 6 -44q7 -20 22 -26q23 -9 52 -7q29 1 51 13l3 2q7 3 14 1t11 -9z" />
    <glyph glyph-name="acircumflex" unicode="&#xe2;" horiz-adv-x="406" 
d="M-38 476q-9 -3 -17.5 1t-12.5 13q-2 9 1.5 17t11.5 12l1 1q26 12 51 30q25 17 47 38q42 41 65 95h1l1 2q7 14 21.5 18.5t28.5 -2.5q11 -6 16 -18q11 -23 27 -52q15 -26 32 -49q41 -56 81 -69l1 -1q10 -3 14 -11.5t1 -18.5q-3 -8 -10.5 -12.5t-16.5 -2.5q-31 6 -66 30
q-25 18 -51 46q-22 23 -42 50q-1 1 -2.5 3t-1.5 3q-28 -33 -59 -57q-28 -22 -58 -38q-33 -18 -64 -28zM173 116q35 35 51.5 89t3.5 101v1q-2 6 -1 13l-1 1l-2 2l-2 2q-15 21 -36 34t-41 11q-34 0 -82 -47q-38 -40 -46 -90q-11 -54 15 -96q24 -40 66 -50q37 -8 75 29zM453 82
q7 -13 -5 -23q-27 -22 -66 -33q-40 -9 -75 -4q-20 3 -39 16.5t-30 31.5q-1 -1 -3.5 -4.5t-4.5 -5.5q-28 -30 -63 -45q-40 -18 -83 -10q-27 4 -51.5 18.5t-42 34.5t-27.5 44q-28 66 -14 144q14 77 64 126q26 25 58 42q37 20 75 18q40 -1 73 -26q28 -22 47 -57q1 -1 2 -6
q13 -4 18 -16q26 -65 9 -141l-2.5 -7.5t-1.5 -6.5q3 -8 3 -10q1 -5 0 -10q-3 -24 5 -44t23 -26q22 -9 52 -7q28 1 51 13l3 2q7 3 14 1t11 -9z" />
    <glyph glyph-name="atilde" unicode="&#xe3;" horiz-adv-x="395" 
d="M-20 530q-5 -6 -13.5 -6.5t-14.5 5.5t-6 15q1 37 27 60q29 26 69 19q20 -3 38 -11.5t35.5 -19.5t22.5 -14q42 -21 73 -19q19 2 31 9q9 6 10 17v6q1 9 7 14.5t14 4.5q11 0 16 -10q9 -17 4.5 -37.5t-17.5 -31.5q-21 -23 -56 -29q-54 -11 -111 16q-13 6 -30 15.5t-27.5 14
t-19.5 5.5q-12 3 -22 0q-9 -1 -24 -18zM161 116q36 35 52 89t3 101v1q-1 6 -1 13l-1 1l-2 2l-2 2q-15 21 -36 34t-40 11q-35 0 -83 -47q-37 -40 -46 -90q-10 -54 15 -96q24 -40 67 -50q37 -8 74 29zM441 82q7 -13 -5 -23q-26 -22 -66 -33q-39 -9 -74 -4q-21 3 -39.5 16.5
t-30.5 31.5q-1 -1 -3.5 -4.5t-4.5 -5.5q-28 -30 -63 -45q-40 -18 -83 -10q-40 7 -73 34t-48 63q-28 66 -14 144q15 77 64 126q26 25 58 42q37 20 75 18q40 -1 74 -26q28 -22 46 -57q1 -1 2 -6q13 -4 18 -16q26 -65 9 -141q0 -2 -1 -4.5t-1.5 -5t-1.5 -4.5q3 -8 4 -10
q0 -5 -1 -10q-2 -24 6 -44q7 -20 22 -26q23 -9 52 -7q29 1 51 13l3 2q7 3 14 1t11 -9z" />
    <glyph glyph-name="adieresis" unicode="&#xe4;" horiz-adv-x="395" 
d="M213 473q-6 0 -12 3.5t-9.5 9.5t-4.5 13q-1 35 0 71q1 41 5 72q2 15 13.5 23.5t26.5 6.5q9 -1 16.5 -6.5t11 -14.5t2.5 -18q0 -2 -1 -4q-7 -27 -12 -64q-5 -33 -7 -66q0 -12 -8.5 -19.5t-20.5 -6.5zM39 533q-8 1 -14 7t-7 14l-10 112q-1 15 8 26t23.5 12.5t26 -8
t12.5 -24.5q1 -3 0 -7v-1l-12 -110q-1 -10 -9 -16t-18 -5zM161 116q36 35 52 89t3 101v1q-1 6 -1 13l-1 1l-2 2l-2 2q-15 21 -36 34t-40 11q-35 0 -83 -47q-37 -40 -46 -90q-10 -54 15 -96q24 -41 67 -50q37 -8 74 29zM441 82q7 -13 -5 -23q-26 -22 -66 -33q-39 -9 -74 -4
q-21 3 -39.5 16.5t-30.5 31.5q-1 -1 -3.5 -4.5t-4.5 -5.5q-28 -30 -63 -45q-40 -18 -83 -10q-40 7 -73 34t-48 63q-28 66 -14 144q15 77 64 126q26 25 58 42q37 20 75 18q40 -1 74 -26q28 -22 46 -57q1 -1 2 -6q13 -4 18 -16q26 -65 9 -141q0 -3 -1.5 -7.5t-2.5 -6.5
q3 -8 4 -10q0 -5 -1 -10q-2 -24 6 -44q7 -20 22 -26q23 -9 52 -7q29 1 51 13l3 2q7 3 14 1t11 -9z" />
    <glyph glyph-name="aring" unicode="&#xe5;" horiz-adv-x="381" 
d="M175 116q36 35 52 89t4 101l-1 1q-1 6 0 13q-1 0 -1 1q-2 1 -2 2l-2 2q-15 21 -36.5 34t-40.5 11q-35 0 -82 -47q-38 -40 -47 -90q-10 -54 16 -96q24 -41 66 -50q37 -8 74 29zM104 515q-1 -8 13.5 -17.5t32.5 -8.5q18 0 32.5 9t14.5 17q0 10 -12 20q-14 10 -35 10
q-19 0 -34 -10.5t-12 -19.5zM455 82q7 -13 -4 -23q-27 -22 -67 -33q-39 -9 -74 -4q-21 3 -39.5 16.5t-30.5 31.5q-1 -1 -3.5 -4.5t-3.5 -5.5q-28 -30 -63 -45q-41 -18 -84 -10q-40 7 -72.5 34t-47.5 63q-29 66 -15 144q15 77 65 126q26 25 58 42q18 10 39 14q-18 6 -32 16
q-17 11 -29 30t-11.5 41.5t12.5 41t29 28.5q30 20 68 19q39 0 68 -19q11 -7 20 -16.5t15 -24t7 -29.5q0 -22 -11.5 -41t-29 -30.5t-39.5 -17.5q24 -7 42 -20q28 -22 47 -57q0 -1 1 -6q13 -4 18 -16q27 -65 10 -141l-2.5 -7.5t-1.5 -6.5q3 -8 3 -10v-10q-3 -24 5 -44
q7 -20 22 -26q23 -9 52 -7q29 1 52 13l2 2q7 3 14.5 1t10.5 -9z" />
    <glyph glyph-name="ae" unicode="&#xe6;" horiz-adv-x="543" 
d="M380 353q-31 -43 -41 -97q6 1 12 4q17 8 38 34t28 48q10 29 1 42q-2 2 -5 4v-1q-17 -11 -33 -34zM161 116q36 35 52 89t3 101v1q-1 6 -1 13l-1 1l-2 2l-2 2q-15 21 -36 34t-40 11q-35 0 -83 -47q-37 -40 -46 -90q-10 -54 15 -96q24 -41 67 -50q37 -8 74 29zM587 136
q5 -8 3.5 -17.5t-9.5 -15.5q-26 -19 -67.5 -45t-53.5 -33q-18 -9 -39 -12q-31 -4 -63 12q-34 -7 -62 -3q-21 3 -39.5 16.5t-30.5 31.5q-1 -1 -3.5 -4.5t-4.5 -5.5q-28 -30 -63 -45q-40 -18 -83 -10q-40 7 -73 34t-48 63q-28 66 -14 144q15 77 64 126q26 25 58 42
q37 20 75 18q40 -1 74 -26q28 -22 47 -57q0 -1 1 -6q13 -4 18 -16q0 -1 0.5 -2l0.5 -1q15 41 39 75q1 2 3 4q8 10 12 15.5t11.5 13.5t16.5 14t19 12q16 7 34 8q16 -2 34 -11q24 -14 35 -43q16 -41 3 -89q-10 -38 -31 -72q-27 -41 -55 -62q-21 -15 -46 -20h-5h-5
q5 -17 11 -30q14 -28 29 -42q10 -9 25 -12q1 1 3 1l5 2l3 2q10 5 20 -2l1 1q62 22 116 55h1q9 5 18.5 2.5t14.5 -10.5z" />
    <glyph glyph-name="ccedilla" unicode="&#xe7;" horiz-adv-x="426" 
d="M365 229q7 -6 8 -14.5t-4 -16.5q-87 -134 -199 -172q-36 -13 -77 -12l-6 -18q17 2 26 1q20 -1 36 -9q20 -9 28 -30q2 -6 -1 -11.5t-8 -7.5q-12 -5 -19 6v1q-8 15 -37 13q-24 -2 -51 -13q-8 -4 -16.5 -1t-12.5 11q-3 6 -2 12l1 5l6 49q-1 0 -5.5 1t-6.5 2q-42 16 -67 39
q-33 31 -43 70q-19 66 9 147q29 76 82 119q39 30 78 33q23 2 46 -5q26 -7 44 -26q29 -32 29 -85q-2 -36 -14 -73q-5 -15 -18.5 -22t-28 -2t-21.5 19t-2 28v1q8 23 7 49t-9 30q-5 3 -10 5q-9 2 -16 1q-15 -1 -34 -16q-37 -31 -57.5 -85t-8.5 -97q5 -18 20 -35q13 -14 39 -25
q46 -18 100 -4q91 24 181 134l1 1q6 7 15.5 8t17.5 -5z" />
    <glyph glyph-name="egrave" unicode="&#xe8;" horiz-adv-x="279" 
d="M59 508q-30 11 -48 34q-22 27 -19 59q2 29 21 52q5 6 14 6.5t15 -4.5q6 -6 7 -14l1 -6q1 -5 2 -17t1.5 -17t2.5 -11.5t4 -10.5q6 -9 21.5 -16.5t33.5 -9.5q60 -7 158 30h1q13 5 17 -8q4 -10 -5 -17q-37 -26 -81 -42q-51 -19 -94 -18q-30 1 -52 10zM87 343
q-31 -42 -41 -97l12 4q17 9 38 35t28 47q10 29 1 42q-2 3 -5 4q-17 -11 -33 -35zM294 126q5 -8 3.5 -17t-9.5 -15q-26 -19 -67.5 -45.5t-53.5 -32.5q-2 -1 -5.5 -2.5t-14 -5t-19.5 -4.5q-22 -3 -46.5 4.5t-41.5 22.5q-29 24 -51 64q-37 71 -24 154q10 76 56 141q1 1 3 4
q10 13 16 20t18 17t25 17q16 8 34 8q15 -1 34 -11q24 -13 35 -42q16 -42 3 -90q-10 -37 -31 -71q-27 -41 -55 -62q-21 -15 -46 -20h-3.5h-3t-3.5 -1q5 -16 11 -29q14 -28 29 -42t36 -14l21 5q62 23 116 55l1 1q8 5 18 2.5t15 -11.5z" />
    <glyph glyph-name="eacute" unicode="&#xe9;" horiz-adv-x="308" 
d="M31 492q-10 -3 -18.5 1.5t-11.5 13.5q-7 19 11 28q56 31 122 63l63 29q42 20 66 21q7 0 13 -3.5t10 -9t4 -12.5q0 -11 -7 -19q-17 -17 -60 -35l-63 -27q-69 -29 -129 -50zM101 343q-30 -42 -41 -97q7 2 12 5q17 8 38 34t28 47q10 29 1 42q-2 3 -4 4h-1q-17 -11 -33 -35z
M309 126q5 -8 3 -17t-10 -15q-25 -19 -66.5 -45.5t-54.5 -32.5q-17 -10 -39 -12q-22 -3 -46 4.5t-42 22.5q-28 24 -50 64q-37 71 -25 154q11 76 56 141q1 1 3 4q10 13 16 20t18 17t26 17q16 8 33 8q16 -1 34 -11q24 -13 36 -42q15 -42 3 -90q-11 -37 -32 -71
q-26 -41 -55 -62q-21 -15 -46 -20h-5t-4 -1q4 -16 10 -29q14 -28 30 -42q14 -14 36 -14l21 5q61 23 115 55l1 1q9 5 18.5 2.5t15.5 -11.5z" />
    <glyph glyph-name="ecircumflex" unicode="&#xea;" horiz-adv-x="313" 
d="M55 552q-27 -21 -58 -38q-33 -18 -63 -28q-5 -2 -9.5 -1.5t-8.5 2.5t-7.5 5.5t-4.5 8.5q-3 8 0.5 16.5t11.5 11.5l2 1q25 12 51 30q24 18 46 39q43 41 66 94l1 2q7 14 21.5 18.5t28.5 -2.5q12 -6 17 -18q10 -23 27 -51q15 -26 32 -49q41 -56 80 -70l2 -1q9 -3 13.5 -11.5
t0.5 -17.5q-2 -9 -10 -13t-16 -3q-32 6 -67 31q-24 17 -50 45q-22 23 -43 51q0 1 -1.5 3t-2.5 2q-27 -33 -59 -57zM107 343q-30 -42 -41 -97q7 2 12 5q17 8 38 34t28 47q10 29 1 42q-2 3 -4 4h-1q-17 -11 -33 -35zM315 126q5 -8 3 -17t-10 -15q-25 -19 -66.5 -45.5
t-54.5 -32.5q-17 -10 -39 -12q-22 -3 -46 4.5t-42 22.5q-28 24 -50 64q-37 71 -25 154q11 76 56 141q1 1 3 4q10 13 16 20t18 17t26 17q16 8 33 8q16 -1 34 -11q24 -13 36 -42q15 -42 3 -90q-10 -37 -32 -71q-26 -41 -55 -62q-21 -15 -46 -20h-5t-4 -1q4 -16 10 -29
q14 -28 30 -42q14 -14 36 -14l21 5q61 23 115 55l1 1q9 5 19 2.5t15 -11.5z" />
    <glyph glyph-name="edieresis" unicode="&#xeb;" horiz-adv-x="296" 
d="M-5 509q-2 33 -7 66q-5 37 -12 64q-3 15 4.5 27t21.5 16q9 2 18 -0.5t15.5 -9t8.5 -16.5q1 -1 1 -3q4 -31 6 -73q1 -35 -1 -71q-1 -11 -9.5 -19t-19.5 -7q-7 0 -13 3.5t-9.5 9.5t-3.5 13zM171 565l-12 109v2q-1 9 3 17.5t11.5 14t16.5 6.5q15 2 26.5 -7t12.5 -24
q1 -3 0 -7l-10 -111q-1 -10 -8.5 -16.5t-17.5 -5.5q-6 0 -10.5 3t-7.5 8t-4 10v1zM103 343q-30 -42 -41 -97q7 2 12 5q17 8 38 34t28 47q11 29 1 42q-1 3 -4 4h-1q-17 -11 -33 -35zM311 126q5 -8 3 -17t-10 -15q-25 -19 -66.5 -45.5t-54.5 -32.5q-2 -1 -5.5 -2.5t-13.5 -5
t-20 -4.5q-22 -3 -46 4.5t-42 22.5q-28 24 -50 64q-37 71 -25 154q11 76 56 141l4 4q9 13 15 20t18 17t26 17q16 8 34 8q15 -1 33 -10q24 -14 36 -43q15 -42 3 -90q-10 -37 -32 -71q-26 -41 -55 -62q-21 -15 -46 -20h-4.5t-4.5 -1q4 -16 11 -29q14 -28 29 -42q14 -14 36 -14
l21 5q61 23 115 55l1 1q9 5 19 2.5t15 -11.5z" />
    <glyph glyph-name="igrave" unicode="&#xec;" horiz-adv-x="255" 
d="M275 490q4 -9 -4 -15q-33 -27 -74 -43q-50 -20 -88 -17q-63 6 -89 52q-15 27 -12.5 53t18.5 46q6 7 14 7.5t15 -4.5q5 -5 7 -13v-5q1 -8 2.5 -21t2.5 -21.5t4 -14.5q8 -21 44 -27q53 -9 142 30h1q12 5 17 -7zM209 99q12 8 27 6t23 -14q9 -12 7 -26.5t-13 -23.5
q-35 -27 -72 -36q-24 -6 -46 -3q-27 4 -45 15l-3 2q-43 23 -57 72q-11 33 -10 81q1 35 8 75q7 38 18 72q5 18 21.5 26.5t34.5 3.5q12 -4 20 -13t10.5 -20t-0.5 -23q0 -1 -1 -2v-1q-10 -29 -17 -60q-8 -34 -10 -61q-2 -34 4 -55t19 -28l9 -6l-3 2q8 -4 12 -4q9 -2 20 0
q22 4 44 21zM93 15q-1 1 -3 2z" />
    <glyph glyph-name="iacute" unicode="&#xed;" horiz-adv-x="246" 
d="M32 410q-8 -3 -16 0t-12 11q-7 17 8 27q46 30 101 62l52 29q33 19 56 21q10 1 17.5 -5t7.5 -16q1 -9 -5 -17q-14 -18 -48 -35l-53 -27q-57 -28 -108 -50zM242 91q9 -12 7 -26.5t-13 -23.5q-35 -27 -72 -36q-24 -6 -46 -3q-27 4 -45 15l-3 2q-21 11 -36 31t-21 41
q-11 33 -10 81q1 35 8 75q7 38 18 72q5 18 21.5 26.5t34.5 3.5q12 -4 20 -13t10.5 -20t-0.5 -23q0 -1 -1 -2v-1q-10 -29 -17 -60q-8 -34 -10 -61q-2 -34 3 -55q6 -21 20 -28l9 -6l-3 2q8 -4 12 -4q9 -2 20 0q21 4 44 21q12 8 27 6t23 -14zM76 15q-1 1 -3 2z" />
    <glyph glyph-name="icircumflex" unicode="&#xee;" horiz-adv-x="224" 
d="M243 436q9 -3 12.5 -11t0.5 -17q-1 -5 -5 -8.5t-9.5 -5t-10.5 0.5q-28 6 -59 33q-23 20 -43 46q-17 23 -34 49q-19 -28 -43 -49q-22 -22 -49 -40q-29 -19 -57 -31q-8 -3 -16 0.5t-12 11.5q-7 18 10 27l1 1q23 12 44 31q22 18 39 38q34 41 52 92v1l3 4q7 13 20.5 16.5
t25.5 -2.5q11 -6 15 -18q20 -54 47 -98q14 -24 31 -43q20 -22 36 -28h1zM186 99q12 8 26.5 6t23.5 -14t7 -26.5t-14 -23.5q-34 -27 -71 -36q-24 -6 -46 -3q-27 4 -45 15l-3 2q-21 11 -36 31t-21 41q-11 33 -10 81q1 35 8 75q7 38 18 72q5 18 21.5 26.5t34.5 3t26.5 -22
t3.5 -33.5q-1 -1 -1 -2v-1q-10 -29 -18 -60q-7 -34 -9 -61q-2 -34 3 -55q6 -21 20 -28l9 -6l-3 2q8 -4 12 -4q9 -2 20 0q21 4 44 21zM70 15q-1 1 -3 2z" />
    <glyph glyph-name="idieresis" unicode="&#xef;" horiz-adv-x="248" 
d="M8 495q1 -35 -1 -71q-1 -11 -9.5 -19t-19.5 -7q-10 0 -17.5 8t-8.5 18q-2 33 -7 66q-5 37 -12 64q-3 15 4.5 27.5t21.5 16t26.5 -4t15.5 -21.5q1 -2 1 -4q4 -31 6 -73zM128 480l-12 109v2q-1 9 3 17.5t11.5 14.5t17 7t18 -3t14 -11.5t6.5 -17.5q1 -3 0 -7l-10 -111
q-1 -10 -8.5 -16.5t-17.5 -5.5q-6 1 -10.5 3.5t-7.5 7.5t-4 10v1zM245 91q8 -12 6 -26.5t-13 -23.5q-35 -27 -72 -36q-23 -6 -45 -3q-28 4 -46 15l-3 2q-42 23 -57 72q-10 33 -10 81q1 35 8 75q7 38 18 72q5 18 21.5 26.5t34.5 3.5q12 -4 20 -13t10.5 -20t-0.5 -23v-2l-1 -1
q-10 -29 -17 -60q-8 -34 -10 -61q-2 -34 4 -55t19 -28l9 -6l-2 2q8 -4 11 -4q9 -2 20 0q22 4 44 21q12 8 27 6t24 -14zM78 15q-1 1 -3 2z" />
    <glyph glyph-name="eth" unicode="&#xf0;" 
d="M611 199v28q0 3 -0.5 6t-1.5 5.5t-4 4t-7 1.5q-5 0 -9 -2.5t-7 -6.5q-1 4 -4 6.5t-8 2.5t-9.5 -2.5t-6.5 -6.5v8h-10v-44h11v26q1 4 4 6.5t6 2.5t5 -2.5t2 -7.5v-25h11v26q1 4 4 6.5t6.5 2.5t5 -2.5t1.5 -7.5v-25h11zM523.5 226q0.5 -2 0.5 -5t-0.5 -5.5t-2.5 -4.5
t-4 -2.5t-4.5 -0.5t-4.5 0.5t-3.5 2.5t-2.5 4.5t-1 5.5t1 5t2.5 4t3.5 3t4.5 1t4.5 -1t4 -3t2.5 -4zM536 221.5q0 4.5 -1.5 8.5t-4.5 7t-7 5t-9.5 2t-10 -2t-7 -5t-4.5 -7t-2 -8.5t2 -8.5t4.5 -7.5t7 -5t10 -1.5t9.5 1.5t7 5t4.5 7.5t1.5 8.5zM460 472l61 -58v76l-61 55v-73
zM487 210l-11 3q-1 -2 -3.5 -3.5t-5.5 -1.5t-5 1t-3.5 3t-2.5 4t-1 5t1 5.5t2.5 4t3.5 2.5t5 1q2 0 4.5 -1t4.5 -4l11 4q-3 5 -8 8t-12 3q-6 0 -10 -2t-7 -5t-4.5 -7t-1.5 -8.5t1.5 -8.5t4.5 -7.5t7.5 -5t9.5 -1.5q7 0 12 3t8 8zM437 211h-10v-12h10v12zM403.5 228.5
q1.5 -1.5 1.5 -3.5v-10q0 -2 -1.5 -3l-3 -2t-3 -1.5t-2.5 -0.5q-3 0 -5.5 1t-4 2.5t-2 4t-0.5 5t0.5 5t2 4.5t3.5 3t5 1q2 0 3.5 -1l3 -2t3 -2.5zM419 209q-1 0 -1.5 1t-0.5 2v48h-11v-25q-3 4 -6.5 6.5t-8.5 2.5q-4 0 -8 -2t-6.5 -5t-4 -7t-1.5 -8.5t1.5 -9t4.5 -7.5
t7 -4.5t8.5 -1.5t8.5 2t6 6v-3q1 -2 3 -3.5t5 -1.5h4v10zM354 226q1 -2 1 -5t-1 -5.5t-2.5 -4.5t-3.5 -2.5t-4.5 -0.5t-4.5 0.5t-3.5 2.5t-2.5 4.5t-1 5.5t1 5t2.5 4t3.5 3t4.5 1t4.5 -1t3.5 -3t2.5 -4zM366 221.5q0 4.5 -1.5 8.5t-4.5 7t-7 5t-9.5 2t-9.5 -2t-7 -5t-4.5 -7
t-1.5 -8.5t1.5 -8.5t4.5 -7.5t7 -5t9.5 -1.5t9.5 1.5t7 5t4.5 7.5t1.5 8.5zM319 244h-1h-1q-2 0 -3.5 -1t-3.5 -2t-3.5 -3t-2.5 -4v9h-11v-44h12v27q1 4 5 5.5t9 1.5v11zM273 226q1 -2 1 -5t-1 -5.5t-2.5 -4t-3.5 -2.5t-4 -1q-4 0 -7 2.5t-5 5.5v10q1 2 2 3.5t2.5 2.5t3 1.5
t3.5 0.5t4.5 -1t4 -3t2.5 -4zM286 221.5q0 4.5 -1.5 8.5t-4.5 7t-6.5 5t-8.5 2t-8.5 -2.5t-6.5 -5.5v7h-10v-61h12v25q2 -4 6 -6t9 -2q4 0 7.5 1.5t6 4.5t4 7.5t1.5 9zM231 227q0 3 -0.5 6t-2 5.5t-4 4t-6.5 1.5q-6 0 -10.5 -2.5t-7.5 -6.5v8h-10v-44h11v26q1 2 2 3.5t3 3
t3.5 2t3.5 0.5q3 0 5 -2.5t2 -7.5v-25h11v28zM320 299v84v107l201 -191v84l-261 247v-17v-174l-90 85v-83zM184 243h-10l-11 -34l-11 34h-12l16 -44h12zM138 212q0 3 -1 5t-3 3.5t-5 2.5t-8 3q-2 0 -4 0.5t-3 1t-1.5 1.5t-0.5 2q0 3 2 4t5 1t6 -1t7 -4l4 7q-3 3 -7.5 4.5
t-9.5 1.5q-3 0 -6.5 -1t-5.5 -3t-3.5 -4.5t-1.5 -5.5t1 -5t2.5 -3t4.5 -2t8 -3q5 -1 7 -2t2 -3.5t-2 -3.5t-5 -1q-4 0 -7.5 1.5t-7.5 3.5l-4 -7q3 -3 8.5 -4.5t10.5 -1.5q8 0 13 3.5t5 9.5zM716 358q0 -97 -47.5 -179.5t-130.5 -130.5t-180 -48t-179.5 48t-130.5 130.5
t-48 179.5t48 179.5t130.5 130.5t179.5 48t180 -48t130.5 -130.5t47.5 -179.5z" />
    <glyph glyph-name="ntilde" unicode="&#xf1;" horiz-adv-x="500" 
d="M-8 539q-6 -6 -14.5 -6t-14.5 5q-6 6 -6 15q1 38 27 61q29 25 70 18q15 -3 30 -9t25.5 -12t22 -13t17.5 -10q43 -22 74 -20q18 2 30 9q10 7 10 17v7q1 8 7 13.5t14 5.5q11 -1 17 -11q8 -17 4 -37t-18 -32q-21 -22 -56 -29q-54 -10 -111 16q-13 6 -30 15.5t-27.5 14.5
t-19.5 6q-12 2 -22 0q-9 -2 -24 -18zM601 208q10 -11 2 -23q-47 -66 -105 -116q-34 -28 -68 -46q-21 -10 -43 -16q-31 -9 -57 -1q-46 15 -79 68q-17 27 -34 77q-8 24 -14 52l-33 -41q-65 -81 -96 -124q-8 -12 -22 -15t-26 3l-4 3q-16 9 -29 32q-6 12 -10 25q-6 20 -9 44
q-5 35 -6 82q-2 74 4 158q1 18 14.5 30t31.5 11t30 -14.5t11 -31.5v-1q-6 -81 -4 -150q0 -42 4 -72q30 32 55 65q29 37 44 61q24 34 34 61q4 11 13 17.5t19 8t21 -2.5q20 -7 25 -28l2 -8q3 -15 8.5 -44t11 -51.5t11.5 -42.5q10 -33 24 -60t28 -33q1 -3 16 -1t29 7
q25 9 60 31q54 34 115 87v1q6 5 13.5 4.5t12.5 -6.5z" />
    <glyph glyph-name="ograve" unicode="&#xf2;" horiz-adv-x="446" 
d="M156 515q-31 10 -49 33q-22 27 -19 60q2 29 21 51q6 7 14.5 7.5t15.5 -5.5q6 -5 7 -13v-7q1 -5 2 -13.5t1.5 -13.5t1.5 -11t2.5 -10t3.5 -7q5 -10 21 -17t33 -9q61 -7 158 29h1q13 5 18 -8q4 -10 -5 -16q-37 -26 -81 -43q-52 -19 -95 -18q-29 2 -51 11zM296 129
q42 45 43 105q1 64 -40 106q-42 45 -97 40q-58 -3 -93 -48q-35 -43 -29 -102q3 -57 41.5 -100.5t85.5 -43.5q48 -2 89 43zM343 379q52 -62 52 -145q1 -83 -44 -148q-23 -36 -60.5 -59t-81.5 -25q-45 -1 -84.5 19.5t-66.5 54.5q-52 62 -55 150q-2 40 11 81t40 71
q27 32 65.5 50t79.5 19q28 0 55 -8.5t49.5 -24t39.5 -35.5z" />
    <glyph glyph-name="oacute" unicode="&#xf3;" horiz-adv-x="446" 
d="M93 499q-9 -3 -17.5 1t-12.5 14q-6 18 11 28q56 31 123 63l63 29q42 20 66 20q11 1 18.5 -6.5t8 -18t-7.5 -18.5q-16 -18 -59 -36l-64 -27q-68 -28 -129 -49zM296 129q42 45 43 105q1 64 -40 106q-42 45 -97 40q-58 -3 -93 -48q-35 -43 -29 -102q3 -57 41.5 -100.5
t85.5 -43.5q48 -2 89 43zM343 379q52 -62 52 -145q1 -83 -44 -148q-23 -36 -60.5 -59t-81.5 -25q-45 -1 -84.5 19.5t-66.5 54.5q-52 62 -55 150q-2 40 11 81t40 71q27 32 65.5 50t79.5 19q28 0 55 -8.5t49.5 -24t39.5 -35.5z" />
    <glyph glyph-name="ocircumflex" unicode="&#xf4;" horiz-adv-x="460" 
d="M391 529q10 -3 14 -12t1 -18q-3 -8 -10.5 -12.5t-16.5 -2.5q-31 6 -66 30q-25 18 -51 45q-22 24 -42 51q-1 1 -2 3l-2 3q-28 -33 -59 -57q-28 -22 -58 -38q-33 -18 -64 -28q-6 -2 -12 -1t-11 5t-7 10q-2 9 1.5 17t11.5 12l1 1q26 12 51 30q25 17 47 38q42 41 65 95h1l1 2
q7 13 21.5 18t28.5 -2q11 -6 16 -18q11 -23 27 -52q15 -26 32 -49q41 -56 81 -69zM296 129q42 45 43 105q1 64 -40 106q-42 45 -97 40q-58 -3 -93 -48q-35 -43 -29 -102q3 -57 41.5 -100.5t85.5 -43.5q48 -2 89 43zM199 447q42 1 80 -18t64 -50q52 -62 52 -145
q1 -83 -44 -148q-23 -36 -60.5 -59t-81.5 -25q-45 -1 -84.5 19.5t-66.5 54.5q-52 62 -55 150q-2 40 11 81t40 71q27 32 65.5 50t79.5 19z" />
    <glyph glyph-name="otilde" unicode="&#xf5;" horiz-adv-x="446" 
d="M56 554q-6 -6 -14 -6t-14 6q-7 6 -6 15q1 37 27 60q28 25 69 18q19 -3 37 -11t35.5 -19t22.5 -14q43 -21 74 -19q19 1 30 9q10 6 10 16l1 7q0 8 6 13.5t15 5.5q10 -1 16 -10q9 -17 4.5 -37.5t-17.5 -32.5q-21 -22 -56 -29q-55 -10 -112 16q-13 6 -29.5 15.5t-27 14.5
t-20.5 6q-12 2 -22 0q-8 -2 -24 -18zM296 129q42 45 43 105q1 64 -40 106q-42 45 -97 40q-58 -3 -93 -48q-35 -43 -29 -102q3 -57 41.5 -100.5t85.5 -43.5q48 -2 89 43zM343 379q52 -62 52 -145q1 -83 -44 -148q-23 -36 -60.5 -59t-81.5 -25q-45 -1 -84.5 19.5t-66.5 54.5
q-52 62 -55 150q-2 40 11 81t40 71q27 32 65.5 50t79.5 19q28 0 55 -8.5t49.5 -24t39.5 -35.5z" />
    <glyph glyph-name="odieresis" unicode="&#xf6;" horiz-adv-x="446" 
d="M45 653v1q-3 14 4 26.5t22 15.5q9 3 18 0t15.5 -9.5t8.5 -15.5q1 -2 1 -4q4 -31 5 -72q2 -36 0 -72q-1 -11 -9.5 -18.5t-19.5 -7.5q-11 1 -18.5 8.5t-7.5 17.5q-2 34 -7 66q-5 37 -12 64zM240 579l-12 109v2q-1 9 2.5 18t11.5 14.5t17 6.5q7 1 14 -1t12 -6.5t8.5 -10.5
t4.5 -13v-7l-10 -112q-1 -10 -8.5 -16.5t-17.5 -5.5q-9 1 -15 7t-7 15zM296 129q42 45 43 105q1 64 -40 106q-42 45 -97 40q-58 -3 -93 -48q-35 -43 -29 -102q3 -57 41.5 -100.5t85.5 -43.5q48 -2 89 43zM343 379q52 -62 52 -145q1 -83 -44 -148q-15 -23 -35.5 -41
t-48.5 -30t-58 -13q-45 -1 -84.5 19.5t-66.5 54.5q-52 62 -55 150q-2 40 11 81t40 71q27 32 65.5 50t79.5 19q42 1 80 -18t64 -50z" />
    <glyph glyph-name="divide" unicode="&#xf7;" horiz-adv-x="528" 
d="M193.5 221q18.5 17 42.5 17.5t39 -16t12.5 -40t-21 -40.5t-42 -17.5t-38.5 16t-13 40t20.5 40.5zM288.5 517q-19.5 -18 -44 -18.5t-40.5 16.5t-13.5 42t22 42.5t44.5 18.5t40.5 -16.5t13 -42t-22 -42.5zM452 410q9 1 16 -7t8.5 -21t-4 -23.5t-14.5 -11.5q-30 -6 -111 -11
l-108 -5l-217 -5q-3 0 -6.5 1.5t-6 4.5t-4.5 7t-3.5 9t-1.5 10q0 14 6.5 23.5t15.5 9.5v0l216 4l108 5q76 4 105 10h1z" />
    <glyph glyph-name="ugrave" unicode="&#xf9;" horiz-adv-x="465" 
d="M117 485q-30 11 -49 34q-21 27 -19 59q2 30 21 52q6 7 14.5 7.5t15.5 -5.5q6 -5 7 -13l1 -7q0 -5 1 -17t2 -16.5t2.5 -11.5t4.5 -11q4 -6 12.5 -11.5t19.5 -9t22 -4.5q61 -7 158 29h1q13 5 18 -8q4 -10 -5 -16q-37 -26 -81 -43q-52 -19 -94 -18q-30 2 -52 10zM516 139
q10 -10 10.5 -24.5t-9.5 -25.5q-45 -48 -91 -71q-32 -15 -62 -17q-20 -1 -34 1q-22 4 -37 12l1 -1l-2 1h1q-40 19 -61 65q-31 -31 -67 -49q-45 -21 -86 -17q-25 2 -48.5 17t-34.5 37q-17 30 -22 82q-3 34 0 74q6 69 25 140q4 17 19 26t32.5 4.5t26.5 -19.5t4 -33v-1l-1 -1
q-18 -63 -25 -124q-4 -33 -2 -60q2 -34 10 -48.5t25 -17.5q19 -3 45 9q47 21 84 75v4v6q3 38 14 82q10 42 24 79q7 17 24.5 24.5t34.5 0.5t24.5 -24t0.5 -34v-2l-1 -1q-13 -31 -23 -65q-11 -37 -14 -67q-4 -34 3 -59q7 -24 25 -34l3 -2l10 -3q6 -1 17 -1q16 1 36 9
q13 6 36 22q15 12 33 30l1 1q11 10 25.5 10t25.5 -10zM332 81zM294 13z" />
    <glyph glyph-name="uacute" unicode="&#xfa;" horiz-adv-x="465" 
d="M119 470q-9 -3 -18 1t-12 13q-7 19 11 29q56 31 123 63l62 29q42 20 67 20q10 1 18 -6.5t8 -18t-7 -18.5q-17 -18 -60 -36l-63 -27q-69 -28 -129 -49zM516 139q10 -10 10.5 -24.5t-9.5 -25.5q-45 -48 -91 -71q-32 -15 -62 -17q-20 -1 -34 1q-22 4 -37 12l1 -1l-2 1h1
q-40 19 -61 65q-31 -31 -67 -49q-45 -21 -86 -17q-25 2 -48.5 17t-34.5 37q-17 30 -22 82q-3 34 0 74q6 69 25 140q4 17 19 26t32.5 4.5t26.5 -19.5t4 -33v-1l-1 -1q-18 -63 -25 -124q-4 -33 -2 -60q2 -34 10 -48.5t25 -17.5q19 -3 45 9q47 21 84 75v4v6q3 38 14 82
q10 42 24 79q7 17 24.5 24.5t34.5 0.5t24.5 -24t0.5 -34v-2l-1 -1q-13 -31 -23 -65q-11 -37 -14 -67q-4 -34 3 -59q7 -24 25 -34l3 -2l10 -3q6 -1 17 -1q16 1 36 9q13 6 36 22q15 12 33 30l1 1q11 10 25.5 10t25.5 -10zM332 81zM294 13z" />
    <glyph glyph-name="ucircumflex" unicode="&#xfb;" horiz-adv-x="482" 
d="M5 463q-9 -3 -18 1.5t-12 13.5q-1 4 -1 8.5t2 8.5t4.5 7t6.5 5h2q26 13 51 31q25 17 46 38q43 41 66 94l2 3q7 13 21.5 18t27.5 -2q12 -6 17 -18q11 -24 27 -52q15 -26 32 -49q41 -56 81 -70h1q9 -3 13.5 -12t1.5 -18q-3 -8 -10.5 -12.5t-16.5 -2.5q-31 6 -66 30
q-25 18 -51 45q-22 24 -42 51l-3 3l-1 3q-28 -34 -59 -57q-28 -22 -58 -38q-33 -18 -64 -29zM519 139q10 -10 10 -24.5t-9 -25.5q-45 -48 -91 -71q-32 -15 -62 -17q-20 -1 -34 1q-22 4 -37 12l1 -1l-2 1q-40 19 -60 65q-31 -31 -68 -49q-44 -21 -85 -17q-25 2 -48.5 17
t-35.5 37q-16 30 -22 82q-2 34 1 74q6 69 24 140q5 17 20 26t32.5 4.5t26 -19.5t4.5 -33v-1l-1 -1q-18 -63 -25 -124q-4 -33 -2 -60q1 -34 9.5 -48.5t25.5 -17.5q19 -3 45 9q46 21 84 75v3v4v3q3 38 13 82q11 42 25 79q7 17 24 24.5t34.5 0.5t25 -24t0.5 -34v-2l-1 -1
q-13 -31 -23 -65q-11 -37 -14 -67q-4 -34 3 -59q7 -24 25 -34l3 -2l10 -3q6 -1 16 -1q17 1 36 9q14 6 37 22q15 12 33 30l1 1q10 10 25 10t26 -10zM335 81zM297 13z" />
    <glyph glyph-name="udieresis" unicode="&#xfc;" horiz-adv-x="465" 
d="M261 445q-10 0 -17.5 7.5t-8.5 18.5q-2 35 -1 71q2 41 6 72q1 7 4.5 13.5t9 10.5t12 5.5t13.5 0.5q15 -1 24 -13t7 -26q-1 -2 -1 -4q-7 -27 -12 -64q-5 -33 -7 -66q0 -8 -4 -14t-10.5 -9.5t-14.5 -2.5zM87 505q-8 1 -14 7t-7 14l-10 112q-2 15 7.5 26t24 12.5t26 -8
t12.5 -24.5v-7v-1l-12 -110q-1 -10 -9 -16t-18 -5zM516 139q10 -10 10.5 -24.5t-9.5 -25.5q-45 -48 -91 -71q-32 -15 -62 -17q-20 -1 -34 1q-22 4 -37 12l1 -1l-2 1h1q-40 19 -61 65q-31 -31 -67 -49q-45 -21 -86 -17q-25 2 -48.5 17t-34.5 37q-17 30 -22 82q-3 34 0 74
q6 69 25 140q4 17 19 26t32.5 4.5t26.5 -19.5t4 -33v-1l-1 -1q-18 -63 -25 -124q-4 -33 -2 -60q2 -34 10 -48.5t25 -17.5q19 -3 45 9q47 21 84 75v4v6q3 38 14 82q10 42 24 79q7 17 24.5 24.5t34.5 0.5t24.5 -24t0.5 -34v-2l-1 -1q-13 -31 -23 -65q-11 -37 -14 -67
q-4 -34 3 -59q7 -24 25 -34l3 -2l10 -3q6 -1 17 -1q16 1 36 9q13 6 36 22q15 12 33 30l1 1q11 10 25.5 10t25.5 -10zM332 81zM294 13z" />
    <glyph glyph-name="yacute" unicode="&#xfd;" horiz-adv-x="564" 
d="M164 497q-9 -3 -17.5 1.5t-12.5 13.5q-6 19 11 28q56 31 123 63l63 29q42 20 66 21q11 0 18.5 -7.5t8 -18t-6.5 -18.5q-17 -17 -60 -35l-64 -27q-68 -29 -129 -50zM414 -132q0 2 0.5 3.5t0.5 3.5v3l-66 -42q-69 -46 -94 -68q-58 -50 -79 -79q-34 -42 -39 -93t19 -100
q25 -60 58 -77q16 -8 33 -3q18 6 38 24q11 10 15 16l15 23q17 32 25 51q23 51 38 108q28 103 36 230zM555 -23q3 -7 -4 -11l-64 -41q-2 -61 -2 -62q-10 -134 -40 -243q-17 -62 -43 -118q-9 -22 -29 -57l-17 -28q-9 -12 -25 -27q-32 -28 -65 -38q-43 -14 -83 8
q-23 13 -40.5 33t-27 36t-20.5 40q-30 69 -23 134q7 67 52 126q25 33 62 63t64.5 46.5t73.5 40.5q37 20 92 46q5 122 -6 247q-14 -27 -29 -48q-29 -41 -74 -70t-96 -36q-31 -5 -60 3q-33 9 -56 34q-15 17 -26 41l-95 -83q-6 -5 -13.5 -4.5t-11.5 6.5q-10 11 -1 23l102 131
q-10 81 11 181q4 16 18 25.5t31 6.5q17 -4 26 -18t6 -30v-3q-18 -94 -10 -162q5 -43 21 -61q15 -17 49 -14q73 6 129 70q41 49 67 121q0 4 -2.5 24t-4.5 30v2q-2 15 7 27t24 14.5t27.5 -6.5t14.5 -24q30 -199 25 -394q2 1 22.5 10.5t31.5 13.5q8 4 12 -5z" />
    <glyph glyph-name="thorn" unicode="&#xfe;" 
d="M611 199v28q0 3 -0.5 6t-1.5 5.5t-4 4t-7 1.5q-5 0 -9 -2.5t-7 -6.5q-1 4 -4 6.5t-8 2.5t-9.5 -2.5t-6.5 -6.5v8h-10v-44h11v26q1 4 4 6.5t6 2.5t5 -2.5t2 -7.5v-25h11v26q1 4 4 6.5t6.5 2.5t5 -2.5t1.5 -7.5v-25h11zM523.5 226q0.5 -2 0.5 -5t-0.5 -5.5t-2.5 -4.5
t-4 -2.5t-4.5 -0.5t-4.5 0.5t-3.5 2.5t-2.5 4.5t-1 5.5t1 5t2.5 4t3.5 3t4.5 1t4.5 -1t4 -3t2.5 -4zM536 221.5q0 4.5 -1.5 8.5t-4.5 7t-7 5t-9.5 2t-10 -2t-7 -5t-4.5 -7t-2 -8.5t2 -8.5t4.5 -7.5t7 -5t10 -1.5t9.5 1.5t7 5t4.5 7.5t1.5 8.5zM460 472l61 -58v76l-61 55v-73
zM487 210l-11 3q-1 -2 -3.5 -3.5t-5.5 -1.5t-5 1t-3.5 3t-2.5 4t-1 5t1 5.5t2.5 4t3.5 2.5t5 1q2 0 4.5 -1t4.5 -4l11 4q-3 5 -8 8t-12 3q-6 0 -10 -2t-7 -5t-4.5 -7t-1.5 -8.5t1.5 -8.5t4.5 -7.5t7.5 -5t9.5 -1.5q7 0 12 3t8 8zM437 211h-10v-12h10v12zM403.5 228.5
q1.5 -1.5 1.5 -3.5v-10q0 -2 -1.5 -3l-3 -2t-3 -1.5t-2.5 -0.5q-3 0 -5.5 1t-4 2.5t-2 4t-0.5 5t0.5 5t2 4.5t3.5 3t5 1q2 0 3.5 -1l3 -2t3 -2.5zM419 209q-1 0 -1.5 1t-0.5 2v48h-11v-25q-3 4 -6.5 6.5t-8.5 2.5q-4 0 -8 -2t-6.5 -5t-4 -7t-1.5 -8.5t1.5 -9t4.5 -7.5
t7 -4.5t8.5 -1.5t8.5 2t6 6v-3q1 -2 3 -3.5t5 -1.5h4v10zM354 226q1 -2 1 -5t-1 -5.5t-2.5 -4.5t-3.5 -2.5t-4.5 -0.5t-4.5 0.5t-3.5 2.5t-2.5 4.5t-1 5.5t1 5t2.5 4t3.5 3t4.5 1t4.5 -1t3.5 -3t2.5 -4zM366 221.5q0 4.5 -1.5 8.5t-4.5 7t-7 5t-9.5 2t-9.5 -2t-7 -5t-4.5 -7
t-1.5 -8.5t1.5 -8.5t4.5 -7.5t7 -5t9.5 -1.5t9.5 1.5t7 5t4.5 7.5t1.5 8.5zM319 244h-1h-1q-2 0 -3.5 -1t-3.5 -2t-3.5 -3t-2.5 -4v9h-11v-44h12v27q1 4 5 5.5t9 1.5v11zM273 226q1 -2 1 -5t-1 -5.5t-2.5 -4t-3.5 -2.5t-4 -1q-4 0 -7 2.5t-5 5.5v10q1 2 2 3.5t2.5 2.5t3 1.5
t3.5 0.5t4.5 -1t4 -3t2.5 -4zM286 221.5q0 4.5 -1.5 8.5t-4.5 7t-6.5 5t-8.5 2t-8.5 -2.5t-6.5 -5.5v7h-10v-61h12v25q2 -4 6 -6t9 -2q4 0 7.5 1.5t6 4.5t4 7.5t1.5 9zM231 227q0 3 -0.5 6t-2 5.5t-4 4t-6.5 1.5q-6 0 -10.5 -2.5t-7.5 -6.5v8h-10v-44h11v26q1 2 2 3.5t3 3
t3.5 2t3.5 0.5q3 0 5 -2.5t2 -7.5v-25h11v28zM320 299v84v107l201 -191v84l-261 247v-17v-174l-90 85v-83zM184 243h-10l-11 -34l-11 34h-12l16 -44h12zM138 212q0 3 -1 5t-3 3.5t-5 2.5t-8 3q-2 0 -4 0.5t-3 1t-1.5 1.5t-0.5 2q0 3 2 4t5 1t6 -1t7 -4l4 7q-3 3 -7.5 4.5
t-9.5 1.5q-3 0 -6.5 -1t-5.5 -3t-3.5 -4.5t-1.5 -5.5t1 -5t2.5 -3t4.5 -2t8 -3q5 -1 7 -2t2 -3.5t-2 -3.5t-5 -1q-4 0 -7.5 1.5t-7.5 3.5l-4 -7q3 -3 8.5 -4.5t10.5 -1.5q8 0 13 3.5t5 9.5zM716 358q0 -97 -47.5 -179.5t-130.5 -130.5t-180 -48t-179.5 48t-130.5 130.5
t-48 179.5t48 179.5t130.5 130.5t179.5 48t180 -48t130.5 -130.5t47.5 -179.5z" />
    <glyph glyph-name="ydieresis" unicode="&#xff;" horiz-adv-x="535" 
d="M319 435q-7 0 -13 3.5t-9.5 9.5t-3.5 13q-2 36 -1 71q1 42 6 73q2 14 13.5 23t26 7t23 -13.5t6.5 -26.5q0 -2 -1 -4q-6 -27 -12 -64q-4 -33 -6 -66q-1 -8 -5 -14t-10.5 -9.5t-13.5 -2.5zM145 495q-9 1 -15 7t-6 15l-11 111q-1 15 8.5 26t24 12.5t25.5 -8t13 -23.5v-7
l-1 -2l-12 -109v-1q-1 -10 -8.5 -16t-17.5 -5zM400 -145v4.5v4.5l-65 -42q-70 -46 -95 -68q-57 -50 -79 -78q-33 -42 -38 -93.5t19 -100.5q24 -59 58 -77q16 -8 33 -3q18 6 38 24q11 10 15 16l14 24q18 31 26 50q23 52 38 108q27 103 36 231zM540 -36q3 -8 -3 -12l-64 -41
l-2 -61q-10 -134 -40 -244q-17 -62 -43 -118q-9 -22 -29 -57l-17 -28q-9 -12 -26 -27q-31 -28 -64 -38q-43 -14 -83 8q-23 13 -41 33t-27 36t-20 40q-31 69 -23 134q7 67 51 126q25 33 62 63t65 46.5t74 40.5q37 20 92 46q4 122 -6 247q-14 -27 -29 -48q-29 -41 -74 -70
t-97 -36q-30 -4 -59 3q-33 9 -56 34q-16 17 -27 41l-95 -83q-5 -4 -12.5 -3.5t-12.5 5.5q-9 11 0 23l102 131q-10 81 11 181q3 17 17.5 26t31.5 6q16 -4 25.5 -18t6.5 -30v-3q-18 -94 -11 -162q6 -43 22 -61q15 -17 48 -14q74 6 129 71q42 48 68 121q0 3 -2.5 23t-4.5 30v2
q-2 10 1.5 19t11.5 15t18 8q15 2 27 -7t15 -24q29 -199 24 -394q3 1 23 10.5t31 14.5q9 3 12 -5z" />
    <glyph glyph-name="OE" unicode="&#x152;" horiz-adv-x="1050" 
d="M505 308q5 38 -13 77q-16 30 -54 75q-73 80 -149 86q-80 9 -154 -61q-36 -33 -57 -72q-23 -38 -26 -82v-6q-1 -9 -7.5 -16t-16.5 -7q3 -28 8 -50q12 -49 38 -82q26 -34 68 -51t90 -15q91 3 175 63q39 28 66 65t32 76zM975 229q7 6 16.5 5.5t15.5 -6.5q6 -7 6 -15.5
t-5 -14.5q-88 -101 -209 -135q-68 -17 -130 -7q-35 6 -66.5 27.5t-49.5 51.5q-12 19 -22 45q-36 -45 -82 -75q-103 -69 -216 -68q-65 0 -115 20q-59 23 -96 73q-60 78 -64 218q-1 14 9 24.5t24 10.5q2 0 9 -1q9 82 78 159q43 48 95 72q62 28 124 22q111 -12 206 -117
l2.5 -2.5l3 -3t1.5 -2.5l2 108q0 16 12 27.5t28 10.5q5 0 13 -2l425 52q9 1 16 -4.5t8 -14.5q1 -8 -3.5 -14.5t-12.5 -8.5l-409 -105l-5 -177v-10q0 -1 1 -5t1 -6q0 29 26 41q3 1 7 2l258 67q8 2 16 -2.5t10 -12.5q5 -18 -12 -25l-243 -110q-16 -7 -33.5 -0.5t-24.5 22.5
q-3 7 -4 16q5 -33 0 -63q0 -3 -1 -7t-2 -5q0 -2 0.5 -7.5t0.5 -7.5q6 -62 28 -96q24 -41 71 -51q47 -12 102 0q100 21 189 105z" />
    <glyph glyph-name="oe" unicode="&#x153;" horiz-adv-x="670" 
d="M463 358q-30 -43 -41 -97q7 1 12 4q17 8 38 34t28 48q10 29 1 42l-4 4q0 -1 -1 -1q-17 -10 -33 -34zM253 129q42 45 43 105q1 64 -40 106q-42 45 -97 40q-57 -3 -93 -48q-35 -43 -29 -102q3 -57 42 -100.5t85 -43.5q48 -2 89 43zM671 141q5 -8 3 -17.5t-10 -15.5
q-17 -13 -44.5 -30.5t-48.5 -30.5t-28 -17q-17 -9 -39 -12q-14 -2 -30 1t-31 9.5t-27 16.5q-28 24 -50 65q-14 25 -21 61q-11 -48 -37 -85q-23 -36 -60.5 -59t-81.5 -25q-44 -1 -84 19.5t-67 54.5q-52 62 -55 150q-2 40 11 81t40 71q27 32 65.5 50t79.5 19q42 1 80 -18
t64 -50q33 -39 46 -94q14 65 51 119q1 2 3 4q10 13 16 20t18 17.5t26 17.5q16 8 34 8q15 -2 33 -11q24 -14 36 -43q15 -41 3 -89q-10 -38 -32 -72q-26 -41 -55 -62q-21 -15 -46 -20h-5h-4q4 -17 10 -30q15 -28 30 -42q14 -14 36 -14l21 6q61 22 115 55h1q9 5 19 3t15 -11z
" />
    <glyph glyph-name="Scaron" unicode="&#x160;" horiz-adv-x="509" 
d="M499 517q6 -34 -17 -63q-18 -21 -47 -34q-9 -4 -18.5 -0.5t-13.5 11.5q-5 13 3 23l4 5q14 16 17 26q4 12 1 20q-3 10 -14 20q-8 10 -26 18q-64 31 -155 18q-42 -5 -77 -20q-15 -6 -20 -13q-4 -5 -4 -16q0 -22 24 -61q19 -29 49 -63q82 -86 119 -138q33 -49 46 -88
q10 -33 6 -59q-4 -19 -13 -34q-8 -13 -21 -24q-39 -36 -107 -42q-51 -4 -102 8q-59 14 -95 36q-28 20 -41 38q-11 17 -11 34t12 33q5 7 15 9t18 -4q14 -9 9 -25l-1 -3q-1 -4 -1.5 -5.5t0 -2.5t2 -3t2.5 -3q8 -9 28 -18q30 -15 77 -21q39 -7 80 -1.5t58 24.5q5 5 8 9q1 2 2 6
q2 9 -4 26q-9 28 -36 66q-34 48 -113 129q-36 40 -59 76q-33 54 -35 100q-1 38 22 65q19 23 54 36q37 14 84 21q-9 18 -14 26q-10 18 -22 34q-28 38 -55 48h-1q-6 2 -9 8t-1 12q4 13 18 11q22 -4 46 -21q17 -12 34 -31q15 -16 29 -35q1 0 2 -1.5t1 -2.5q19 23 41 40
q19 14 39 26q23 12 44 19q6 2 12 -1t8 -9q5 -14 -8 -20h-1q-18 -9 -35 -21t-32 -26q-21 -20 -37 -50q89 1 157 -33q65 -33 75 -89z" />
    <glyph glyph-name="scaron" unicode="&#x161;" horiz-adv-x="466" 
d="M470 549q6 -37 -17 -67q-17 -23 -47 -36q-9 -4 -18 -0.5t-13 12.5q-6 13 3 24l3 5q14 17 18 28q4 12 1 21q-4 11 -14 21q-9 10 -26 20q-64 32 -155 19q-42 -6 -78 -22q-15 -6 -20 -14q-4 -5 -4 -16q1 -24 25 -65q18 -31 49 -68q82 -91 118 -146q33 -51 46 -93
q10 -35 6 -62q-3 -21 -12 -37q-8 -13 -21 -26q-40 -37 -107 -44q-51 -4 -102 8q-60 15 -95 39q-29 21 -42 40q-11 18 -11 36q0 19 12 35q6 8 15.5 10t17.5 -4q14 -10 9 -26l-1 -5q-2 -7 1 -11l3 -3q8 -9 28 -19q30 -16 76 -22q39 -7 80.5 -1.5t58.5 25.5q5 5 7 9q1 2 2 7
q2 10 -3 28q-10 29 -37 70q-34 50 -113 137q-36 41 -59 80q-33 57 -35 106q-1 40 22 69q19 24 54 39q46 18 99 25q-8 17 -16 30q-10 18 -22 34q-28 38 -55 48h-1q-7 2 -10 8t0 12q4 14 18 11q21 -4 45 -21q17 -12 35 -31q15 -16 29 -35q1 0 1.5 -1.5t1.5 -2.5q19 23 40 40
q19 14 40 26q22 12 44 19q6 2 12 -1t8 -9q5 -14 -8 -20h-1q-18 -9 -36 -21q-16 -12 -31 -26q-25 -24 -41 -57q83 0 149 -35q64 -35 74 -94z" />
    <glyph glyph-name="Ydieresis" unicode="&#x178;" horiz-adv-x="554" 
d="M142 640v1q-3 14 4.5 26.5t21.5 16.5q9 2 18 -0.5t15.5 -9.5t8.5 -16q1 -2 1 -4q4 -31 6 -72q1 -36 -1 -71q-1 -12 -9.5 -19.5t-19.5 -6.5q-11 0 -18 7.5t-8 18.5q-2 33 -7 66q-5 37 -12 63zM337 566l-12 109v2q-1 10 3 18.5t11.5 14t16.5 6.5q15 2 26.5 -7.5t12.5 -23.5
q1 -3 0 -7l-10 -112q-1 -10 -8.5 -16t-17.5 -5q-8 0 -14.5 6t-7.5 15zM534 572q8 -6 10 -15.5t-3 -17.5q-57 -94 -111 -178q-95 -143 -118 -174q-81 -115 -126 -170q-40 -49 -86 -76q-64 -36 -121 -27q-10 2 -15.5 10t-4.5 17q3 16 18 20l8 2q37 9 75 39q31 23 67 65
q37 44 95 123q-12 2 -19 11l-202 239q-13 15 -11 35.5t17.5 33.5t35.5 11.5t34 -17.5q1 -2 3 -4l176 -258q0 -1 0.5 -2t0.5 -2l119 162l124 168q6 8 16 9.5t18 -4.5z" />
    <glyph glyph-name="Zcaron" unicode="&#x17d;" horiz-adv-x="802" 
d="M820 133q6 -10 -2 -18q-86 -77 -207 -98q-113 -19 -231 14q-27 8 -55 18q-45 17 -52 20q-46 17 -92 15q-45 -3 -89 -25q-26 -15 -40 -27q-3 -2 -7 -6t-7.5 -6.5t-7.5 -5.5t-9.5 -5t-11.5 -2l-0.5 -0.5l-0.5 -0.5q-9 -4 -18 -1.5t-14 10.5q-3 5 -3 11q-1 5 -2 7v2
q1 8 2.5 14.5t6 12.5t7.5 9t9.5 9t8.5 8q19 17 51 36q30 17 66 27q23 20 46 42q93 89 158 173q16 23 26.5 38.5t23.5 38t18 38t3.5 31.5t-11.5 26q-24 29 -85 48q-51 16 -109 21h-1q-17 2 -27.5 14.5t-9 28.5t14 26.5t28.5 9.5h2q66 -8 125 -29q1 0 2.5 -0.5t2.5 -1.5
q-11 18 -21 32q-28 39 -55 48h-1q-7 2 -9.5 8t-0.5 13q4 13 18 10q21 -4 45 -21q17 -12 35 -31q15 -16 29 -34q1 -1 2 -2.5l1 -1.5q19 23 40 39q19 15 40 26q23 12 44 19q6 2 12 -0.5t8 -9.5q5 -13 -8 -19l-1 -1q-18 -8 -36 -21q-16 -11 -31 -26q-27 -26 -43 -61
q27 -19 44 -40q28 -35 26 -78q-2 -31 -21 -71q-23 -46 -71 -105q-66 -82 -162 -168q44 -4 87 -22q11 -4 51 -21q26 -11 49 -18q113 -36 204 -27q103 7 197 65q12 8 19 -4z" />
    <glyph glyph-name="zcaron" unicode="&#x17e;" horiz-adv-x="361" 
d="M237 -301q25 72 21 178q-2 43 -13 81q-41 -19 -75 -35q-10 -4 -28.5 -12t-32.5 -14.5t-24 -12.5q-37 -21 -59 -56q-38 -63 -7 -155q10 -33 44 -55t70 -19q34 2 64 30q26 27 40 70zM351 37q7 -11 -3 -20q-15 -12 -35 -24q16 -50 19 -112q3 -121 -27 -207q-20 -56 -58 -96
q-47 -47 -108 -52q-63 -5 -117 28.5t-76 93.5q-18 59 -15 110q4 62 38 109q32 45 88 70q15 7 31 13t34.5 11.5t29.5 9.5q37 13 78 28q-11 22 -24 37q-24 29 -63 42q-38 14 -77 9q-7 -1 -14 1t-12.5 6t-9 10t-4.5 14v4v25q30 57 39 81q18 42 19 77q-1 30 -21 35q-10 1 -14 -1
q-7 -3 -22 -24l-4 -6q-6 -8 -15.5 -9.5t-18.5 4.5q-10 8 -10 21q2 34 22 61q14 16 34 23t40 4q1 0 3 -0.5t3 -0.5q-1 1 -2 3.5t-2 3.5q-10 18 -22 34q-28 38 -55 47h-1q-7 3 -9.5 9t-0.5 12q4 13 18 10q21 -4 45 -20q17 -12 35 -31q15 -16 29 -35l2 -2l1 -2q19 23 40 39
q19 15 40 26q23 12 44 20q4 1 8 0t7.5 -3.5t4.5 -7.5q5 -13 -8 -19l-1 -1q-18 -8 -36 -20q-16 -12 -31 -27q-29 -28 -45 -64l-1 -2q0 -1 -4 -4l2 -2t1 -2q20 -26 23 -66q3 -45 -21 -110q-5 -11 -16 -35q23 -4 43 -11q57 -21 95 -67q21 -26 36 -59q18 8 27 14l3 1q12 9 21 -4
z" />
    <glyph glyph-name="florin" unicode="&#x192;" 
d="M611 199v28q0 3 -0.5 6t-1.5 5.5t-4 4t-7 1.5q-5 0 -9 -2.5t-7 -6.5q-1 4 -4 6.5t-8 2.5t-9.5 -2.5t-6.5 -6.5v8h-10v-44h11v26q1 4 4 6.5t6 2.5t5 -2.5t2 -7.5v-25h11v26q1 4 4 6.5t6.5 2.5t5 -2.5t1.5 -7.5v-25h11zM523.5 226q0.5 -2 0.5 -5t-0.5 -5.5t-2.5 -4.5
t-4 -2.5t-4.5 -0.5t-4.5 0.5t-3.5 2.5t-2.5 4.5t-1 5.5t1 5t2.5 4t3.5 3t4.5 1t4.5 -1t4 -3t2.5 -4zM536 221.5q0 4.5 -1.5 8.5t-4.5 7t-7 5t-9.5 2t-10 -2t-7 -5t-4.5 -7t-2 -8.5t2 -8.5t4.5 -7.5t7 -5t10 -1.5t9.5 1.5t7 5t4.5 7.5t1.5 8.5zM460 472l61 -58v76l-61 55v-73
zM487 210l-11 3q-1 -2 -3.5 -3.5t-5.5 -1.5t-5 1t-3.5 3t-2.5 4t-1 5t1 5.5t2.5 4t3.5 2.5t5 1q2 0 4.5 -1t4.5 -4l11 4q-3 5 -8 8t-12 3q-6 0 -10 -2t-7 -5t-4.5 -7t-1.5 -8.5t1.5 -8.5t4.5 -7.5t7.5 -5t9.5 -1.5q7 0 12 3t8 8zM437 211h-10v-12h10v12zM403.5 228.5
q1.5 -1.5 1.5 -3.5v-10q0 -2 -1.5 -3l-3 -2t-3 -1.5t-2.5 -0.5q-3 0 -5.5 1t-4 2.5t-2 4t-0.5 5t0.5 5t2 4.5t3.5 3t5 1q2 0 3.5 -1l3 -2t3 -2.5zM419 209q-1 0 -1.5 1t-0.5 2v48h-11v-25q-3 4 -6.5 6.5t-8.5 2.5q-4 0 -8 -2t-6.5 -5t-4 -7t-1.5 -8.5t1.5 -9t4.5 -7.5
t7 -4.5t8.5 -1.5t8.5 2t6 6v-3q1 -2 3 -3.5t5 -1.5h4v10zM354 226q1 -2 1 -5t-1 -5.5t-2.5 -4.5t-3.5 -2.5t-4.5 -0.5t-4.5 0.5t-3.5 2.5t-2.5 4.5t-1 5.5t1 5t2.5 4t3.5 3t4.5 1t4.5 -1t3.5 -3t2.5 -4zM366 221.5q0 4.5 -1.5 8.5t-4.5 7t-7 5t-9.5 2t-9.5 -2t-7 -5t-4.5 -7
t-1.5 -8.5t1.5 -8.5t4.5 -7.5t7 -5t9.5 -1.5t9.5 1.5t7 5t4.5 7.5t1.5 8.5zM319 244h-1h-1q-2 0 -3.5 -1t-3.5 -2t-3.5 -3t-2.5 -4v9h-11v-44h12v27q1 4 5 5.5t9 1.5v11zM273 226q1 -2 1 -5t-1 -5.5t-2.5 -4t-3.5 -2.5t-4 -1q-4 0 -7 2.5t-5 5.5v10q1 2 2 3.5t2.5 2.5t3 1.5
t3.5 0.5t4.5 -1t4 -3t2.5 -4zM286 221.5q0 4.5 -1.5 8.5t-4.5 7t-6.5 5t-8.5 2t-8.5 -2.5t-6.5 -5.5v7h-10v-61h12v25q2 -4 6 -6t9 -2q4 0 7.5 1.5t6 4.5t4 7.5t1.5 9zM231 227q0 3 -0.5 6t-2 5.5t-4 4t-6.5 1.5q-6 0 -10.5 -2.5t-7.5 -6.5v8h-10v-44h11v26q1 2 2 3.5t3 3
t3.5 2t3.5 0.5q3 0 5 -2.5t2 -7.5v-25h11v28zM320 299v84v107l201 -191v84l-261 247v-17v-174l-90 85v-83zM184 243h-10l-11 -34l-11 34h-12l16 -44h12zM138 212q0 3 -1 5t-3 3.5t-5 2.5t-8 3q-2 0 -4 0.5t-3 1t-1.5 1.5t-0.5 2q0 3 2 4t5 1t6 -1t7 -4l4 7q-3 3 -7.5 4.5
t-9.5 1.5q-3 0 -6.5 -1t-5.5 -3t-3.5 -4.5t-1.5 -5.5t1 -5t2.5 -3t4.5 -2t8 -3q5 -1 7 -2t2 -3.5t-2 -3.5t-5 -1q-4 0 -7.5 1.5t-7.5 3.5l-4 -7q3 -3 8.5 -4.5t10.5 -1.5q8 0 13 3.5t5 9.5zM716 358q0 -97 -47.5 -179.5t-130.5 -130.5t-180 -48t-179.5 48t-130.5 130.5
t-48 179.5t48 179.5t130.5 130.5t179.5 48t180 -48t130.5 -130.5t47.5 -179.5z" />
    <glyph glyph-name="tilde" unicode="&#x2dc;" horiz-adv-x="348" 
d="M29 668q-5 -5 -12 -5.5t-12 5.5t-5 15q1 37 23 60q24 26 58 18q16 -3 31 -11t29.5 -19t19.5 -14q35 -21 61 -19q16 2 25 9q8 6 9 16v7q0 8 5.5 13.5t12.5 5.5q9 0 13 -10q8 -17 4 -37.5t-15 -32.5q-17 -22 -47 -29q-45 -10 -93 16q-11 6 -25 15.5t-22.5 14.5t-16.5 6
q-10 2 -19 0q-7 -2 -20 -18z" />
    <glyph glyph-name="endash" unicode="&#x2013;" horiz-adv-x="582" 
d="M30 255q18 3 40 3.5t39.5 0t38.5 0.5h119q146 -1 238 -9q12 -1 19.5 -8.5t6.5 -17.5q-2 -9 -10.5 -15t-20.5 -6h-1q-77 4 -232 1l-117 -3q-9 0 -58.5 -2.5t-58.5 0.5q-14 1 -23 10.5t-8 20.5q1 9 9 16t19 9z" />
    <glyph glyph-name="emdash" unicode="&#x2014;" horiz-adv-x="836" 
d="M45 269q26 3 58 4t58 0.5t58 0.5h175q216 -1 351 -9q12 -1 21 -4.5t14 -9.5t3 -12q-1 -10 -14.5 -16t-30.5 -5h-1q-115 3 -342 0l-173 -3q-13 0 -86 -2.5t-87 0.5q-21 2 -34.5 11t-11.5 21q2 9 13.5 15.5t28.5 8.5z" />
    <glyph glyph-name="quoteleft" unicode="&#x2018;" horiz-adv-x="153" 
d="M95 677l-1 -1q-28 -33 -36 -86q-3 -24 -3 -49q1 -27 6 -49v-1v-2q2 -11 -5 -21t-19 -11.5t-21.5 5.5t-11.5 19q-4 27 -4 59q1 31 6 59q14 67 54 109q7 7 16.5 7.5t16.5 -5.5q7 -7 7.5 -16.5t-5.5 -16.5z" />
    <glyph glyph-name="quoteright" unicode="&#x2019;" horiz-adv-x="153" 
d="M9 466v1q29 33 37 86q3 24 2 49q-1 27 -5 49v1l-1 1q-2 12 5.5 22t19 11.5t21.5 -5.5t11 -19q5 -27 4 -59q0 -31 -6 -59q-13 -67 -54 -109q-7 -7 -16 -7.5t-16 5.5q-8 7 -8.5 16.5t6.5 16.5z" />
    <glyph glyph-name="quotesinglbase" unicode="&#x201a;" horiz-adv-x="179" 
d="M50 123q1 -2 8 -9q-3 2 -8 9zM49 126l1 -1zM128 141q1 -14 0 -22q-1 -15 -7 -34q-7 -21 -24 -52q-26 -44 -61 -87q-50 -65 -136 -153q-7 -7 -16.5 -7t-16.5 7q-7 6 -7.5 15t5.5 16v1q76 92 120 158q28 42 47 83q12 26 15 41q3 11 3 16v1q-16 25 3 47q10 13 27 14.5
t29 -9.5q8 -7 15 -21q1 -4 4 -14z" />
    <glyph glyph-name="quotedblleft" unicode="&#x201c;" horiz-adv-x="264" 
d="M208 771l-1 -2q-16 -33 -21 -57q-7 -33 -6 -60q1 -31 8 -61q7 -33 18 -58l1 -1q0 -1 1 -3q5 -14 -2 -27.5t-21 -18.5t-27.5 2t-18.5 21q-11 32 -16 74q-5 37 -2 73q2 35 14 73q9 30 32 68q5 7 14 9.5t17 -1.5t11 -13.5t-1 -17.5zM95 729l-1 -1q-28 -33 -36 -85
q-3 -25 -3 -50q1 -27 6 -49v-1v-1q2 -12 -5 -21.5t-19 -11.5t-21.5 5t-11.5 19q-4 27 -4 60q1 30 6 59q14 67 54 109q7 6 16.5 6.5t16.5 -5.5t7.5 -16t-5.5 -17z" />
    <glyph glyph-name="quotedblright" unicode="&#x201d;" horiz-adv-x="264" 
d="M6 515l1 2q17 33 21 56q7 33 6 61q-1 31 -8 61q-7 33 -18 57v2q-1 1 -2 3q-4 14 2.5 27.5t20.5 18t27.5 -2t18.5 -20.5q11 -33 16 -74q5 -37 3 -74q-2 -34 -14 -73q-9 -30 -33 -67q-5 -8 -13.5 -10t-16.5 2q-9 4 -12 13t1 18zM119 557h1q29 33 36 86q4 24 3 50
q-1 27 -5 48l-1 2v1q-2 12 5.5 21.5t19 11.5t21.5 -5t11 -19q5 -27 4 -60q0 -30 -6 -59q-13 -67 -54 -109q-7 -7 -16 -7t-16 6q-8 6 -8.5 16t5.5 17z" />
    <glyph glyph-name="quotedblbase" unicode="&#x201e;" horiz-adv-x="363" 
d="M235 109q1 -3 8 -9q-4 2 -8 9zM313 126q1 -13 0 -22q-1 -14 -7 -33q-7 -21 -25 -52q-25 -44 -60 -87q-51 -65 -136 -153q-7 -7 -17 -7t-17 6q-6 7 -6.5 16t5.5 16q76 93 119 159q28 41 48 83q12 26 15 41q3 10 2 16v1q-15 25 3 46q11 13 27.5 14.5t29.5 -8.5q7 -7 15 -22
q1 -3 4 -14zM86 100q-3 2 -7 9q0 -3 7 -9zM125 19q-26 -44 -60 -87q-51 -65 -137 -153q-6 -7 -16 -7t-17 6q-6 7 -6.5 16t4.5 16h1q76 93 119 159q28 41 48 83q12 26 15 41q3 10 2 16v1q-15 25 3 46q11 13 27.5 14.5t29.5 -8.5q7 -7 15 -22q1 -3 3 -14q2 -13 1 -22
q-1 -14 -8 -33q-7 -21 -24 -52z" />
    <glyph glyph-name="daggerdbl" unicode="&#x2021;" 
d="M611 199v28q0 3 -0.5 6t-1.5 5.5t-4 4t-7 1.5q-5 0 -9 -2.5t-7 -6.5q-1 4 -4 6.5t-8 2.5t-9.5 -2.5t-6.5 -6.5v8h-10v-44h11v26q1 4 4 6.5t6 2.5t5 -2.5t2 -7.5v-25h11v26q1 4 4 6.5t6.5 2.5t5 -2.5t1.5 -7.5v-25h11zM523.5 226q0.5 -2 0.5 -5t-0.5 -5.5t-2.5 -4.5
t-4 -2.5t-4.5 -0.5t-4.5 0.5t-3.5 2.5t-2.5 4.5t-1 5.5t1 5t2.5 4t3.5 3t4.5 1t4.5 -1t4 -3t2.5 -4zM536 221.5q0 4.5 -1.5 8.5t-4.5 7t-7 5t-9.5 2t-10 -2t-7 -5t-4.5 -7t-2 -8.5t2 -8.5t4.5 -7.5t7 -5t10 -1.5t9.5 1.5t7 5t4.5 7.5t1.5 8.5zM460 472l61 -58v76l-61 55v-73
zM487 210l-11 3q-1 -2 -3.5 -3.5t-5.5 -1.5t-5 1t-3.5 3t-2.5 4t-1 5t1 5.5t2.5 4t3.5 2.5t5 1q2 0 4.5 -1t4.5 -4l11 4q-3 5 -8 8t-12 3q-6 0 -10 -2t-7 -5t-4.5 -7t-1.5 -8.5t1.5 -8.5t4.5 -7.5t7.5 -5t9.5 -1.5q7 0 12 3t8 8zM437 211h-10v-12h10v12zM403.5 228.5
q1.5 -1.5 1.5 -3.5v-10q0 -2 -1.5 -3l-3 -2t-3 -1.5t-2.5 -0.5q-3 0 -5.5 1t-4 2.5t-2 4t-0.5 5t0.5 5t2 4.5t3.5 3t5 1q2 0 3.5 -1l3 -2t3 -2.5zM419 209q-1 0 -1.5 1t-0.5 2v48h-11v-25q-3 4 -6.5 6.5t-8.5 2.5q-4 0 -8 -2t-6.5 -5t-4 -7t-1.5 -8.5t1.5 -9t4.5 -7.5
t7 -4.5t8.5 -1.5t8.5 2t6 6v-3q1 -2 3 -3.5t5 -1.5h4v10zM354 226q1 -2 1 -5t-1 -5.5t-2.5 -4.5t-3.5 -2.5t-4.5 -0.5t-4.5 0.5t-3.5 2.5t-2.5 4.5t-1 5.5t1 5t2.5 4t3.5 3t4.5 1t4.5 -1t3.5 -3t2.5 -4zM366 221.5q0 4.5 -1.5 8.5t-4.5 7t-7 5t-9.5 2t-9.5 -2t-7 -5t-4.5 -7
t-1.5 -8.5t1.5 -8.5t4.5 -7.5t7 -5t9.5 -1.5t9.5 1.5t7 5t4.5 7.5t1.5 8.5zM319 244h-1h-1q-2 0 -3.5 -1t-3.5 -2t-3.5 -3t-2.5 -4v9h-11v-44h12v27q1 4 5 5.5t9 1.5v11zM273 226q1 -2 1 -5t-1 -5.5t-2.5 -4t-3.5 -2.5t-4 -1q-4 0 -7 2.5t-5 5.5v10q1 2 2 3.5t2.5 2.5t3 1.5
t3.5 0.5t4.5 -1t4 -3t2.5 -4zM286 221.5q0 4.5 -1.5 8.5t-4.5 7t-6.5 5t-8.5 2t-8.5 -2.5t-6.5 -5.5v7h-10v-61h12v25q2 -4 6 -6t9 -2q4 0 7.5 1.5t6 4.5t4 7.5t1.5 9zM231 227q0 3 -0.5 6t-2 5.5t-4 4t-6.5 1.5q-6 0 -10.5 -2.5t-7.5 -6.5v8h-10v-44h11v26q1 2 2 3.5t3 3
t3.5 2t3.5 0.5q3 0 5 -2.5t2 -7.5v-25h11v28zM320 299v84v107l201 -191v84l-261 247v-17v-174l-90 85v-83zM184 243h-10l-11 -34l-11 34h-12l16 -44h12zM138 212q0 3 -1 5t-3 3.5t-5 2.5t-8 3q-2 0 -4 0.5t-3 1t-1.5 1.5t-0.5 2q0 3 2 4t5 1t6 -1t7 -4l4 7q-3 3 -7.5 4.5
t-9.5 1.5q-3 0 -6.5 -1t-5.5 -3t-3.5 -4.5t-1.5 -5.5t1 -5t2.5 -3t4.5 -2t8 -3q5 -1 7 -2t2 -3.5t-2 -3.5t-5 -1q-4 0 -7.5 1.5t-7.5 3.5l-4 -7q3 -3 8.5 -4.5t10.5 -1.5q8 0 13 3.5t5 9.5zM716 358q0 -97 -47.5 -179.5t-130.5 -130.5t-180 -48t-179.5 48t-130.5 130.5
t-48 179.5t48 179.5t130.5 130.5t179.5 48t180 -48t130.5 -130.5t47.5 -179.5z" />
    <glyph glyph-name="bullet" unicode="&#x2022;" horiz-adv-x="269" 
d="M186.5 316.5q24.5 -25.5 19.5 -65.5t-37 -70.5t-72 -33.5t-64.5 22.5t-19.5 65t37 70t72 34t64.5 -22z" />
    <glyph glyph-name="ellipsis" unicode="&#x2026;" horiz-adv-x="640" 
d="M543.5 90q19.5 0 33 -13t13.5 -32t-13.5 -32t-33.5 -13q-13 0 -23.5 6t-17 16.5t-6.5 22.5q0 19 14 32t33.5 13zM295 90q20 0 33.5 -13t13.5 -32t-13.5 -32t-33 -13t-33.5 13t-14 32q0 12 6.5 22.5t17 16.5t23.5 6zM47.5 90q19.5 0 33 -13t13.5 -32t-13.5 -32t-33 -13
t-33.5 13t-14 32t14 32t33.5 13z" />
    <glyph glyph-name="perthousand" unicode="&#x2030;" horiz-adv-x="1210" 
d="M713 585l-1 -1l-282 -378l-142 -189l-70 -94q-4 -5 -11.5 -15t-13 -17.5t-9.5 -12.5q-9 -14 -3 -27l3 -5q5 -10 1.5 -20.5t-13.5 -16.5q-10 -4 -20 -1.5t-15 11.5q-27 40 -3 86q8 12 20.5 30t14.5 20l68 97l136 194l272 387q10 14 27 17t31 -7t17 -27t-7 -31zM1059 109
q25 25 28 63q3 37 -20 51.5t-66 2.5q-49 -12 -100 -68q5 -7 7 -14v-4q1 -5 1.5 -12t1 -10.5t1.5 -8t2.5 -7t4.5 -5.5t7 -6q22 -17 68 -11q43 7 65 29zM796 109q25 25 29 63q2 37 -20.5 51.5t-65.5 2.5q-49 -12 -100 -68q5 -7 6 -14l1 -4q1 -6 2 -14l1.5 -12t2 -9t4.5 -8
t8 -6q22 -17 68 -11q43 7 64 29zM1149 231q11 -28 10 -63q-4 -64 -49 -110q-40 -39 -107 -49q-72 -7 -117 24q-18 11 -31 34q-1 -1 -3.5 -4t-3.5 -5q-40 -39 -107 -49q-72 -7 -117 24q-21 12 -33.5 37t-12.5 50q-1 0 -1 1q-11 9 -8 23q12 54 54 93t98 56q71 20 121 -9
q27 -17 42 -48q41 40 99 57q71 20 121 -9q31 -19 45 -53zM70 436q20 -24 58 -28q35 -4 70.5 11.5t47.5 42.5q13 26 0 47q-5 10 -18 17.5t-25 8.5q-28 1 -67 -15.5t-71 -42.5q-16 -16 5 -41zM223 357q-52 -19 -104 -10q-62 9 -95 54q-21 29 -23 56q-2 38 26 64q35 31 78 57
q55 31 101 31q67 -2 105 -61q17 -30 16 -62.5t-17 -58.5q-28 -48 -87 -70z" />
    <glyph glyph-name="guilsinglleft" unicode="&#x2039;" horiz-adv-x="285" 
d="M0 260l111 87l54 44l5 4q14 11 19 17q7 8 13 24l3 6q5 12 16 11q6 -1 10.5 -7t3.5 -14q-1 -20 -8.5 -37t-14 -24.5t-18.5 -18.5l-5 -5l-54 -49q-24 -21 -72 -62l-1 -1l157 -108q11 -7 7 -23q-3 -11 -11 -13q-2 -1 -4 -1q-4 0 -7 2l-201 110q-8 4 -12 15t-1.5 23.5
t10.5 19.5z" />
    <glyph glyph-name="guilsinglright" unicode="&#x203a;" horiz-adv-x="300" 
d="M235 231q8 -7 11 -19.5t-2 -23.5q-4 -10 -12 -14l-200 -111q-3 -2 -7 -2q-2 0 -4 1q-9 3 -11 13q-4 16 7 24l156 108h-1q-47 41 -71 63l-54 48q-3 3 -5 6q-12 10 -18.5 17.5t-14 24.5t-8.5 37q-1 9 3 15t11 6q11 2 16 -10l2 -7q7 -16 14 -23q5 -6 18 -18l5 -4l55 -44z
" />
    <glyph glyph-name="Euro" unicode="&#x20ac;" horiz-adv-x="643" 
d="M589 83q2 -6 1.5 -11t-4 -9.5t-7.5 -6.5q-145 -67 -310 -36q-97 20 -147 78q-26 34 -38 77q-1 -1 -2 -1h-1q-26 -4 -46 -10h-1q-12 -3 -22.5 3.5t-14 18.5t3 22.5t18.5 14.5h2q23 4 52 8h1q-1 16 -1 29q1 10 3 31q-35 -3 -68 -8h-1q-12 -2 -22 5.5t-11.5 19.5t6 22
t19.5 12h2q40 3 87 5q10 36 26 70q36 75 93 131q32 31 65 50q44 25 84 26q50 3 88 -32q21 -19 26 -45q6 -27 -5 -53q-4 -9 -13 -12.5t-18 0.5q-8 4 -12 12t-1 16l1 4q4 12 0 21q-3 10 -13 18q-23 18 -50 15q-52 -4 -109 -64q-66 -68 -95 -157q38 -1 69 -5q49 -6 77 -17
q9 -3 12.5 -11.5t0.5 -16.5q-4 -8 -11.5 -12t-16.5 -1q-23 8 -66 11q-32 2 -70 1q-2 0 -4.5 -0.5t-4.5 -0.5q-3 -20 -4 -37q0 -7 1 -24q52 0 92 -10q9 -2 14 -10.5t3 -18.5q-2 -9 -10 -14t-17 -3h-1q-31 6 -72 4q9 -29 22 -45q34 -41 113 -61q65 -16 141 -11q74 4 138 29
l1 1q8 3 16 -0.5t11 -11.5z" />
    <glyph glyph-name="trademark" unicode="&#x2122;" horiz-adv-x="583" 
d="M499 465q12 -2 17 -7q7 -7 7 -16q0 -10 -6.5 -16.5t-15.5 -7.5h-4q-16 0 -28 9q-8 5 -13 12q-4 7 -6 14l-1 2q-4 14 -4 36q0 15 1 34q1 26 6 63q3 18 5 36q-30 -16 -66 -20q-43 -4 -78 9q1 -5 1 -7q3 -51 -2 -107q0 -11 -8.5 -17.5t-18.5 -6t-17 8.5t-6 18q2 53 -2 100
q-3 27 -7 48q-6 26 -14 40q-1 0 -1.5 2l-0.5 2l-66 -4q-1 -15 -2 -31q-1 -23 0 -52q1 -50 7 -106q1 -10 -5.5 -18t-16.5 -10h-3q-4 0 -8.5 2t-8 4.5t-5.5 6.5t-3 9q-7 58 -10 109q-2 32 -2 56q1 14 2 27l-85 -4q-13 0 -21 7q-9 9 -9.5 21t7.5 21t20 9l246 9q46 2 65 3l2 -11
l-1 12q11 1 19 -6t9 -18t-6 -19t-17 -10q-14 -1 -48 -3q1 -1 1 -2l1 -3q5 -8 12 -14q9 -10 20 -15q24 -12 56 -10t56 16q16 8 26 21l4 22q2 12 12 19t22 5q8 -2 13.5 -7t8.5 -12.5t1 -15.5q-15 -65 -25 -122q-6 -34 -8 -60q-4 -38 -1 -53z" />
    <glyph glyph-name="uni59736" unicode="&#xe958;" horiz-adv-x="335" 
d="M-14 604q-8 -3 -15.5 1t-9.5 12q-6 17 10 25h1q23 11 45 27q22 15 41 33q37 36 57 83l1 2q6 12 19 16t25 -2q10 -6 15 -16q9 -20 23 -45q13 -23 28 -43q36 -49 70 -61h2q5 -2 8.5 -6.5t4.5 -9.5t0 -10q-6 -17 -24 -14q-27 5 -58 27q-21 15 -44 39q-19 21 -37 44
q-1 1 -2 3t-2 3q-24 -30 -51 -50q-24 -19 -51 -34q-29 -15 -56 -24z" />
  </font>
</defs>
</svg>
